<svg xmlns="http://www.w3.org/2000/svg" width="110" height="110" fill="none"><path fill="#000" d="M72.01 47.17c1.143 0 2.07-2.418 2.07-5.4s-.927-5.4-2.07-5.4c-1.143 0-2.07 2.418-2.07 5.4s.927 5.4 2.07 5.4zm-50.4 33.12a1.35 1.35 0 1 0 0-2.7 1.35 1.35 0 0 0 0 2.7zm41.4-23.04a1.35 1.35 0 1 0 0-2.7 1.35 1.35 0 0 0 0 2.7z"/><path fill="#fff" d="m30.16 37.45-.09-.09c3.69-2.16 8.19-3.96 13.68-5.13-.27.36-3.24 4.77 1.98 9.45 6.57 5.85 10.17 10.98.72 18.27H30.61c7.47-3.42 7.47-9.27 2.43-13.5-5.04-4.23-3.06-8.73-2.88-9zM93.7 54.28c.72 2.88-1.35 5.67-4.32 5.67H58.87V27.1c24.75 1.62 32.4 18.18 34.83 27.18zM83.08 41.77c-8.91-8.64-15.84-5.4-22.14-.09 8.01 7.47 15.03 6.84 22.14.09z"/><path fill="#fff" d="M61.93 41.59c6.3-5.31 13.32-8.55 22.14.09-7.11 6.84-14.13 7.47-22.14-.09zm30.06 32.94v1.53c0 4.95-4.05 9-9 9h-58.5c-4.95 0-9-4.05-9-9V60.49c0-5.85 3.24-16.29 14.67-23.04l.09.09c-.09.27-2.25 4.77 2.88 9s5.13 10.08-2.43 13.5h-2.97V73c0 2.52 1.98 4.5 4.5 4.5h50.58c.99 0 1.8-.81 1.8-1.8v-2.52c0-.99-.81-1.8-1.8-1.8h-7.02s.9-5.85 6.75-5.85h.63c4.77-.09 8.82 3.96 8.82 9z"/><path fill="#000" d="M82.9 65.53h-.63c-5.85 0-6.75 5.85-6.75 5.85h7.02c.99 0 1.8.81 1.8 1.8v2.52c0 .99-.81 1.8-1.8 1.8H58.87v7.47h24.12c4.95 0 9-4.05 9-9v-1.53c0-4.95-4.05-9-9.09-8.91zM58.87 30.88v29.07H46.54c9.45-7.38 5.85-12.42-.72-18.27-5.22-4.68-2.25-9.09-1.98-9.45 4.32-.9 9.27-1.44 14.85-1.35h.18z"/><path stroke="#000" stroke-miterlimit="10" d="M58.87 27.1v32.85h30.51c2.97 0 5.13-2.79 4.32-5.67-2.43-9-10.08-25.56-34.83-27.18z"/><path stroke="#000" stroke-miterlimit="10" d="M61.93 41.59c6.3-5.31 13.32-8.55 22.14.09-7.11 6.84-14.22 7.47-22.14-.09z"/><path stroke="#000" stroke-miterlimit="10" d="M58.87 59.95H27.64V73c0 2.52 1.98 4.5 4.5 4.5h50.58c.99 0 1.8-.81 1.8-1.8v-2.52c0-.99-.81-1.8-1.8-1.8H75.7s.9-5.85 6.75-5.85h.54c4.95 0 9.09 4.05 9.09 9v1.53c0 4.95-4.05 9-9 9h-58.5c-4.95 0-9-4.05-9-9V60.4c0-9.18 7.92-29.7 43.2-29.52"/><path stroke="#000" stroke-linecap="round" stroke-miterlimit="10" d="M73.99 51.31v.99c0 .99.81 1.8 1.8 1.8h17.73"/><path stroke="#000" stroke-miterlimit="10" d="M43.84 32.23s-3.51 4.59 1.98 9.45c6.57 5.85 10.17 10.98.72 18.27m-16.38-22.5s-2.43 4.68 2.88 9c5.13 4.23 5.13 10.08-2.43 13.5"/><path fill="#000" d="M37.18 64.09h5.04c1.53 0 3.06.63 4.14 1.71a5.936 5.936 0 0 1 1.71 4.14H37.18v-5.85z"/><path stroke="#000" stroke-miterlimit="10" d="M37.18 59.95v10.08"/><path fill="#000" d="M58.96 64.09H64c1.53 0 3.06.63 4.14 1.71a5.936 5.936 0 0 1 1.71 4.14H58.96v-5.85z"/><path stroke="#000" stroke-miterlimit="10" d="M58.96 59.95v10.08"/><path fill="#000" d="M73 47.17c1.143 0 2.07-2.418 2.07-5.4s-.927-5.4-2.07-5.4c-1.143 0-2.07 2.418-2.07 5.4s.927 5.4 2.07 5.4zM21.61 80.29a1.35 1.35 0 1 0 0-2.7 1.35 1.35 0 0 0 0 2.7zm41.4-23.04a1.35 1.35 0 1 0 0-2.7 1.35 1.35 0 0 0 0 2.7z"/></svg>