<svg width="172" height="109" viewBox="0 0 172 109" fill="none" xmlns="http://www.w3.org/2000/svg">
<path d="M1 107.478H171" stroke="#2B323C" stroke-width="2" stroke-miterlimit="10" stroke-linecap="round" stroke-linejoin="round"/>
<path d="M88.5474 90.224V36.0713" stroke="url(#paint0_linear)" stroke-width="2" stroke-miterlimit="10" stroke-linecap="round" stroke-linejoin="round" stroke-dasharray="0.5 4"/>
<path d="M95.0979 38.6699V45.8418C95.0979 50.623 98.945 54.4688 103.728 54.4688H142.095C146.878 54.4688 150.725 58.3146 150.725 63.0958V83.9878" stroke="url(#paint1_linear)" stroke-width="2" stroke-miterlimit="10" stroke-linecap="round" stroke-linejoin="round" stroke-dasharray="0.5 4"/>
<path d="M81.893 38.6699V45.8418C81.893 50.623 78.0459 54.4688 73.2631 54.4688H34.8961C30.1132 54.4688 26.2661 58.3146 26.2661 63.0958V83.9878" stroke="url(#paint2_linear)" stroke-width="2" stroke-miterlimit="10" stroke-linecap="round" stroke-linejoin="round" stroke-dasharray="0.5 4"/>
<path d="M18.0522 105.296V101.658H26.4743V105.296H22.2113" fill="#2D313A"/>
<path d="M19.092 104.88H17.7403C16.9085 104.88 16.2847 105.503 16.2847 106.335H28.2419C28.2419 105.503 27.618 104.88 26.7862 104.88H23.563" fill="#474E61"/>
<path d="M37.3916 82.1174V101.658C37.3916 102.282 36.8717 102.905 36.1439 102.905H8.07046C7.44661 102.905 6.82275 102.386 6.82275 101.658V82.1174C6.82275 81.4938 7.34263 80.8701 8.07046 80.8701H36.1439C36.8717 80.8701 37.3916 81.3898 37.3916 82.1174C37.3916 82.1174 37.3916 82.0135 37.3916 82.1174Z" fill="#474E61"/>
<path d="M35.6238 97.0842V100.306H8.7981V82.5326H35.6238V93.7581" fill="#2D313A"/>
<path d="M50.2847 106.335H40.0951C39.2633 106.335 38.6394 105.711 38.6394 104.88V80.6617C38.6394 79.8302 39.2633 79.2065 40.0951 79.2065H50.2847C51.1165 79.2065 51.7403 79.8302 51.7403 80.6617V104.88C51.8443 105.607 51.1165 106.335 50.2847 106.335Z" fill="#474E61"/>
<path d="M49.037 82.7416H41.3428C41.0309 82.7416 40.719 82.4297 40.719 82.1177C40.719 81.8058 41.0309 81.4939 41.3428 81.4939H49.037C49.349 81.4939 49.6609 81.8058 49.6609 82.1177C49.6609 82.4297 49.349 82.7416 49.037 82.7416Z" fill="#2D313A"/>
<path d="M49.037 85.8592H41.3428C41.0309 85.8592 40.719 85.5472 40.719 85.2353C40.719 84.9234 41.0309 84.6115 41.3428 84.6115H49.037C49.349 84.6115 49.6609 84.9234 49.6609 85.2353C49.6609 85.5472 49.349 85.8592 49.037 85.8592Z" fill="#2D313A"/>
<path d="M46.6453 101.346H43.838C43.526 101.346 43.2141 101.034 43.2141 100.722C43.2141 100.41 43.526 100.098 43.838 100.098H46.6453C46.9572 100.098 47.2692 100.41 47.2692 100.722C47.2692 101.138 46.9572 101.346 46.6453 101.346Z" fill="#2D313A"/>
<path d="M45.1897 98.6433C46.1659 98.6433 46.9573 97.8522 46.9573 96.8764C46.9573 95.9005 46.1659 95.1094 45.1897 95.1094C44.2135 95.1094 43.4221 95.9005 43.4221 96.8764C43.4221 97.8522 44.2135 98.6433 45.1897 98.6433Z" fill="#2D313A"/>
<path d="M22.1622 103.843C21.6423 103.843 21.2264 103.531 21.0185 103.115L19.8747 101.14C19.6668 100.828 19.5628 100.517 19.5628 100.101V93.6565C17.5873 92.721 16.3396 90.7462 16.2356 88.4595C16.2356 88.4595 16.2356 88.4595 16.2356 88.3556C16.2356 85.861 17.7952 83.6783 20.1867 82.8467C20.8105 82.6389 21.4344 82.5349 22.1622 82.5349C24.6576 82.5349 26.8411 84.094 27.6729 86.4846C28.7127 89.291 27.361 92.4092 24.7616 93.6565C24.6576 94.0723 24.5536 94.3841 24.2417 94.7998L24.1377 94.9038L24.3457 95.1117C24.4497 95.2156 24.5536 95.3195 24.5536 95.4235C24.7616 95.7353 24.7616 96.0471 24.7616 96.3589C24.6576 96.5668 24.5536 96.7747 24.4497 96.9826C24.4497 97.0865 24.4497 97.0865 24.3457 97.0865V97.1905C24.5536 97.5023 24.7616 97.8141 24.7616 98.2299V98.6456C24.7616 99.0614 24.6576 99.3732 24.3457 99.685C24.5536 99.9968 24.6576 100.309 24.6576 100.724V100.932C24.6576 101.452 24.4497 101.972 24.0338 102.387L22.89 103.427C22.89 103.427 22.7861 103.531 22.6821 103.635C22.6821 103.739 22.4741 103.843 22.1622 103.843ZM22.2662 85.9649C22.1622 85.9649 22.1622 86.0689 22.2662 85.9649C22.1622 86.0689 22.1622 86.1728 22.2662 86.1728C22.2662 86.1728 22.3702 86.1728 22.2662 85.9649C22.2662 85.9649 22.3702 86.0689 22.2662 85.9649Z" fill="url(#paint3_linear)"/>
<path d="M22.2659 83.574C24.2415 83.574 26.113 84.8213 26.8409 86.7962C27.7767 89.2907 26.425 92.0971 23.9296 92.9286V93.1365C23.9296 93.5523 23.8256 93.8641 23.6176 94.1759L23.0978 94.9035C22.9938 95.0074 22.9938 95.2153 23.0978 95.3193L23.8256 95.9429C23.9296 96.0468 23.8256 96.1508 23.7216 96.2547L23.5137 96.3587V96.4626C23.5137 96.6705 23.4097 96.7744 23.3057 96.8784C23.2017 96.9823 23.2017 97.1902 23.3057 97.2941L23.8256 97.8138C23.9296 97.9178 23.9296 98.0217 23.9296 98.1256V98.5414C23.9296 98.6453 23.8256 98.8532 23.7216 98.9572L23.3057 99.269C23.2017 99.3729 23.2017 99.4769 23.3057 99.5808L23.7216 100.1C23.8256 100.204 23.8256 100.308 23.8256 100.412V100.828C23.8256 101.14 23.7216 101.348 23.5137 101.556L22.3699 102.595C22.3699 102.595 22.3699 102.595 22.2659 102.595H22.162C22.058 102.595 21.954 102.491 21.85 102.387L21.7461 102.179L20.7063 100.412C20.6023 100.308 20.6023 100.101 20.6023 99.8926V92.7208C18.6268 92.0971 17.3791 90.2262 17.3791 88.1474C17.3791 86.0686 18.6268 84.3016 20.6023 83.574C21.1222 83.678 21.6421 83.574 22.2659 83.574ZM22.2659 87.2119C22.8898 87.2119 23.4097 86.6922 23.4097 86.0686C23.4097 85.445 22.8898 84.9253 22.2659 84.9253C21.6421 84.9253 21.1222 85.445 21.1222 86.0686C21.1222 86.6922 21.6421 87.2119 22.2659 87.2119ZM22.2659 81.4952C21.4341 81.4952 20.7063 81.5992 19.9785 81.911C17.1711 82.8465 15.4036 85.5489 15.4036 88.4592V88.5632C15.4036 90.9538 16.7552 93.1365 18.7308 94.2799V100.1C18.7308 100.62 18.8348 101.14 19.1467 101.66L20.1864 103.427L20.2904 103.634C20.7063 104.362 21.5381 104.882 22.3699 104.882C22.7858 104.882 23.2017 104.778 23.5137 104.57C23.5137 104.57 23.6176 104.57 23.6176 104.466C23.7216 104.362 23.8256 104.258 23.9296 104.258L25.0733 103.219C25.6971 102.595 26.0091 101.764 26.0091 101.036V100.62C26.0091 100.308 25.9051 99.8926 25.8011 99.5808C25.9051 99.269 26.0091 98.9572 26.0091 98.5414V98.1256C26.0091 97.7099 25.9051 97.3981 25.8011 96.9823C26.113 96.2547 26.113 95.4232 25.6971 94.6956C25.8011 94.5917 25.8011 94.4877 25.9051 94.2799C28.7124 92.6168 30.0641 89.1868 28.9204 85.9647C27.7767 83.3662 25.1773 81.4952 22.2659 81.4952Z" fill="#2D313A"/>
<path d="M167.049 86.4824C167.049 91.5754 165.073 96.1488 161.746 99.5788C161.434 99.8906 161.226 100.202 160.914 100.41C157.483 103.529 153.012 105.503 148.021 105.503C143.966 105.503 140.223 104.256 137.208 102.073C136.272 101.45 135.44 100.722 134.713 99.9946C131.177 96.5646 128.994 91.7833 128.994 86.3784C128.994 75.8805 137.52 67.3574 148.021 67.3574C158.419 67.4614 167.049 75.9844 167.049 86.4824Z" fill="#E9F0F8"/>
<path d="M167.049 86.4824C167.049 91.9912 164.658 96.9803 160.914 100.41C157.483 103.529 153.012 105.503 148.021 105.503C143.966 105.503 140.223 104.256 137.208 102.073C132.217 98.6434 128.994 92.9267 128.994 86.3784C128.994 75.8805 137.52 67.3574 148.021 67.3574C158.523 67.3574 167.049 75.9844 167.049 86.4824Z" fill="#474E61"/>
<path d="M161.746 99.5788C161.434 99.8907 161.226 100.202 160.914 100.41C157.483 103.529 153.012 105.503 148.022 105.503C143.966 105.503 140.223 104.256 137.208 102.073C136.272 101.45 135.44 100.722 134.713 99.9946C135.129 99.4749 135.856 99.0591 137.312 98.4355L137.936 98.2276C139.08 97.8119 140.639 97.1882 142.719 96.3567C143.031 96.2528 143.343 96.0449 143.447 95.7331C143.551 95.6291 143.655 95.4212 143.655 95.3173C143.759 95.1094 143.862 94.7976 143.862 94.4858V90.64C143.759 90.5361 143.759 90.5361 143.655 90.4321C143.343 89.9124 143.135 89.3927 143.031 88.7691L142.719 88.5612C141.783 88.7691 141.783 87.7297 141.575 85.7548C141.471 84.9233 141.575 84.7154 141.991 84.6115L142.303 84.1957C141.575 82.5327 141.263 81.1815 141.263 79.9342C141.263 78.0633 142.095 76.816 143.239 76.1923C142.615 74.8411 142.615 74.3214 142.615 74.3214C142.615 74.3214 146.67 74.9451 148.022 74.7372C149.789 74.4254 152.492 74.8411 153.428 77.1278C155.092 77.7514 155.716 78.7908 155.924 79.9342C156.132 81.7012 155.092 83.78 154.988 84.5075V84.6115C155.3 84.7154 155.3 84.9233 155.196 85.6509C154.988 87.6257 154.988 88.7691 154.052 88.4573L153.22 90.0164C153.22 90.2242 153.22 90.2242 153.116 90.3282C153.116 90.64 153.116 91.1597 153.116 94.3818C153.116 94.7976 153.22 95.1094 153.428 95.4212C153.532 95.5252 153.532 95.6291 153.636 95.6291C153.844 95.837 154.052 96.0449 154.364 96.1488C156.651 97.0843 158.315 97.7079 159.459 98.2276C160.499 98.9552 161.226 99.267 161.746 99.5788Z" fill="#7A83A0"/>
<path d="M161.746 99.5788C161.434 99.8906 161.226 100.202 160.914 100.41C157.483 103.529 153.012 105.503 148.022 105.503C143.966 105.503 140.223 104.256 137.208 102.073C136.272 101.45 135.44 100.722 134.713 99.9946C135.129 99.4749 135.856 99.0591 137.312 98.4355L137.936 98.2276C139.08 97.8118 140.639 97.1882 142.719 96.3567C143.031 96.2527 143.343 96.0449 143.447 95.733C144.59 97.2921 146.462 98.3315 148.541 98.3315C150.621 98.3315 152.388 97.2921 153.532 95.837C153.74 96.0449 153.948 96.2527 154.26 96.3567C156.547 97.2921 158.211 97.9158 159.355 98.4355C160.499 98.9552 161.226 99.267 161.746 99.5788Z" fill="url(#paint4_linear)"/>
<path d="M154.78 84.6116C154.884 84.0919 154.676 83.5722 154.468 83.0525C154.468 82.9486 154.364 82.9486 154.364 82.8446C153.636 81.2855 151.869 80.6619 150.309 80.5579C146.15 80.3501 145.734 81.1816 144.486 79.9343C144.902 80.5579 144.902 81.4934 144.278 82.7407C143.863 83.5722 143.031 83.988 142.303 84.1958C140.431 79.9343 141.367 77.2319 143.239 76.1925C142.615 74.8412 142.615 74.3215 142.615 74.3215C142.615 74.3215 146.67 74.9452 148.022 74.7373C149.789 74.4255 152.492 74.8412 153.428 77.1279C155.092 77.7516 155.716 78.791 155.924 79.9343C156.028 81.8052 154.988 83.7801 154.78 84.6116Z" fill="#1E1F28"/>
<path d="M143.862 94.5897V90.7439C143.759 90.6399 143.759 90.6399 143.655 90.536V90.3281C143.862 90.6399 144.174 90.9518 144.486 91.2636L147.502 93.3424C148.229 93.966 149.269 93.966 149.997 93.3424L152.804 90.8478C152.908 90.7439 153.012 90.6399 153.116 90.536C153.116 90.8478 153.116 91.3675 153.116 94.5897C153.116 94.7975 153.116 95.0054 153.22 95.1094H143.862C143.759 94.9015 143.862 94.7975 143.862 94.5897Z" fill="url(#paint5_linear)"/>
<path d="M167.049 86.4824C167.049 91.9912 164.658 96.9803 160.914 100.41C157.483 103.529 153.012 105.503 148.021 105.503C143.966 105.503 140.223 104.256 137.208 102.073C132.217 98.6434 128.994 92.9267 128.994 86.3784C128.994 75.8805 137.52 67.3574 148.021 67.3574C158.523 67.3574 167.049 75.9844 167.049 86.4824Z" stroke="#6C717B" stroke-width="1.9345" stroke-miterlimit="10" stroke-linecap="round" stroke-linejoin="round"/>
<path d="M162.945 106.961C162.425 106.961 162.009 106.649 161.697 106.233L160.45 103.947C160.242 103.635 160.138 103.219 160.138 102.907V95.5275C157.954 94.4881 156.499 92.2014 156.395 89.7068C156.395 89.7068 156.395 89.7068 156.395 89.6029C156.395 86.9005 158.162 84.4059 160.762 83.4704C161.489 83.2626 162.217 83.0547 162.945 83.0547C165.648 83.0547 168.144 84.8217 169.08 87.4202C170.223 90.5384 168.664 93.9684 165.752 95.4235C165.648 95.8393 165.44 96.359 165.232 96.6708L165.025 96.8787L165.336 97.1905C165.44 97.2945 165.544 97.3984 165.544 97.5023C165.856 98.022 165.752 98.6457 165.336 99.0614C165.336 99.1654 165.232 99.2693 165.232 99.3733L165.336 99.4772C165.544 99.789 165.752 100.205 165.752 100.517V101.036C165.752 101.452 165.544 101.868 165.336 102.18L165.44 102.284C165.648 102.595 165.856 102.907 165.856 103.323V103.739C165.856 104.362 165.648 104.882 165.232 105.298L163.985 106.441C163.985 106.441 163.777 106.545 163.777 106.649C163.361 106.961 163.153 106.961 162.945 106.961ZM162.945 86.9005C162.841 86.9005 162.841 86.9005 162.737 87.0044C162.737 87.0044 162.633 87.1084 162.633 87.2123C162.633 87.3162 162.737 87.4202 162.841 87.4202C162.945 87.4202 162.945 87.4202 163.049 87.3162C163.153 87.2123 163.153 87.2123 163.153 87.1083C163.153 87.0044 163.049 86.9005 162.945 86.9005Z" fill="url(#paint6_linear)"/>
<path d="M162.945 84.3017C165.233 84.3017 167.312 85.6529 168.04 87.9396C169.08 90.746 167.52 93.8642 164.713 94.9036V95.1115C164.713 95.5272 164.609 95.943 164.297 96.2548L163.673 97.0863C163.569 97.1903 163.569 97.3981 163.673 97.5021L164.505 98.2297C164.609 98.3336 164.505 98.4375 164.401 98.5415L164.193 98.6454V98.7494C164.193 98.9572 164.089 99.1651 163.881 99.2691C163.777 99.373 163.777 99.5809 163.881 99.6848L164.401 100.308C164.505 100.412 164.505 100.516 164.505 100.724V101.244C164.505 101.452 164.401 101.556 164.297 101.66L163.881 102.075C163.777 102.179 163.777 102.387 163.881 102.491L164.401 103.115C164.505 103.219 164.505 103.323 164.505 103.531V103.946C164.505 104.258 164.401 104.57 164.193 104.778L162.945 105.921C162.945 105.921 162.945 105.921 162.841 105.921C162.737 105.921 162.737 105.921 162.633 105.921C162.529 105.921 162.425 105.817 162.321 105.713L162.217 105.402L161.074 103.427C160.97 103.219 160.97 103.115 160.97 102.907V94.7996C158.786 94.0721 157.331 91.9933 157.331 89.7066C157.331 87.4199 158.786 85.3411 160.97 84.6135C161.698 84.4056 162.321 84.3017 162.945 84.3017ZM162.945 88.4593C163.673 88.4593 164.193 87.8357 164.193 87.212C164.193 86.4844 163.569 85.9647 162.945 85.9647C162.217 85.9647 161.698 86.5884 161.698 87.212C161.698 87.8357 162.217 88.4593 162.945 88.4593ZM162.945 82.2229C162.113 82.2229 161.282 82.3268 160.45 82.6387C157.435 83.6781 155.459 86.5884 155.459 89.7066V89.8105C155.459 92.513 156.915 94.9036 159.202 96.1509V102.907C159.202 103.427 159.306 104.05 159.618 104.466L160.762 106.441L160.866 106.753C161.282 107.48 162.113 108 162.945 108C163.361 108 163.777 107.896 164.193 107.688H164.297C164.401 107.584 164.505 107.48 164.609 107.376L165.857 106.129C166.48 105.505 166.896 104.674 166.896 103.842V103.427C166.896 103.011 166.792 102.595 166.688 102.283C166.896 101.972 166.896 101.556 166.896 101.14V100.62C166.896 100.205 166.792 99.7888 166.584 99.373C167 98.6454 167 97.71 166.48 96.9824L166.376 96.8784C166.48 96.6706 166.584 96.4627 166.688 96.2548C169.808 94.4878 171.367 90.642 170.12 87.212C168.976 84.1978 166.168 82.2229 162.945 82.2229Z" fill="#474E61"/>
<path d="M111.214 97.6041C111.214 99.9947 110.174 102.177 108.511 103.737C107.055 105.088 105.08 105.919 102.896 105.919C102.896 105.919 102.48 105.919 92.7065 105.919H91.4588C91.0429 105.919 90.627 105.919 90.2111 105.919C89.5872 105.919 88.8594 105.919 88.2355 105.919H75.2386C69.6239 106.127 65.3609 101.658 65.3609 96.3568C65.3609 90.9519 69.7279 86.5864 75.3426 86.7943H75.4465C75.9664 85.3392 76.5903 83.9879 77.3181 82.8446C77.4221 82.7407 77.526 82.6367 77.526 82.5328L77.63 82.4289C79.1896 80.2461 81.2692 78.7909 83.5566 77.8555C83.6606 77.7515 83.8685 77.7515 84.0765 77.6476C84.1805 77.6476 84.1805 77.6476 84.2844 77.5437C84.2844 77.5437 84.2844 77.5437 84.3884 77.5437H84.4924C87.8196 76.4003 91.4588 76.5043 94.786 77.7515C94.8899 77.7515 94.89 77.7515 94.9939 77.8555C95.0979 77.8555 95.2019 77.9594 95.3059 77.9594C99.7768 79.7264 103.416 83.7801 104.144 89.7047C108.095 89.9125 111.214 93.3426 111.214 97.6041Z" fill="url(#paint7_linear)"/>
<path d="M102.896 105.919C107.49 105.919 111.214 102.196 111.214 97.6038C111.214 93.0114 107.49 89.2886 102.896 89.2886C98.3022 89.2886 94.5781 93.0114 94.5781 97.6038C94.5781 102.196 98.3022 105.919 102.896 105.919Z" fill="url(#paint8_linear)"/>
<path d="M89.2752 105.919C97.4294 105.919 104.04 99.3111 104.04 91.1596C104.04 83.0082 97.4294 76.4001 89.2752 76.4001C81.121 76.4001 74.5107 83.0082 74.5107 91.1596C74.5107 99.3111 81.121 105.919 89.2752 105.919Z" fill="url(#paint9_linear)"/>
<path d="M108.566 103.704C107.11 105.056 105.134 105.887 102.951 105.887C102.951 105.887 102.535 105.887 92.7613 105.887L92.6574 105.783L92.4494 105.575L89.2262 101.21L88.2904 96.8443L89.2262 90.9197L85.0671 89.0488L91.0977 88.9448L93.2812 84.9951L102.743 97.1561L108.566 103.704Z" fill="url(#paint10_linear)"/>
<path d="M88.4985 85.4449C88.4985 84.8213 89.0184 84.4055 89.5383 84.4055C90.1621 84.4055 90.5781 84.9252 90.5781 85.4449C90.5781 86.0686 90.0582 86.4843 89.5383 86.4843C88.9144 86.4843 88.4985 85.9646 88.4985 85.4449ZM84.9634 87.6277C84.9634 89.6025 86.2111 91.3695 88.0826 91.9932V98.8532C88.0826 99.0611 88.0826 99.165 88.1866 99.3729L89.1224 101.036L89.2264 101.244C89.3303 101.348 89.5383 101.452 89.6423 101.348C89.6423 101.348 89.6423 101.348 89.7462 101.348L90.786 100.308C90.994 100.1 91.0979 99.8926 91.0979 99.5808V99.165C91.0979 99.0611 91.0979 98.9571 90.994 98.8532L90.5781 98.3335C90.4741 98.2296 90.4741 98.1256 90.5781 98.0217L90.994 97.6059C91.0979 97.502 91.0979 97.398 91.0979 97.2941V96.8783C91.0979 96.7744 91.0979 96.6705 90.994 96.5665L90.5781 96.0468C90.4741 95.9429 90.4741 95.735 90.5781 95.735C90.682 95.6311 90.786 95.5271 90.786 95.3192V95.2153L90.994 95.1114C91.0979 95.0074 91.0979 94.9035 91.0979 94.9035L90.3701 94.2798C90.2661 94.1759 90.2661 94.072 90.3701 93.968L90.89 93.2404C91.0979 92.9286 91.2019 92.6168 91.2019 92.305V92.0971C93.5933 91.2656 94.8411 88.6671 94.0092 86.1725C93.1774 83.7819 90.5781 82.5346 88.0826 83.3661C86.1071 83.8858 84.9634 85.6528 84.9634 87.6277Z" fill="url(#paint11_linear)"/>
<path d="M88.5474 41.3722C99.9748 41.3722 109.239 32.1116 109.239 20.6881C109.239 9.2646 99.9748 0.00402832 88.5474 0.00402832C77.1201 0.00402832 67.8563 9.2646 67.8563 20.6881C67.8563 32.1116 77.1201 41.3722 88.5474 41.3722Z" fill="#373D4C"/>
<path d="M107.367 20.689C107.367 28.4845 102.688 35.1367 95.9297 38.047C93.6422 38.9824 91.1468 39.6061 88.5474 39.6061C85.948 39.6061 83.4526 39.0864 81.1652 38.047C74.4068 35.1367 69.7279 28.4845 69.7279 20.689C69.6239 12.8935 74.4068 6.24133 81.0612 3.43495C83.3487 2.49949 85.8441 1.87585 88.4435 1.87585C91.0428 1.87585 93.5383 2.39555 95.8257 3.43495C102.584 6.24133 107.367 12.8935 107.367 20.689Z" fill="#474E61"/>
<path d="M94.5781 40.6451C94.3702 40.6451 94.1622 40.5412 93.9543 40.4373C93.5384 40.1254 93.4344 39.5018 93.7463 38.9821C94.1622 38.3585 94.6821 37.8388 95.202 37.3191C98.8411 33.6812 101.025 27.4447 101.025 20.6886C101.025 13.9325 98.8411 7.80008 95.202 4.05824C94.7861 3.64248 94.3702 3.22672 93.9543 2.70702C93.6423 2.29126 93.6423 1.56368 94.1622 1.25186C94.5781 0.940043 95.202 1.04398 95.6179 1.45974C95.9298 1.8755 96.2417 2.29126 96.6576 2.60308C100.609 6.65674 103 13.4128 103 20.6886C103 27.9644 100.609 34.7205 96.6576 38.7742C96.2417 39.19 95.8258 39.7097 95.4099 40.2294C95.202 40.4373 94.89 40.6451 94.5781 40.6451Z" fill="#373D4C"/>
<path d="M81.9971 40.0215C81.6852 40.0215 81.3732 39.9175 81.1653 39.6057C80.8534 39.2939 80.6454 38.9821 80.3335 38.6703C76.3824 34.6166 73.991 27.8605 73.991 20.5847C73.991 13.3089 76.3824 6.5528 80.3335 2.49914C80.6454 2.18732 80.8534 1.8755 81.1653 1.56368C81.4772 1.14792 82.205 1.04398 82.6209 1.45974C83.0368 1.77156 83.1408 2.49914 82.7249 2.9149C82.413 3.22672 82.1011 3.64248 81.7891 3.9543C78.15 7.5922 75.9665 13.8286 75.9665 20.5847C75.9665 27.3408 78.15 33.4733 81.7891 37.2151C82.1011 37.5269 82.413 37.9427 82.7249 38.2545C83.0368 38.6703 83.0368 39.2939 82.6209 39.7097C82.517 40.0215 82.205 40.0215 81.9971 40.0215Z" fill="#373D4C"/>
<path d="M88.5475 41.2684C88.0276 41.2684 87.5078 40.8526 87.5078 40.229V1.14755C87.5078 0.627854 87.9237 0.108154 88.5475 0.108154C89.1714 0.108154 89.5873 0.523914 89.5873 1.14755V40.229C89.5873 40.8526 89.0674 41.2684 88.5475 41.2684Z" fill="#373D4C"/>
<path d="M105.912 14.5566H71.0799C70.56 14.5566 70.0402 14.1407 70.0402 13.5168C70.0402 12.893 70.4561 12.4771 71.0799 12.4771H105.912C106.432 12.4771 106.951 12.893 106.951 13.5168C106.951 14.1407 106.536 14.5566 105.912 14.5566Z" fill="#373D4C"/>
<path d="M105.912 28.9003H71.0799C70.56 28.9003 70.0402 28.4844 70.0402 27.8606C70.0402 27.3407 70.4561 26.8208 71.0799 26.8208H105.912C106.432 26.8208 106.951 27.2367 106.951 27.8606C106.951 28.4844 106.536 28.9003 105.912 28.9003Z" fill="#373D4C"/>
<path d="M75.5504 25.0537C73.9908 25.0537 72.7431 23.8064 72.7431 22.2473C72.7431 20.6882 73.9908 19.4409 75.5504 19.4409C77.1101 19.4409 78.3578 20.6882 78.3578 22.2473C78.3578 23.8064 77.1101 25.0537 75.5504 25.0537Z" fill="#56E090"/>
<path d="M93.3305 11.4375C91.7708 11.4375 90.5231 10.1902 90.5231 8.63109C90.5231 7.07199 91.7708 5.82471 93.3305 5.82471C94.8901 5.82471 96.1378 7.07199 96.1378 8.63109C96.1378 10.1902 94.8901 11.4375 93.3305 11.4375Z" fill="#56E090"/>
<path d="M96.6574 33.3691C95.0977 33.3691 93.85 32.1218 93.85 30.5627C93.85 29.0036 95.0977 27.7563 96.6574 27.7563C98.217 27.7563 99.4647 29.0036 99.4647 30.5627C99.4647 32.1218 98.217 33.3691 96.6574 33.3691Z" fill="#56E090"/>
<path d="M93.2265 40.0212C93.1225 40.0212 93.0185 40.0212 92.9145 39.9172C92.7066 39.8133 92.6026 39.5015 92.8106 39.1896C93.0185 38.9818 93.1225 38.6699 93.3304 38.4621C93.4344 38.2542 93.7463 38.1502 93.9543 38.3581C94.1622 38.4621 94.2662 38.7739 94.0583 38.9818C93.8503 39.2936 93.7463 39.5015 93.5384 39.7093C93.4344 39.9172 93.3304 40.0212 93.2265 40.0212ZM94.6821 37.3187C94.5781 37.3187 94.5781 37.3187 94.4742 37.3187C94.2662 37.2148 94.1622 36.903 94.2662 36.6951C94.3702 36.4872 94.4742 36.1754 94.5781 35.8636C94.6821 35.6557 94.994 35.4478 95.202 35.6557C95.4099 35.7596 95.6179 36.0714 95.4099 36.2793C95.306 36.5911 95.202 36.799 94.994 37.1108C95.098 37.2148 94.8901 37.3187 94.6821 37.3187ZM95.8258 34.4084H95.7219C95.5139 34.3045 95.306 34.0966 95.4099 33.7848C95.5139 33.4729 95.6179 33.2651 95.6179 32.9532C95.7219 32.7454 95.9298 32.5375 96.2417 32.6414C96.4497 32.7454 96.6576 32.9532 96.5537 33.2651C96.4497 33.5769 96.3457 33.8887 96.3457 34.0966C96.2417 34.3045 96.0338 34.4084 95.8258 34.4084Z" fill="#56E090"/>
<path d="M97.0733 27.5483C96.7614 27.5483 96.5534 27.3405 96.5534 27.0286C96.5534 26.7168 96.5534 26.405 96.5534 26.1971C96.5534 25.8853 96.7614 25.6774 97.0733 25.7814C97.3852 25.7814 97.5932 25.9892 97.4892 26.3011C97.4892 26.6129 97.4892 26.9247 97.4892 27.2365C97.5932 27.3405 97.3852 27.5483 97.0733 27.5483ZM97.1773 24.4301C96.8653 24.4301 96.6574 24.2223 96.6574 23.9104C96.6574 23.5986 96.6574 23.2868 96.6574 23.0789C96.6574 22.7671 96.8653 22.5592 97.0733 22.5592C97.3852 22.5592 97.5932 22.7671 97.5932 22.975C97.5932 23.2868 97.5932 23.5986 97.5932 23.9104C97.6971 24.2223 97.4892 24.4301 97.1773 24.4301ZM96.9693 21.3119C96.7614 21.3119 96.5534 21.1041 96.4494 20.8962C96.4494 20.5844 96.3455 20.2725 96.3455 20.0647C96.3455 19.7528 96.4494 19.545 96.7614 19.545C97.0733 19.545 97.2812 19.6489 97.2812 19.9607C97.2812 20.2725 97.3852 20.5844 97.3852 20.8962C97.4892 21.1041 97.2812 21.3119 96.9693 21.3119C96.9693 21.3119 97.0733 21.3119 96.9693 21.3119ZM96.5534 18.2977C96.3455 18.2977 96.1375 18.0898 96.0335 17.8819C95.9296 17.5701 95.9296 17.2583 95.8256 17.0504C95.7216 16.7386 95.9296 16.5307 96.2415 16.4268C96.5534 16.3228 96.7614 16.5307 96.8653 16.8425C96.9693 17.1543 96.9693 17.4662 97.0733 17.674C97.0733 17.9859 96.8653 18.1937 96.5534 18.2977ZM95.8256 15.2834C95.6176 15.2834 95.4097 15.1795 95.3057 14.9716C95.2017 14.6598 95.0978 14.4519 95.0978 14.1401C94.9938 13.9322 95.2017 13.6204 95.4097 13.5164C95.6176 13.4125 95.9296 13.6204 96.0335 13.8283C96.1375 14.1401 96.2415 14.348 96.2415 14.6598C96.3455 14.8677 96.1375 15.1795 95.9296 15.2834H95.8256ZM94.8898 12.3731C94.6819 12.3731 94.4739 12.2692 94.4739 12.0613C94.3699 11.7495 94.266 11.5416 94.162 11.2298C94.058 11.0219 94.162 10.7101 94.4739 10.6061C94.6819 10.5022 94.9938 10.6061 95.0978 10.9179C95.2017 11.2298 95.3057 11.4376 95.4097 11.7495C95.5137 11.9573 95.4097 12.2692 95.0978 12.3731C94.9938 12.2692 94.8898 12.3731 94.8898 12.3731Z" fill="#56E090"/>
<path d="M91.4588 5.92879C91.3549 5.92879 91.1469 5.82485 91.0429 5.72091C90.835 5.51303 90.731 5.20121 90.523 4.99333C90.4191 4.88939 90.4191 4.57757 90.731 4.36969C90.939 4.16181 91.2509 4.26575 91.4588 4.47363C91.6668 4.68151 91.7708 4.99333 91.9787 5.20121C92.0827 5.40909 92.0827 5.72091 91.8747 5.92879C91.6668 5.92879 91.5628 5.92879 91.4588 5.92879ZM89.5873 3.53817C89.4833 3.53817 89.3793 3.53817 89.2753 3.43423C89.0674 3.22635 88.8594 3.01847 88.6515 2.81059C88.3396 2.60271 88.3396 2.29089 88.5475 2.08301C88.7555 1.87513 89.0674 1.87513 89.2753 2.08301C89.4833 2.29089 89.6912 2.49877 89.8992 2.70665C90.1071 2.91453 90.1071 3.22635 89.8992 3.43423C89.7952 3.53817 89.6912 3.53817 89.5873 3.53817ZM87.1958 1.45937C87.0919 1.45937 86.9879 1.45937 86.8839 1.35543C86.676 1.25149 86.468 1.04361 86.2601 0.939672C86.0521 0.835732 85.9481 0.523912 86.1561 0.316032C86.2601 0.00421148 86.572 -0.0997285 86.7799 0.108151C86.9879 0.316032 87.2998 0.419972 87.5078 0.627852C87.7157 0.835732 87.8197 1.04361 87.6117 1.35543C87.5078 1.45937 87.4038 1.45937 87.1958 1.45937Z" fill="#56E090"/>
<path d="M73.6789 20.6882C73.5749 20.6882 73.471 20.6882 73.367 20.5843C73.159 20.3764 72.9511 20.1685 72.7431 19.9607C72.5352 19.7528 72.5352 19.441 72.7431 19.2331C72.9511 19.0252 73.263 19.0252 73.471 19.2331C73.6789 19.441 73.8869 19.6488 74.0948 19.8567C74.3028 20.0646 74.3028 20.3764 74.0948 20.5843C73.8869 20.6882 73.7829 20.6882 73.6789 20.6882ZM71.7034 18.4016C71.5994 18.4016 71.3915 18.2976 71.2875 18.1937C71.0795 17.9858 70.9755 17.674 70.7676 17.4661C70.6636 17.2582 70.6636 16.9464 70.8716 16.7385C71.0795 16.6346 71.3915 16.6346 71.5994 16.8425C71.8074 17.0503 71.9113 17.3622 72.1193 17.57C72.3272 17.7779 72.2233 18.0897 72.0153 18.2976C71.9113 18.2976 71.8074 18.4016 71.7034 18.4016ZM70.0398 15.6991C69.8318 15.6991 69.7278 15.5952 69.6239 15.3873C69.5199 15.0755 69.3119 14.8676 69.208 14.5558C69.104 14.3479 69.208 14.0361 69.4159 13.9321C69.6239 13.8282 69.9358 13.9321 70.0398 14.14C70.1437 14.3479 70.2477 14.6597 70.4557 14.8676C70.5597 15.0755 70.4557 15.3873 70.2477 15.4912C70.2477 15.6991 70.1437 15.6991 70.0398 15.6991Z" fill="#56E090"/>
<path d="M94.0583 30.6665C94.0583 30.6665 93.9543 30.6665 94.0583 30.6665C93.7463 30.6665 93.4344 30.5625 93.1225 30.5625C92.8105 30.5625 92.7066 30.2507 92.7066 30.0428C92.7066 29.731 93.0185 29.6271 93.2264 29.6271C93.5384 29.6271 93.8503 29.731 94.0583 29.731C94.3702 29.731 94.4742 30.0428 94.4742 30.2507C94.4742 30.4586 94.2662 30.6665 94.0583 30.6665ZM90.939 30.1468H90.835C90.5231 30.0428 90.2112 30.0428 90.0032 29.9389C89.6913 29.835 89.5873 29.6271 89.6913 29.3153C89.7953 29.0034 90.0032 28.8995 90.3151 29.0034C90.6271 29.1074 90.835 29.1074 91.1469 29.2113C91.4589 29.3153 91.5628 29.5231 91.5628 29.835C91.3549 29.9389 91.1469 30.1468 90.939 30.1468ZM88.0277 29.3153H87.9237C87.6118 29.2113 87.4038 29.1074 87.0919 29.0034C86.8839 28.8995 86.676 28.5877 86.78 28.3798C86.8839 28.1719 87.1959 27.964 87.4038 28.068C87.7157 28.1719 87.9237 28.2759 88.2356 28.3798C88.4436 28.4837 88.6515 28.6916 88.5475 29.0034C88.3396 29.2113 88.2356 29.3153 88.0277 29.3153ZM85.0124 28.2759C84.9084 28.2759 84.9084 28.2759 84.8044 28.2759C84.4925 28.1719 84.2846 28.068 83.9726 27.964C83.7647 27.8601 83.6607 27.5483 83.7647 27.3404C83.8686 27.1325 84.1806 27.0286 84.3885 27.1325C84.7005 27.2365 84.9084 27.3404 85.2203 27.4443C85.4283 27.5483 85.6362 27.8601 85.5323 28.068C85.4283 28.1719 85.2203 28.2759 85.0124 28.2759ZM82.205 26.9246C82.1011 26.9246 82.1011 26.9246 81.9971 26.8207C81.6852 26.7168 81.4772 26.5089 81.1653 26.4049C80.9573 26.301 80.8534 25.9892 80.9573 25.7813C81.0613 25.5734 81.3732 25.4695 81.5812 25.5734C81.7891 25.6774 82.1011 25.8852 82.309 25.9892C82.517 26.0931 82.6209 26.4049 82.517 26.6128C82.6209 26.9246 82.413 26.9246 82.205 26.9246ZM79.5017 25.4695C79.3977 25.4695 79.2937 25.4695 79.2937 25.3655C79.0858 25.1577 78.7738 25.0537 78.5659 24.8458C78.3579 24.7419 78.254 24.4301 78.4619 24.1183C78.5659 23.9104 78.8778 23.8064 79.1897 24.0143C79.3977 24.2222 79.7096 24.3261 79.9176 24.534C80.1255 24.638 80.2295 24.9498 80.0216 25.1577C79.8136 25.3655 79.7096 25.4695 79.5017 25.4695Z" fill="#56E090"/>
<path d="M100.401 30.7703C100.193 30.7703 99.9848 30.5624 99.8808 30.3546C99.8808 30.0427 100.089 29.8349 100.297 29.8349C100.609 29.8349 100.921 29.7309 101.129 29.7309C101.44 29.7309 101.648 29.8349 101.648 30.1467C101.648 30.4585 101.544 30.6664 101.232 30.6664C101.129 30.6664 100.817 30.7703 100.401 30.7703C100.505 30.7703 100.505 30.7703 100.401 30.7703ZM103.52 30.2506C103.312 30.2506 103.104 30.1467 103 29.8349C102.896 29.523 103.104 29.3152 103.312 29.2112C103.624 29.1073 103.832 29.1073 104.144 29.0033C104.352 28.8994 104.664 29.1073 104.768 29.3152C104.872 29.523 104.664 29.8349 104.456 29.9388C104.144 30.0427 103.832 30.1467 103.624 30.1467C103.624 30.2506 103.52 30.2506 103.52 30.2506ZM106.431 29.2112C106.223 29.2112 106.119 29.1073 106.015 28.8994C105.911 28.6915 106.015 28.3797 106.223 28.2758C106.535 28.1718 106.743 28.0679 106.951 27.86C107.159 27.756 107.471 27.86 107.575 28.0679C107.679 28.2758 107.575 28.5876 107.367 28.6915C107.055 28.7955 106.847 29.0033 106.535 29.1073C106.535 29.2112 106.535 29.2112 106.431 29.2112Z" fill="#56E090"/>
<path d="M95.8255 8.63184C95.6176 8.63184 95.4096 8.52787 95.3057 8.21594C95.2017 7.90401 95.4096 7.69606 95.6176 7.59209C95.9295 7.48811 96.2415 7.48811 96.4494 7.38414C96.7613 7.28016 96.9693 7.48811 97.0733 7.80004C97.1772 8.11196 96.9693 8.31992 96.6574 8.42389C96.3454 8.52787 96.1375 8.52787 95.8255 8.63184C95.9295 8.63184 95.9295 8.63184 95.8255 8.63184ZM98.9448 8.11196C98.7369 8.11196 98.5289 7.90401 98.4249 7.69606C98.4249 7.38414 98.6329 7.17618 98.8408 7.17618C99.1528 7.17618 99.4647 7.07221 99.7766 7.07221C100.089 7.07221 100.297 7.28016 100.297 7.48811C100.297 7.80004 100.089 8.00799 99.8806 8.00799C99.5687 8.00799 99.2567 8.00799 98.9448 8.11196ZM102.896 8.00799C102.584 8.00799 102.272 8.00799 101.96 7.90401C101.648 7.90401 101.44 7.69606 101.44 7.38414C101.44 7.07221 101.648 6.86426 101.96 6.86426C102.272 6.86426 102.584 6.86426 102.896 6.96823C103.208 6.96823 103.312 7.17618 103.312 7.48811C103.416 7.80004 103.208 8.00799 102.896 8.00799Z" fill="#56E090"/>
<path d="M77.1101 20.5842C77.0061 20.5842 76.9022 20.5842 76.7982 20.4803C76.5902 20.2724 76.5902 19.9606 76.6942 19.7527C76.9022 19.5448 77.1101 19.337 77.3181 19.0251C77.526 18.8173 77.8379 18.8173 78.0459 18.9212C78.2538 19.1291 78.2538 19.4409 78.1499 19.6488C77.9419 19.8567 77.734 20.0645 77.63 20.2724C77.422 20.4803 77.2141 20.5842 77.1101 20.5842ZM79.1896 18.1936C79.0856 18.1936 78.9817 18.1936 78.8777 18.0897C78.6697 17.8818 78.6697 17.57 78.8777 17.3621C79.0856 17.1542 79.2936 16.9463 79.5015 16.7385C79.7095 16.5306 80.0214 16.5306 80.2294 16.7385C80.4373 16.9463 80.4373 17.2582 80.2294 17.466C80.0214 17.6739 79.8135 17.8818 79.6055 18.0897C79.3976 18.1936 79.2936 18.1936 79.1896 18.1936ZM81.4771 16.1148C81.3731 16.1148 81.1652 16.0109 81.0612 15.9069C80.8532 15.6991 80.9572 15.3872 81.1652 15.1794C81.3731 14.9715 81.5811 14.7636 81.893 14.5557C82.1009 14.3478 82.4129 14.4518 82.6208 14.6597C82.8288 14.8675 82.7248 15.1794 82.5168 15.3872C82.3089 15.5951 82.1009 15.803 81.893 15.9069C81.685 16.1148 81.5811 16.1148 81.4771 16.1148ZM83.8685 14.2439C83.7645 14.2439 83.5566 14.14 83.4526 14.036C83.2447 13.8281 83.3486 13.5163 83.5566 13.3084C83.7645 13.2045 83.9725 12.9966 84.1804 12.8927L84.2844 12.7887C84.4924 12.6848 84.8043 12.6848 85.0123 12.8927C85.1162 13.1006 85.1162 13.4124 84.9083 13.6203L84.8043 13.7242C84.5963 13.8281 84.3884 14.036 84.1804 14.14C84.0765 14.14 83.9725 14.2439 83.8685 14.2439ZM86.4679 12.4769C86.26 12.4769 86.156 12.373 86.052 12.269C85.948 12.0612 85.948 11.7493 86.26 11.6454C86.4679 11.5415 86.7798 11.3336 86.9878 11.2296C87.1957 11.1257 87.5077 11.2296 87.6116 11.4375C87.7156 11.6454 87.6116 11.9572 87.4037 12.0612C87.1957 12.1651 86.8838 12.373 86.6759 12.4769C86.6759 12.4769 86.5719 12.4769 86.4679 12.4769ZM89.1713 11.0218C88.9633 11.0218 88.8593 10.9178 88.7554 10.7099C88.6514 10.5021 88.7554 10.1902 88.9633 10.0863C89.2752 9.98236 89.4832 9.77448 89.7951 9.67054C90.0031 9.5666 90.315 9.67054 90.419 9.87842C90.523 10.0863 90.419 10.3981 90.211 10.5021C89.8991 10.606 89.6912 10.7099 89.3792 10.9178C89.3792 11.0218 89.2753 11.0218 89.1713 11.0218Z" fill="#56E090"/>
<path d="M71.9112 32.9533C71.5992 32.9533 71.3913 32.7454 71.3913 32.4336C71.3913 32.1218 71.3913 31.8099 71.3913 31.4981C71.3913 31.1863 71.5992 30.9784 71.9112 31.0824C72.2231 31.0824 72.4311 31.2902 72.3271 31.6021C72.3271 31.9139 72.3271 32.2257 72.3271 32.4336C72.4311 32.7454 72.2231 32.9533 71.9112 32.9533ZM72.3271 29.8351H72.2231C71.9112 29.7311 71.8072 29.5233 71.8072 29.2114C71.9112 28.8996 71.9112 28.5878 72.0152 28.3799C72.1191 28.172 72.3271 27.9642 72.639 28.0681C72.847 28.172 73.0549 28.3799 72.9509 28.6917C72.847 29.0036 72.847 29.2114 72.743 29.5233C72.743 29.7311 72.535 29.8351 72.3271 29.8351ZM73.2629 26.9248C73.1589 26.9248 73.1589 26.9248 73.0549 26.9248C72.847 26.8208 72.639 26.509 72.743 26.3011C72.847 25.9893 72.9509 25.7814 73.0549 25.4696C73.1589 25.2617 73.4708 25.1578 73.6788 25.2617C73.8867 25.3657 73.9907 25.6775 73.8867 25.8854C73.7827 26.1972 73.6788 26.4051 73.5748 26.7169C73.5748 26.8208 73.4708 26.9248 73.2629 26.9248Z" fill="#56E090"/>
<path d="M113.709 19.9613C114.226 19.9613 114.645 19.5423 114.645 19.0255C114.645 18.5087 114.226 18.0897 113.709 18.0897C113.193 18.0897 112.774 18.5087 112.774 19.0255C112.774 19.5423 113.193 19.9613 113.709 19.9613Z" fill="#56E090"/>
<path d="M64.4249 12.3734C64.7694 12.3734 65.0487 12.0941 65.0487 11.7496C65.0487 11.405 64.7694 11.1257 64.4249 11.1257C64.0803 11.1257 63.801 11.405 63.801 11.7496C63.801 12.0941 64.0803 12.3734 64.4249 12.3734Z" fill="#56E090"/>
<path d="M111.526 5.92904C111.813 5.92904 112.046 5.69628 112.046 5.40916C112.046 5.12204 111.813 4.88928 111.526 4.88928C111.239 4.88928 111.006 5.12204 111.006 5.40916C111.006 5.69628 111.239 5.92904 111.526 5.92904Z" fill="#56E090"/>
<path d="M67.7523 33.4731C68.0394 33.4731 68.2722 33.2403 68.2722 32.9532C68.2722 32.6661 68.0394 32.4333 67.7523 32.4333C67.4652 32.4333 67.2324 32.6661 67.2324 32.9532C67.2324 33.2403 67.4652 33.4731 67.7523 33.4731Z" fill="#56E090"/>
<path d="M60.7859 25.2623C61.3027 25.2623 61.7217 24.8433 61.7217 24.3265C61.7217 23.8097 61.3027 23.3907 60.7859 23.3907C60.2691 23.3907 59.8501 23.8097 59.8501 24.3265C59.8501 24.8433 60.2691 25.2623 60.7859 25.2623Z" fill="#56E090"/>
<defs>
<linearGradient id="paint0_linear" x1="-nan" y1="-nan" x2="-nan" y2="-nan" gradientUnits="userSpaceOnUse">
<stop stop-color="#51DFD4"/>
<stop offset="1" stop-color="#1BE068"/>
</linearGradient>
<linearGradient id="paint1_linear" x1="94.0081" y1="61.3102" x2="151.764" y2="61.3102" gradientUnits="userSpaceOnUse">
<stop stop-color="#51DFD4"/>
<stop offset="1" stop-color="#1BE068"/>
</linearGradient>
<linearGradient id="paint2_linear" x1="82.9793" y1="61.3102" x2="25.223" y2="61.3102" gradientUnits="userSpaceOnUse">
<stop stop-color="#51DFD4"/>
<stop offset="1" stop-color="#1BE068"/>
</linearGradient>
<linearGradient id="paint3_linear" x1="16.3579" y1="93.168" x2="28.0915" y2="93.168" gradientUnits="userSpaceOnUse">
<stop offset="0.00289017" stop-color="#FFD44F"/>
<stop offset="1" stop-color="#FFA607"/>
</linearGradient>
<linearGradient id="paint4_linear" x1="134.589" y1="100.666" x2="161.748" y2="100.666" gradientUnits="userSpaceOnUse">
<stop stop-color="#51DFD4"/>
<stop offset="1" stop-color="#1BE068"/>
</linearGradient>
<linearGradient id="paint5_linear" x1="148.452" y1="95.2879" x2="148.452" y2="92.5405" gradientUnits="userSpaceOnUse">
<stop stop-color="#7A83A0"/>
<stop offset="0.9913" stop-color="#58617D"/>
</linearGradient>
<linearGradient id="paint6_linear" x1="156.449" y1="95.1129" x2="169.424" y2="95.1129" gradientUnits="userSpaceOnUse">
<stop offset="0.00289017" stop-color="#FFD44F"/>
<stop offset="1" stop-color="#FFA607"/>
</linearGradient>
<linearGradient id="paint7_linear" x1="88.2481" y1="76.3279" x2="88.2481" y2="105.929" gradientUnits="userSpaceOnUse">
<stop stop-color="#51DFD4"/>
<stop offset="1" stop-color="#1BE068"/>
</linearGradient>
<linearGradient id="paint8_linear" x1="93.7098" y1="87.5773" x2="101.094" y2="95.6352" gradientUnits="userSpaceOnUse">
<stop stop-color="#A8FFD7"/>
<stop offset="1" stop-color="#52E07F" stop-opacity="0"/>
</linearGradient>
<linearGradient id="paint9_linear" x1="78.0909" y1="82.5571" x2="83.05" y2="86.3812" gradientUnits="userSpaceOnUse">
<stop stop-color="#A8FFD7"/>
<stop offset="1" stop-color="#52E07F" stop-opacity="0"/>
</linearGradient>
<linearGradient id="paint10_linear" x1="86.8351" y1="89.2489" x2="103.875" y2="106.294" gradientUnits="userSpaceOnUse">
<stop stop-color="#21C29A"/>
<stop offset="1" stop-color="#19B33C" stop-opacity="0"/>
</linearGradient>
<linearGradient id="paint11_linear" x1="95.1712" y1="99.2509" x2="87.6663" y2="87.2878" gradientUnits="userSpaceOnUse">
<stop offset="0.0113208" stop-color="#B0FFD7"/>
<stop offset="1" stop-color="white"/>
</linearGradient>
</defs>
</svg>
