<svg width="120" height="114" viewBox="0 0 120 114" fill="none" xmlns="http://www.w3.org/2000/svg">
<path d="M59.1632 112.897C87.3231 112.897 110.151 90.0333 110.151 61.8292C110.151 33.6251 87.3231 10.7611 59.1632 10.7611C31.0033 10.7611 8.17517 33.6251 8.17517 61.8292C8.17517 90.0333 31.0033 112.897 59.1632 112.897Z" fill="#2A2E38"/>
<path d="M75.3727 9.42554C76.2792 9.42554 77.0141 8.68947 77.0141 7.78149C77.0141 6.87351 76.2792 6.13745 75.3727 6.13745C74.4661 6.13745 73.7312 6.87351 73.7312 7.78149C73.7312 8.68947 74.4661 9.42554 75.3727 9.42554Z" fill="url(#paint0_linear)"/>
<path d="M3.4264 26.6619C4.09562 26.0494 4.14236 25.0095 3.5308 24.3392C2.91923 23.669 1.88095 23.6222 1.21173 24.2347C0.542511 24.8472 0.495771 25.8871 1.10734 26.5574C1.7189 27.2276 2.75718 27.2745 3.4264 26.6619Z" fill="#32D697"/>
<path d="M103.963 29.5205C104.632 28.9079 104.679 27.868 104.067 27.1978C103.456 26.5275 102.417 26.4807 101.748 27.0932C101.079 27.7057 101.032 28.7456 101.644 29.4159C102.255 30.0862 103.294 30.133 103.963 29.5205Z" fill="#32D697"/>
<path d="M47.9806 31.2089L50.135 38.196L43.0562 44.0529L37.311 35.1135L35.8748 32.8529L35.9773 32.7502L37.7214 31.4144L47.9806 31.2089Z" fill="#383D49"/>
<path d="M47.9807 31.2089L41.2096 36.7575L37.3111 35.1135L34.8489 33.9832L34.7463 33.7777L35.8748 32.8529L35.9774 32.7502L37.7215 31.4144L40.6966 29.1538L47.9807 31.2089Z" fill="#6A7284"/>
<path d="M34.7463 33.7777L41.5174 36.6548L43.1588 44.1557L36.2852 41.2787L34.7463 33.7777Z" fill="#535A6B"/>
<path d="M8.38037 113H113.126" stroke="#2B323C" stroke-width="2" stroke-miterlimit="10" stroke-linecap="round" stroke-linejoin="round"/>
<path d="M106.766 111.87H105.74C105.432 111.87 105.124 111.664 105.022 111.356L104.098 104.985H108.407L107.484 111.356C107.381 111.664 107.073 111.87 106.766 111.87Z" fill="#383D49"/>
<path d="M24.1793 111.87H20.999C20.6912 111.87 20.3835 111.664 20.2809 111.356L19.3575 108.171H25.8208L24.8975 111.356C24.7949 111.664 24.4871 111.87 24.1793 111.87Z" fill="#383D49"/>
<path d="M63.985 111.87H60.9072C60.5994 111.87 60.2917 111.664 60.1891 111.356L59.2657 108.171H65.729L64.8057 111.356C64.7031 111.664 64.3953 111.87 63.985 111.87Z" fill="#383D49"/>
<path d="M109.843 104.574H40.4915C35.5671 104.574 31.566 100.567 31.566 95.6347C31.566 90.7025 35.5671 86.6952 40.4915 86.6952H109.843C114.768 86.6952 118.769 90.7025 118.769 95.6347C118.769 100.567 114.768 104.574 109.843 104.574Z" fill="#3B4150"/>
<path d="M109.843 85.3593H40.3889C34.7464 85.3593 30.1298 89.9831 30.1298 95.6345C30.1298 101.286 34.7464 105.91 40.3889 105.91H109.741C115.383 105.91 120 101.286 120 95.6345C120 89.9831 115.486 85.3593 109.843 85.3593ZM109.843 103.238H40.3889C36.1827 103.238 32.7971 99.8474 32.7971 95.6345C32.7971 91.4217 36.1827 88.0308 40.3889 88.0308H109.741C113.947 88.0308 117.333 91.4217 117.333 95.6345C117.435 99.8474 114.05 103.238 109.843 103.238Z" fill="#4F5869"/>
<path d="M109.536 100.875C112.482 100.875 114.87 98.4829 114.87 95.532C114.87 92.581 112.482 90.1888 109.536 90.1888C106.589 90.1888 104.201 92.581 104.201 95.532C104.201 98.4829 106.589 100.875 109.536 100.875Z" fill="#4F5869"/>
<path d="M109.536 98.4092C111.122 98.4092 112.408 97.1211 112.408 95.5321C112.408 93.9431 111.122 92.655 109.536 92.655C107.949 92.655 106.663 93.9431 106.663 95.5321C106.663 97.1211 107.949 98.4092 109.536 98.4092Z" fill="#383D49"/>
<path d="M90.2485 100.875C93.1948 100.875 95.5832 98.4829 95.5832 95.532C95.5832 92.581 93.1948 90.1888 90.2485 90.1888C87.3021 90.1888 84.9137 92.581 84.9137 95.532C84.9137 98.4829 87.3021 100.875 90.2485 100.875Z" fill="#4F5869"/>
<path d="M90.2485 98.4092C91.835 98.4092 93.1211 97.1211 93.1211 95.5321C93.1211 93.9431 91.835 92.655 90.2485 92.655C88.6621 92.655 87.376 93.9431 87.376 95.5321C87.376 97.1211 88.6621 98.4092 90.2485 98.4092Z" fill="#383D49"/>
<path d="M71.0636 100.875C74.01 100.875 76.3984 98.4829 76.3984 95.532C76.3984 92.581 74.01 90.1888 71.0636 90.1888C68.1173 90.1888 65.7289 92.581 65.7289 95.532C65.7289 98.4829 68.1173 100.875 71.0636 100.875Z" fill="#4F5869"/>
<path d="M71.0637 98.4092C72.6502 98.4092 73.9363 97.1211 73.9363 95.5321C73.9363 93.9431 72.6502 92.655 71.0637 92.655C69.4773 92.655 68.1912 93.9431 68.1912 95.5321C68.1912 97.1211 69.4773 98.4092 71.0637 98.4092Z" fill="#383D49"/>
<path opacity="0.2" d="M72.1923 85.3593H63.5746V105.91H72.1923V85.3593Z" fill="#36475E"/>
<path d="M66.8574 111.87H18.3316C17.9212 111.87 17.5109 111.459 17.5109 111.048V108.273C17.5109 107.862 17.9212 107.451 18.3316 107.451H66.96C67.3704 107.451 67.7807 107.862 67.7807 108.273V111.048C67.6781 111.459 67.3704 111.87 66.8574 111.87Z" fill="#383D49"/>
<path d="M69.7301 58.7465V104.574C69.7301 106.938 67.8835 108.787 65.5239 108.787H19.2551C18.3318 108.787 17.4084 108.479 16.6903 107.965C16.0747 107.554 15.6644 106.938 15.3566 106.321C15.1514 105.807 15.0488 105.191 15.0488 104.574V58.7465C15.0488 56.3832 16.8955 54.5337 19.2551 54.5337H65.5239C66.6524 54.5337 67.6783 54.9447 68.3965 55.664C68.7042 55.9722 69.012 56.3832 69.2172 56.897C69.3198 57.1025 69.4224 57.308 69.4224 57.5135C69.7301 57.8218 69.7301 58.2328 69.7301 58.7465C69.7301 58.6438 69.7301 58.6438 69.7301 58.7465Z" fill="#535A6B"/>
<path opacity="0.8" d="M69.7302 58.7464V104.574C69.7302 106.937 67.8835 108.787 65.5239 108.787H19.2551C18.3318 108.787 17.4084 108.479 16.6903 107.965L68.3965 55.7666C68.7042 56.0749 69.012 56.4859 69.2172 56.9996C69.3198 57.2051 69.4224 57.4106 69.4224 57.6161C69.6276 58.0272 69.7302 58.4382 69.7302 58.7464C69.7302 58.6437 69.7302 58.6437 69.7302 58.7464Z" fill="#4F5869"/>
<path d="M19.2551 104.78C19.0499 104.78 19.0499 104.677 19.0499 104.574V104.472V58.7466C19.0499 58.6439 65.6265 58.4384 65.6265 58.4384C65.8317 58.4384 65.8317 58.5411 65.8317 58.5411V58.6439V104.472C65.8317 104.574 65.7291 104.78 65.5239 104.78H19.2551V104.78Z" fill="#687086"/>
<path d="M34.849 99.3336C30.5401 99.3336 27.052 95.84 27.052 91.5244C27.052 87.2088 30.5401 83.7152 34.849 83.7152C34.9516 83.7152 35.0541 83.7152 35.1567 83.7152C35.2593 83.7152 35.2593 83.7152 35.3619 83.7152H35.4645C35.6697 83.7152 35.9775 83.7152 36.1827 83.818L52.3921 85.873C52.4947 85.873 52.4947 85.873 52.5973 85.9758C55.3673 86.3868 57.4191 88.7501 57.4191 91.5244C57.4191 94.2987 55.4699 96.5593 52.8025 97.0731C52.6999 97.0731 52.6999 97.0731 52.5973 97.0731L35.6697 99.2309C35.3619 99.3336 35.1567 99.3336 34.849 99.3336ZM34.849 85.3593C31.4634 85.3593 28.6935 88.1336 28.6935 91.5244C28.6935 94.9152 31.4634 97.6896 34.849 97.6896C35.0541 97.6896 35.2593 97.6896 35.5671 97.6896L52.2895 95.5318H52.3921C54.3414 95.2235 55.7776 93.5795 55.7776 91.6272C55.7776 89.5721 54.2388 87.9281 52.1869 87.6198C52.0843 87.6198 52.0843 87.6198 51.9818 87.6198L35.8749 85.5648C35.6697 85.5648 35.4645 85.462 35.2593 85.462C35.2593 85.462 35.2593 85.462 35.1567 85.462H35.0541C34.9516 85.3593 34.9516 85.3593 34.849 85.3593Z" fill="#343A43"/>
<path d="M34.849 96.2511C37.4553 96.2511 39.5682 94.1349 39.5682 91.5245C39.5682 88.914 37.4553 86.7979 34.849 86.7979C32.2426 86.7979 30.1298 88.914 30.1298 91.5245C30.1298 94.1349 32.2426 96.2511 34.849 96.2511Z" fill="#4F5869"/>
<path d="M34.8491 94.0934C36.2656 94.0934 37.4139 92.9433 37.4139 91.5246C37.4139 90.1059 36.2656 88.9558 34.8491 88.9558C33.4326 88.9558 32.2843 90.1059 32.2843 91.5246C32.2843 92.9433 33.4326 94.0934 34.8491 94.0934Z" fill="#383D49"/>
<path d="M51.7766 94.2989C53.3064 94.2989 54.5465 93.0568 54.5465 91.5246C54.5465 89.9923 53.3064 88.7502 51.7766 88.7502C50.2467 88.7502 49.0066 89.9923 49.0066 91.5246C49.0066 93.0568 50.2467 94.2989 51.7766 94.2989Z" fill="#4F5869"/>
<path d="M51.7767 93.0657C52.6266 93.0657 53.3155 92.3757 53.3155 91.5244C53.3155 90.6732 52.6266 89.9832 51.7767 89.9832C50.9268 89.9832 50.2378 90.6732 50.2378 91.5244C50.2378 92.3757 50.9268 93.0657 51.7767 93.0657Z" fill="#383D49"/>
<path d="M59.5736 77.3448H24.6925C23.4614 77.3448 22.5381 76.3172 22.5381 75.1869V67.275C22.5381 66.042 23.564 65.1172 24.6925 65.1172H59.5736C60.8047 65.1172 61.7281 66.1447 61.7281 67.275V75.1869C61.8307 76.3172 60.8047 77.3448 59.5736 77.3448Z" fill="#474E61"/>
<path d="M27.8729 72.5156H25.821V74.5707H27.8729V72.5156Z" fill="url(#paint1_linear)"/>
<path opacity="0.4" d="M33.0024 72.5156H30.9506V74.5707H33.0024V72.5156Z" fill="#383D49"/>
<path d="M38.0294 72.5156H35.9775V74.5707H38.0294V72.5156Z" fill="#383D49"/>
<path opacity="0.4" d="M43.1589 72.5156H41.1071V74.5707H43.1589V72.5156Z" fill="#383D49"/>
<path d="M48.1859 72.5156H46.134V74.5707H48.1859V72.5156Z" fill="#383D49"/>
<path opacity="0.5" d="M53.3155 72.5156H51.2637V74.5707H53.3155V72.5156Z" fill="#383D49"/>
<path d="M27.8729 68.0969H25.821V70.152H27.8729V68.0969Z" fill="#383D49"/>
<path opacity="0.4" d="M33.0023 68.0969H30.9505V70.152H33.0023V68.0969Z" fill="#383D49"/>
<path d="M38.0294 68.0969H35.9775V70.152H38.0294V68.0969Z" fill="url(#paint2_linear)"/>
<path d="M43.1589 68.0969H41.1071V70.152H43.1589V68.0969Z" fill="#383D49"/>
<path opacity="0.5" d="M48.1859 68.0969H46.1341V70.152H48.1859V68.0969Z" fill="#383D49"/>
<path d="M53.3156 68.0969H51.2637V70.152H53.3156V68.0969Z" fill="#383D49"/>
<path opacity="0.5" d="M58.5477 72.5156H56.4958V74.5707H58.5477V72.5156Z" fill="#383D49"/>
<path d="M58.5477 68.0969H56.4958V70.152H58.5477V68.0969Z" fill="#383D49"/>
<path d="M75.578 40.1483L65.6266 52.6841L64.1903 54.5337H19.8708L18.2293 52.6841L7.14941 40.1483H75.578Z" fill="#535A6B"/>
<path d="M33.2074 26.0713L28.5908 31.7226L19.7679 29.1538L24.0768 19.3923L25.1027 16.9263H25.2053L27.3597 17.6455L33.2074 26.0713Z" fill="#383D49"/>
<path d="M33.2075 26.0712L24.8975 23.5024L24.0768 19.3923L23.5638 16.7207L23.6664 16.4125L25.1027 16.9262H25.2053L27.3597 17.6455L30.8478 18.7758L33.2075 26.0712Z" fill="#6A7284"/>
<path d="M23.6666 16.4125L25.1028 23.6052L19.7681 29.1538L18.3318 21.9611L23.6666 16.4125Z" fill="#535A6B"/>
<path d="M65.8317 17.7483L62.2409 24.119L53.2129 23.0915L55.6751 12.7135L56.3932 10.1447H56.4958L58.6502 10.4529L65.8317 17.7483Z" fill="#383D49"/>
<path d="M65.8317 17.7481L57.214 16.7206L55.6751 12.7133L54.7518 10.1444L54.8544 9.83618L56.3932 10.1444H56.4958L58.6502 10.4527L62.3435 10.9665L65.8317 17.7481Z" fill="#535A6B"/>
<path d="M54.8544 9.83643L57.5218 16.7209L53.2129 23.0915L50.5455 16.2071L54.8544 9.83643Z" fill="#6A7284"/>
<path opacity="0.8" d="M65.6264 52.684L64.1902 54.5335H19.8706L18.2291 52.684H65.6264Z" fill="#4F5869"/>
<path d="M102.046 85.3595H85.9396C84.8111 85.3595 83.7852 84.4347 83.7852 83.2017V67.0696C83.7852 65.9393 84.7085 64.9117 85.9396 64.9117H102.046C103.175 64.9117 104.201 65.8365 104.201 67.0696V83.2017C104.201 84.4347 103.278 85.3595 102.046 85.3595Z" fill="url(#paint3_linear)"/>
<path d="M92.7106 78.8862C92.4029 78.8862 92.0951 78.7834 91.8899 78.5779L89.6329 76.2146C89.1199 75.7008 89.1199 74.9816 89.6329 74.4678C90.1458 73.954 90.864 73.954 91.3769 74.4678L92.7106 75.9063L96.7117 71.899C97.2247 71.3852 97.9428 71.3852 98.4558 71.899C98.9687 72.4128 98.9687 73.132 98.4558 73.6458L93.634 78.4752C93.3262 78.6807 93.0184 78.8862 92.7106 78.8862Z" fill="white"/>
<path d="M101 61V55" stroke="url(#paint4_linear)" stroke-width="1.5" stroke-miterlimit="10" stroke-linecap="round" stroke-linejoin="round"/>
<path d="M106 62L108 60" stroke="url(#paint5_linear)" stroke-width="1.5" stroke-miterlimit="10" stroke-linecap="round" stroke-linejoin="round"/>
<path d="M108 67H111" stroke="url(#paint6_linear)" stroke-width="1.5" stroke-miterlimit="10" stroke-linecap="round" stroke-linejoin="round"/>
<path d="M55.5725 6.75415V1" stroke="#535A6B" stroke-miterlimit="10" stroke-linecap="round" stroke-linejoin="round"/>
<path d="M59.9839 7.98657V3.87646" stroke="#535A6B" stroke-miterlimit="10" stroke-linecap="round" stroke-linejoin="round"/>
<path d="M28.3857 15.5903V10.1444" stroke="#535A6B" stroke-miterlimit="10" stroke-linecap="round" stroke-linejoin="round"/>
<path d="M22.8457 15.5904V7.98669" stroke="#535A6B" stroke-miterlimit="10" stroke-linecap="round" stroke-linejoin="round"/>
<path d="M25.1028 12.3025V14.2548" stroke="#535A6B" stroke-miterlimit="10" stroke-linecap="round" stroke-linejoin="round"/>
<path d="M38.8501 28.3316V23.7078" stroke="#535A6B" stroke-miterlimit="10" stroke-linecap="round" stroke-linejoin="round"/>
<path d="M42.4407 27.2014V25.2491" stroke="#535A6B" stroke-miterlimit="10" stroke-linecap="round" stroke-linejoin="round"/>
<path d="M45.8263 28.3318V18.3647" stroke="#535A6B" stroke-miterlimit="10" stroke-linecap="round" stroke-linejoin="round"/>
<defs>
<linearGradient id="paint0_linear" x1="73.7784" y1="7.76084" x2="76.9631" y2="7.76084" gradientUnits="userSpaceOnUse">
<stop offset="0.00289017" stop-color="#FFD44F"/>
<stop offset="1" stop-color="#FFA607"/>
</linearGradient>
<linearGradient id="paint1_linear" x1="25.782" y1="73.5366" x2="27.876" y2="73.5366" gradientUnits="userSpaceOnUse">
<stop stop-color="#FF66A9"/>
<stop offset="1" stop-color="#F53689"/>
</linearGradient>
<linearGradient id="paint2_linear" x1="35.9521" y1="69.1113" x2="38.0461" y2="69.1113" gradientUnits="userSpaceOnUse">
<stop stop-color="#51DFD4"/>
<stop offset="1" stop-color="#1BE068"/>
</linearGradient>
<linearGradient id="paint3_linear" x1="83.838" y1="75.1869" x2="104.186" y2="75.1869" gradientUnits="userSpaceOnUse">
<stop stop-color="#51DFD4"/>
<stop offset="1" stop-color="#1BE068"/>
</linearGradient>
<linearGradient id="paint4_linear" x1="-nan" y1="-nan" x2="-nan" y2="-nan" gradientUnits="userSpaceOnUse">
<stop stop-color="#51DFD4"/>
<stop offset="1" stop-color="#1BE068"/>
</linearGradient>
<linearGradient id="paint5_linear" x1="105.432" y1="60.9587" x2="108.504" y2="60.9587" gradientUnits="userSpaceOnUse">
<stop stop-color="#51DFD4"/>
<stop offset="1" stop-color="#1BE068"/>
</linearGradient>
<linearGradient id="paint6_linear" x1="-nan" y1="-nan" x2="-nan" y2="-nan" gradientUnits="userSpaceOnUse">
<stop stop-color="#51DFD4"/>
<stop offset="1" stop-color="#1BE068"/>
</linearGradient>
</defs>
</svg>
