<svg width="121" height="124" viewBox="0 0 121 124" fill="none" xmlns="http://www.w3.org/2000/svg">
<path d="M56.9132 80.5533C69.3809 80.5533 79.488 70.4134 79.488 57.9052C79.488 45.397 69.3809 35.2571 56.9132 35.2571C44.4455 35.2571 34.3384 45.397 34.3384 57.9052C34.3384 70.4134 44.4455 80.5533 56.9132 80.5533Z" fill="white"/>
<path d="M56.9132 114C87.7932 114 112.826 88.8857 112.826 57.9055C112.826 26.9252 87.7932 1.81079 56.9132 1.81079C26.0332 1.81079 1 26.9252 1 57.9055C1 88.8857 26.0332 114 56.9132 114Z" stroke="#2A2E38" stroke-width="2" stroke-miterlimit="10" stroke-linecap="round" stroke-linejoin="round" stroke-dasharray="1 5"/>
<path d="M25.6298 19.9483C26.8805 19.5405 27.5649 18.1927 27.1584 16.9379C26.7519 15.6831 25.4084 14.9965 24.1577 15.4044C22.907 15.8122 22.2226 17.16 22.6291 18.4148C23.0356 19.6696 24.3791 20.3562 25.6298 19.9483Z" fill="#2A2E38"/>
<path d="M30.8281 12.1534C31.6786 11.8761 32.144 10.9596 31.8675 10.1063C31.5911 9.25307 30.6775 8.7862 29.8271 9.06353C28.9766 9.34086 28.5112 10.2574 28.7876 11.1106C29.0641 11.9639 29.9776 12.4307 30.8281 12.1534Z" fill="#2A2E38"/>
<path d="M118.111 44.3547C119.587 43.0018 119.69 40.7049 118.341 39.2244C116.993 37.7439 114.703 37.6405 113.228 38.9934C111.752 40.3463 111.649 42.6433 112.997 44.1238C114.346 45.6043 116.635 45.7077 118.111 44.3547Z" fill="#2A2E38"/>
<path d="M118.449 28.1454C119.07 27.5757 119.114 26.6086 118.546 25.9852C117.978 25.3619 117.014 25.3183 116.393 25.888C115.771 26.4576 115.728 27.4248 116.296 28.0481C116.864 28.6715 117.828 28.715 118.449 28.1454Z" fill="#2A2E38"/>
<path d="M14.6211 102.342C15.4628 102.342 16.1451 101.657 16.1451 100.813C16.1451 99.9682 15.4628 99.2837 14.6211 99.2837C13.7794 99.2837 13.097 99.9682 13.097 100.813C13.097 101.657 13.7794 102.342 14.6211 102.342Z" fill="url(#paint0_linear)"/>
<path d="M14.6211 45.8644C15.4628 45.8644 16.1451 45.1798 16.1451 44.3354C16.1451 43.4909 15.4628 42.8064 14.6211 42.8064C13.7794 42.8064 13.097 43.4909 13.097 44.3354C13.097 45.1798 13.7794 45.8644 14.6211 45.8644Z" fill="url(#paint1_linear)"/>
<path d="M85.9651 4.77301C86.5438 4.77301 87.0129 4.30238 87.0129 3.72183C87.0129 3.14128 86.5438 2.67065 85.9651 2.67065C85.3865 2.67065 84.9174 3.14128 84.9174 3.72183C84.9174 4.30238 85.3865 4.77301 85.9651 4.77301Z" fill="url(#paint2_linear)"/>
<path d="M119.875 56.663C120.496 56.0933 120.54 55.1262 119.972 54.5028C119.404 53.8794 118.44 53.8359 117.819 54.4056C117.197 54.9752 117.154 55.9423 117.722 56.5657C118.29 57.1891 119.254 57.2326 119.875 56.663Z" fill="#32D697"/>
<path d="M78.7394 27.0493C78.6441 27.5271 78.5487 28.1006 78.3582 28.5784C78.263 29.0562 78.0726 29.4387 77.9773 29.821C77.7868 30.4899 77.501 31.0633 77.2152 31.7322C77.12 32.0189 76.9295 32.4011 76.739 32.6878C76.1675 33.8345 75.5008 34.8856 74.7388 35.9368C74.4531 36.3191 74.1673 36.701 73.7863 37.0833C71.8812 39.2812 69.5951 41.0969 67.0233 42.4348C66.547 42.7215 66.0708 42.9128 65.5945 43.1039C64.7372 43.4862 63.9752 43.7728 63.0227 43.9639C62.5465 44.0595 62.0702 44.2505 61.5939 44.346C58.6411 45.015 55.4978 45.015 52.3545 44.346C40.2574 41.8614 32.5418 30.0121 35.0184 17.8758C37.4949 5.73944 49.3064 -2.00124 61.4035 0.483363C65.6898 1.34342 69.595 3.44568 72.6431 6.59921C77.9772 11.9507 80.2634 19.5955 78.7394 27.0493Z" fill="url(#paint3_linear)"/>
<path d="M78.549 16.9194C78.1679 15.1993 77.501 13.6702 76.739 12.0456C76.6438 11.759 76.4534 11.5676 76.3581 11.2809C75.4056 9.56076 74.1672 8.03187 72.7385 6.59845C69.6904 3.54047 65.785 1.43821 61.4986 0.482596C49.7826 -2.00201 38.2571 5.35633 35.3995 16.8237C35.3043 17.1104 35.2091 17.4927 35.2091 17.7793C33.6851 25.1376 35.9711 32.4 40.6384 37.5603C41.0194 37.9426 41.4004 38.4206 41.7814 38.8029C44.639 41.4786 48.2587 43.3896 52.3545 44.2496C55.4979 44.9186 58.6411 44.823 61.594 44.2496C62.0702 44.1541 62.5465 44.0586 63.0228 43.8675C63.88 43.6763 64.7373 43.2942 65.5945 43.0075C66.0708 42.8164 66.5471 42.5295 67.0233 42.3384C69.4046 41.0961 71.5003 39.5671 73.3101 37.5603C73.5006 37.3692 73.6909 37.1784 73.8814 36.9873C74.1672 36.6051 74.453 36.2226 74.834 35.8404C75.596 34.7892 76.2628 33.7381 76.8344 32.5914C77.0249 32.3047 77.12 32.018 77.2153 31.6358C77.501 31.0624 77.7868 30.3935 77.9773 29.7245C78.0726 29.4379 78.1679 29.1513 78.2632 28.8646C78.2632 28.769 78.3583 28.5775 78.3583 28.482C78.4535 28.0042 78.6442 27.4312 78.7394 26.9533C79.5014 23.6087 79.4062 20.1685 78.549 16.9194ZM74.6435 25.8064C74.6435 25.902 74.5482 25.9975 74.5482 26.1886C74.5482 26.2841 74.4531 26.4753 74.4531 26.6664C74.1673 27.8131 73.7863 28.9599 73.3101 30.011C73.2148 30.2977 73.1194 30.4891 72.9289 30.7758C72.4527 31.7314 71.8812 32.5912 71.3097 33.3557C71.0239 33.6424 70.8334 34.0246 70.5476 34.3113C69.4046 35.6492 68.0712 36.796 66.6424 37.7516C66.1661 38.0383 65.5945 38.4205 65.1183 38.6116C64.7373 38.8027 64.3563 38.9939 63.9753 39.185C63.3085 39.4717 62.6418 39.663 61.8798 39.8542C59.2127 40.6187 56.2599 40.8096 53.3071 40.1407C51.1162 39.6629 49.0206 38.8027 47.3061 37.656C41.2099 33.7379 37.7808 26.38 39.4001 18.8306C39.4954 18.1617 39.6859 17.5883 39.8764 16.9194C42.6387 8.22327 51.5925 2.87164 60.6414 4.78287C64.0705 5.54736 67.2139 7.172 69.6904 9.6566C71.1192 11.09 72.2621 12.7146 73.1194 14.4347C73.2146 14.7214 73.4053 14.9123 73.5005 15.199C73.691 15.7724 73.9767 16.2504 74.0719 16.8237C74.9292 19.7861 75.215 22.7485 74.6435 25.8064Z" fill="url(#paint4_linear)"/>
<path d="M60.451 5.35635C61.7845 5.64304 62.9274 6.02509 64.1657 6.59846C64.4515 6.69403 64.642 6.78949 64.9278 6.98062C65.7851 7.45843 66.6422 7.93633 67.4042 8.5097C67.69 8.70082 67.9757 8.98778 68.3567 9.27447C70.0713 10.8035 71.5001 12.6188 72.4526 14.6255C72.6431 15.0078 72.8337 15.3902 73.0243 15.7725C73.31 16.4414 73.5005 17.1104 73.691 17.7794C74.453 20.3595 74.5483 23.2261 73.9768 26.0929C71.9765 35.5535 62.8321 41.5741 53.4022 39.6629C43.9722 37.7516 37.9713 28.4821 39.8764 19.0215C40.5431 15.6768 42.1624 12.6191 44.639 10.2301C48.7348 5.92981 54.7358 4.20961 60.451 5.35635Z" stroke="url(#paint5_linear)" stroke-width="2" stroke-miterlimit="10"/>
<path d="M78.345 28.5681C78.2498 29.0459 78.0593 29.4282 77.964 29.8104C77.7735 30.4793 77.4877 31.0527 77.202 31.7216C77.1067 32.0083 76.9162 32.3906 76.7257 32.6773C76.1542 33.824 75.4874 34.8752 74.7254 35.9264C74.4397 36.3086 74.1539 36.6908 73.7729 37.0731C71.8678 39.271 69.5818 41.0867 67.01 42.4245C66.5337 42.7112 66.0575 42.9024 65.5812 43.0935C64.7239 43.4757 63.9619 43.7624 63.0094 43.9535C62.5331 44.0491 62.0568 44.2402 61.5806 44.3358L48.2452 31.2438L52.6269 27.8036L53.1984 26.5613L53.2936 24.1723C53.2936 24.1723 53.1031 15.3806 52.9126 15.0939C52.8174 14.9984 54.7224 9.93359 54.7224 9.93359L57.1037 13.6605L58.8183 9.93359L78.345 28.5681Z" fill="url(#paint6_linear)"/>
<path d="M54.9129 35.6396C54.0556 35.6396 53.2936 35.6396 52.4363 35.6396C52.4363 34.3018 52.4363 32.9639 52.4363 31.5305C50.9123 31.3394 49.3882 31.4349 47.7689 31.4349C48.1499 29.5237 48.1499 29.3326 48.2452 28.7592C48.2452 28.5681 48.3404 28.5681 48.5309 28.5681C49.0072 28.5681 49.4835 28.5681 49.9597 28.5681C50.7217 28.5681 50.9123 28.3769 50.9123 27.708C50.9123 24.3634 50.9123 21.0187 50.9123 17.674C50.9123 16.7184 50.3407 16.3362 49.5787 16.3362C49.0072 16.3362 48.5309 16.3362 47.9594 16.3362C47.9594 15.5717 47.9594 14.7116 47.9594 13.9471C48.8167 13.9471 50.5312 13.9471 52.2458 13.9471C52.5315 13.9471 52.5315 13.9471 52.5315 13.6605C52.5315 12.8004 52.5315 10.6025 52.5315 9.74243C53.3888 9.74243 54.1508 9.74243 55.0081 9.74243C55.0081 11.0803 55.0081 12.4182 55.0081 13.8516C55.5796 13.8516 56.2464 13.8516 56.8179 13.8516C56.8179 12.5137 56.8179 11.1759 56.8179 9.74243C57.5799 9.74243 58.3419 9.74243 59.104 9.74243C59.104 10.1247 59.104 13.4693 59.104 13.6605C59.104 13.8516 59.104 13.8516 59.2945 13.9471C62.152 14.3294 64.4381 15.1894 64.6286 17.9607C64.7239 18.9163 64.5334 19.872 63.9618 20.6365C63.5808 21.2098 63.0093 21.4965 62.6283 21.6876C63.2951 21.9743 65.1049 22.3566 65.7716 24.2678C66.0574 25.0323 66.0574 25.7968 65.9621 26.6568C65.8669 27.5169 65.5811 28.2814 65.1049 28.9503C64.5334 29.8104 63.6761 30.2882 62.7236 30.6704C61.5805 31.0527 60.4375 31.2438 59.1992 31.3394C59.0087 31.3394 58.9135 31.4349 58.9135 31.626C58.9135 32.7728 58.9135 33.9195 58.9135 35.4485C58.1514 35.4485 57.3894 35.4485 56.6274 35.4485C56.6274 34.1106 56.6274 32.7728 56.6274 31.4349C56.0559 31.4349 55.3891 31.4349 54.8176 31.4349C54.9129 32.9639 54.9129 34.3018 54.9129 35.6396ZM54.9129 23.6944C54.9129 25.4145 54.9129 27.0391 54.9129 28.8548C57.3894 28.7592 58.723 28.8548 60.1517 28.1858C60.8185 27.8036 61.2948 27.2302 61.39 26.4657C61.4853 25.6057 61.1043 24.9367 60.3422 24.4589C58.9135 23.5989 56.4369 23.5989 54.9129 23.6944ZM54.9129 16.7184C54.9129 18.2474 54.9129 19.7764 54.9129 21.3054C55.8654 21.4009 57.5799 21.3054 58.4372 21.0187C60.9138 20.3498 60.5328 17.7696 59.0087 17.1007C57.5799 16.5273 56.0559 16.7184 54.9129 16.7184Z" fill="url(#paint7_linear)"/>
<path opacity="0.5" d="M78.726 27.039C78.6307 27.5168 78.5355 28.0901 78.345 28.5679C78.345 28.7591 78.2497 28.8546 78.2497 28.9502C78.1545 29.2369 78.0592 29.5236 77.964 29.8102C77.7735 30.4792 77.4877 31.0525 77.2019 31.7215C77.1067 32.0082 76.9162 32.3904 76.8209 32.6771C76.2494 33.8238 75.5826 34.875 74.8206 35.9262C74.5349 36.3084 74.2491 36.6907 73.8681 37.0729C73.6776 37.264 73.4871 37.4552 73.3918 37.6463H40.625C35.8624 32.486 33.6716 25.2233 35.1956 17.865C35.2909 17.4828 35.3861 17.1961 35.3861 16.9094H78.6307C79.3927 20.1585 79.488 23.5987 78.726 27.039Z" fill="url(#paint8_linear)"/>
<path d="M86.3462 42.8067V80.458H27.6707V42.8067C27.6707 38.0286 31.576 34.1106 36.3386 34.1106H77.8687C82.5361 34.2062 86.3462 38.0286 86.3462 42.8067Z" fill="#474E61"/>
<path d="M86.3461 42.8064V80.4576H76.9161V34.2058H77.7734C82.536 34.2058 86.3461 38.0283 86.3461 42.8064Z" fill="url(#paint9_linear)"/>
<path d="M27.6707 42.8064V80.4576H37.1006V34.2058H36.2434C31.4808 34.2058 27.6707 38.0283 27.6707 42.8064Z" fill="url(#paint10_linear)"/>
<path d="M86.3462 79.0244V80.4578H27.6707V79.0244C27.6707 74.2463 31.576 70.4238 36.3386 70.4238H77.8687C82.5361 70.3283 86.3462 74.2463 86.3462 79.0244Z" fill="#575E75"/>
<path d="M84.2506 78.3555H29.7662C30.052 75.3931 32.2428 73.0996 35.1004 72.5262C35.3861 72.4307 35.6719 72.4307 35.9576 72.4307C36.0529 72.4307 36.1481 72.4307 36.3387 72.4307H77.8687C78.5355 72.4307 79.2022 72.5262 79.7738 72.7174C80.0595 72.8129 80.3453 72.9085 80.631 73.004C82.6313 74.0552 84.0601 76.062 84.2506 78.3555Z" fill="#2C353D"/>
<g filter="url(#filter0_d)">
<path d="M79.6786 72.7175V112.567C79.6786 113.236 79.2023 113.713 78.5356 113.713H36.2435C35.5767 113.713 35.1005 113.236 35.1005 112.567V72.5263C35.3862 72.4308 35.672 72.4308 35.9577 72.4308C36.053 72.4308 36.1482 72.4308 36.3387 72.4308H59.9614C60.2471 72.4308 60.5329 72.3352 60.8186 72.3352C61.1044 72.3352 61.2949 72.3352 61.4854 72.4308H77.8688C78.4403 72.4308 79.1071 72.5263 79.6786 72.7175Z" fill="#96E3C1"/>
</g>
<path d="M76.9163 72.4308V109.795C76.9163 110.464 76.44 110.942 75.7732 110.942H39.0058C38.339 110.942 37.8628 110.464 37.8628 109.795V72.4308H59.9613C60.2471 72.4308 60.5328 72.3352 60.8186 72.3352C61.1044 72.3352 61.2949 72.3352 61.4854 72.4308H76.9163Z" fill="#1FC07C"/>
<path d="M69.7723 72.4307C70.4391 73.3863 71.0106 74.4375 71.2964 75.5842C71.4869 76.4443 71.6774 77.2087 71.6774 78.1644C71.6774 78.2599 71.6774 78.3555 71.6774 78.3555C71.4869 84.567 65.2002 89.6318 57.4848 89.6318C49.7693 89.6318 43.4827 84.567 43.2921 78.3555C43.2921 78.2599 43.2921 78.1644 43.2921 78.1644C43.2921 77.3043 43.3874 76.4443 43.6732 75.5842C43.9589 74.4375 44.5304 73.3863 45.1972 72.4307H40.8156V101.386C42.6254 101.386 44.3399 102.055 45.5782 103.393C46.8165 104.635 47.5785 106.355 47.5785 108.171H67.5815C67.5815 106.355 68.2483 104.635 69.5818 103.393C70.8201 102.15 72.5346 101.386 74.3444 101.386V72.4307H69.7723Z" fill="#96E3C1"/>
<path d="M66.7242 77.0177V79.8846H65.0097C64.8192 81.318 64.2477 83.0381 62.2474 83.9937L62.1521 84.0893L61.0091 81.7002L61.1043 81.6047C61.8663 81.1269 62.5331 79.6935 62.5331 78.4511V78.3556C62.5331 77.4 62.3426 75.2976 60.8186 75.2976C59.6755 75.2976 59.3898 76.6355 59.1993 78.3556C58.9135 80.9358 58.4373 84.4715 54.7224 84.4715C51.8648 84.4715 50.436 82.0825 50.2455 79.789H48.2452V76.9222H50.1503C50.3408 74.9154 51.1981 73.3864 52.4363 72.3352H54.0556L54.8177 74.2464L54.7224 74.342C53.5794 74.8198 52.7221 76.4444 52.7221 78.1645C52.7221 78.1645 52.7221 78.26 52.7221 78.3556C52.7221 79.3112 53.0079 81.5091 54.7224 81.5091C55.6749 81.5091 56.2464 80.5535 56.5322 78.3556C56.5322 78.26 56.5322 78.1645 56.5322 78.1645C56.818 75.3932 57.3895 72.9086 59.9613 72.4308C60.247 72.4308 60.5328 72.3352 60.8186 72.3352C61.1043 72.3352 61.2948 72.3352 61.4853 72.4308C63.3904 72.7175 64.6287 74.4376 65.0097 77.0177H66.7242Z" fill="#96E3C1"/>
<path opacity="0.6" d="M84.2506 78.3555H29.7662C30.052 75.3931 32.2428 73.0996 35.1004 72.5262C35.3861 72.4307 35.6719 72.4307 35.9576 72.4307C36.0529 72.4307 36.1481 72.4307 36.3387 72.4307H77.8687C78.5355 72.4307 79.2022 72.5262 79.7738 72.7174C80.0595 72.8129 80.3453 72.9085 80.631 73.004C82.6313 74.0552 84.0601 76.062 84.2506 78.3555Z" fill="url(#paint11_linear)"/>
<path d="M55.5796 63.2565L48.6262 54.4648C48.0547 53.7003 48.1499 52.5536 48.9119 51.9802C49.1977 51.6935 49.5787 51.598 50.055 51.598H53.3888V42.9019C53.3888 41.9462 54.1508 41.0862 55.1986 41.0862H58.9135C59.866 41.0862 60.7233 41.8507 60.7233 42.9019V51.598H64.0571C65.0096 51.598 65.8669 52.3625 65.8669 53.3181C65.8669 53.7003 65.7716 54.0826 65.4859 54.4648L58.5324 63.2565C57.8657 64.021 56.7226 64.2121 55.8654 63.5432C55.7701 63.4476 55.6749 63.352 55.5796 63.2565Z" fill="#1C253C"/>
<path d="M55.5796 63.8301L48.6262 54.9428C48.0547 54.1783 48.1499 53.0316 48.9119 52.4582C49.1977 52.1715 49.5787 52.076 50.055 52.076H53.3888V43.3799C53.3888 42.4243 54.1508 41.5642 55.1986 41.5642H58.9135C59.866 41.5642 60.7233 42.3287 60.7233 43.3799V52.076H64.0571C65.0096 52.076 65.8669 52.8405 65.8669 53.7961C65.8669 54.1783 65.7716 54.5606 65.4859 54.9428L58.5324 63.7345C57.8657 64.499 56.7226 64.6901 55.8654 64.0212C55.7701 64.0212 55.6749 63.9256 55.5796 63.8301Z" fill="#323B48"/>
<g filter="url(#filter1_d)">
<path d="M75.5827 66.1236C76.477 66.1236 77.202 65.3963 77.202 64.4991C77.202 63.6019 76.477 62.8745 75.5827 62.8745C74.6884 62.8745 73.9634 63.6019 73.9634 64.4991C73.9634 65.3963 74.6884 66.1236 75.5827 66.1236Z" fill="url(#paint12_linear)"/>
</g>
<defs>
<filter id="filter0_d" x="32.1005" y="72.3352" width="50.5781" height="51.3782" filterUnits="userSpaceOnUse" color-interpolation-filters="sRGB">
<feFlood flood-opacity="0" result="BackgroundImageFix"/>
<feColorMatrix in="SourceAlpha" type="matrix" values="0 0 0 0 0 0 0 0 0 0 0 0 0 0 0 0 0 0 127 0"/>
<feOffset dy="7"/>
<feGaussianBlur stdDeviation="1.5"/>
<feColorMatrix type="matrix" values="0 0 0 0 0 0 0 0 0 0 0 0 0 0 0 0 0 0 0.1 0"/>
<feBlend mode="normal" in2="BackgroundImageFix" result="effect1_dropShadow"/>
<feBlend mode="normal" in="SourceGraphic" in2="effect1_dropShadow" result="shape"/>
</filter>
<filter id="filter1_d" x="69.9634" y="62.8745" width="11.2386" height="11.2491" filterUnits="userSpaceOnUse" color-interpolation-filters="sRGB">
<feFlood flood-opacity="0" result="BackgroundImageFix"/>
<feColorMatrix in="SourceAlpha" type="matrix" values="0 0 0 0 0 0 0 0 0 0 0 0 0 0 0 0 0 0 127 0"/>
<feOffset dy="4"/>
<feGaussianBlur stdDeviation="2"/>
<feColorMatrix type="matrix" values="0 0 0 0 0 0 0 0 0 0 0 0 0 0 0 0 0 0 0.25 0"/>
<feBlend mode="normal" in2="BackgroundImageFix" result="effect1_dropShadow"/>
<feBlend mode="normal" in="SourceGraphic" in2="effect1_dropShadow" result="shape"/>
</filter>
<linearGradient id="paint0_linear" x1="13.1156" y1="100.784" x2="16.0725" y2="100.784" gradientUnits="userSpaceOnUse">
<stop offset="0.00289017" stop-color="#FFD44F"/>
<stop offset="1" stop-color="#FFA607"/>
</linearGradient>
<linearGradient id="paint1_linear" x1="13.1156" y1="44.3193" x2="16.0725" y2="44.3193" gradientUnits="userSpaceOnUse">
<stop offset="0.00289017" stop-color="#FFD44F"/>
<stop offset="1" stop-color="#FFA607"/>
</linearGradient>
<linearGradient id="paint2_linear" x1="84.9099" y1="3.69651" x2="87.0431" y2="3.69651" gradientUnits="userSpaceOnUse">
<stop offset="0.00289017" stop-color="#FFD44F"/>
<stop offset="1" stop-color="#FFA607"/>
</linearGradient>
<linearGradient id="paint3_linear" x1="34.6372" y1="22.4592" x2="79.2338" y2="22.4592" gradientUnits="userSpaceOnUse">
<stop offset="0.00289017" stop-color="#FFD44F"/>
<stop offset="1" stop-color="#FFA607"/>
</linearGradient>
<linearGradient id="paint4_linear" x1="60.145" y1="-3.7477" x2="54.0161" y2="46.0089" gradientUnits="userSpaceOnUse">
<stop offset="0.00289017" stop-color="#FFD44F"/>
<stop offset="1" stop-color="#FFA607"/>
</linearGradient>
<linearGradient id="paint5_linear" x1="56.9353" y1="40.8522" x2="56.9353" y2="4.06466" gradientUnits="userSpaceOnUse">
<stop offset="0.00289017" stop-color="#FFD44F"/>
<stop offset="1" stop-color="#FF9807"/>
</linearGradient>
<linearGradient id="paint6_linear" x1="55.4404" y1="21.9593" x2="66.1312" y2="32.6155" gradientUnits="userSpaceOnUse">
<stop stop-color="#FAA404"/>
<stop offset="1" stop-color="#FF7904" stop-opacity="0"/>
</linearGradient>
<linearGradient id="paint7_linear" x1="65.1288" y1="35.5227" x2="49.0554" y2="15.4015" gradientUnits="userSpaceOnUse">
<stop stop-color="#FFE491"/>
<stop offset="1" stop-color="white"/>
</linearGradient>
<linearGradient id="paint8_linear" x1="56.9387" y1="18.5644" x2="56.9387" y2="37.7929" gradientUnits="userSpaceOnUse">
<stop stop-color="#4DE067" stop-opacity="0"/>
<stop offset="1" stop-color="#1BE068"/>
</linearGradient>
<linearGradient id="paint9_linear" x1="76.9297" y1="57.3127" x2="86.3889" y2="57.3127" gradientUnits="userSpaceOnUse">
<stop stop-color="#474E61"/>
<stop offset="0.2782" stop-color="#535B71"/>
<stop offset="0.996" stop-color="#2E3649"/>
</linearGradient>
<linearGradient id="paint10_linear" x1="37" y1="64.5" x2="28" y2="64.5" gradientUnits="userSpaceOnUse">
<stop stop-color="#474E61"/>
<stop offset="0.2782" stop-color="#535B71"/>
<stop offset="0.996" stop-color="#2E3649"/>
</linearGradient>
<linearGradient id="paint11_linear" x1="57.0261" y1="72.3946" x2="57.0261" y2="78.265" gradientUnits="userSpaceOnUse">
<stop stop-color="#020204"/>
<stop offset="1" stop-color="#0E1321" stop-opacity="0"/>
</linearGradient>
<linearGradient id="paint12_linear" x1="73.8821" y1="64.4888" x2="77.1966" y2="64.4888" gradientUnits="userSpaceOnUse">
<stop stop-color="#51DFD4"/>
<stop offset="1" stop-color="#1BE068"/>
</linearGradient>
</defs>
</svg>
