<svg width="121" height="120" viewBox="0 0 121 120" fill="none" xmlns="http://www.w3.org/2000/svg">
<path d="M61.7388 119C93.9156 119 120 92.5848 120 60C120 27.4152 93.9156 1 61.7388 1C29.562 1 3.4776 27.4152 3.4776 60C3.4776 92.5848 29.562 119 61.7388 119Z" stroke="#2A2E38" stroke-width="2" stroke-miterlimit="10" stroke-linecap="round" stroke-linejoin="round" stroke-dasharray="1 5"/>
<path d="M110.558 60.0001C110.558 71.3966 106.741 81.8855 100.412 90.3573C96.997 94.8958 92.6776 98.8291 87.856 101.956C80.0209 107.099 70.679 110.125 60.6339 110.125C33.0101 110.125 10.7101 87.6342 10.7101 60.0001C10.7101 32.265 33.0101 9.77441 60.6339 9.77441C70.679 9.77441 80.0209 12.8001 87.856 17.8428C92.6776 20.9693 96.8965 25.0035 100.412 29.5419C106.841 38.0137 110.558 48.6035 110.558 60.0001Z" fill="#2A2E38"/>
<path d="M21.8996 9.48071C22.7965 9.18802 23.2873 8.22075 22.9958 7.32024C22.7043 6.41973 21.7409 5.92699 20.844 6.21968C19.9471 6.51237 19.4563 7.47964 19.7478 8.38015C20.0393 9.28066 21.0027 9.7734 21.8996 9.48071Z" fill="#2A2E38"/>
<path d="M2.67962 66.4582C3.57652 66.1655 4.06728 65.1983 3.77578 64.2977C3.48427 63.3972 2.52088 62.9045 1.62398 63.1972C0.727079 63.4899 0.236314 64.4572 0.527822 65.3577C0.81933 66.2582 1.78272 66.7509 2.67962 66.4582Z" fill="#2A2E38"/>
<path d="M109.263 16.7768C109.991 16.7768 110.581 16.1801 110.581 15.4439C110.581 14.7078 109.991 14.1111 109.263 14.1111C108.536 14.1111 107.946 14.7078 107.946 15.4439C107.946 16.1801 108.536 16.7768 109.263 16.7768Z" fill="url(#paint0_linear)"/>
<path d="M16.2725 82.5308C16.8095 82.0342 16.8471 81.1911 16.3562 80.6477C15.8654 80.1043 15.0321 80.0664 14.4951 80.563C13.958 81.0595 13.9205 81.9026 14.4113 82.446C14.9021 82.9894 15.7354 83.0274 16.2725 82.5308Z" fill="#FFBE2C"/>
<path d="M46.4075 8.90975C46.9446 8.41317 46.9821 7.57009 46.4913 7.02669C46.0005 6.48329 45.1672 6.44533 44.6301 6.94192C44.093 7.4385 44.0555 8.28158 44.5463 8.82498C45.0372 9.36838 45.8704 9.40633 46.4075 8.90975Z" fill="#32D697"/>
<path d="M106.678 111.781C107.215 111.285 107.252 110.442 106.762 109.898C106.271 109.355 105.437 109.317 104.9 109.814C104.363 110.31 104.326 111.153 104.817 111.697C105.307 112.24 106.141 112.278 106.678 111.781Z" fill="#32D697"/>
<path d="M105.47 98.2094C105.323 99.1659 105.102 100.122 104.808 101.005C103.042 105.861 98.7011 110.57 93.1829 112.557C91.7849 113.072 90.2398 113.366 88.6947 113.513C81.1164 114.028 63.5317 102.771 63.5317 102.771L60.2944 100.858L57.057 102.771C57.057 102.771 39.4723 114.028 31.894 113.513C29.5396 113.366 27.3323 112.704 25.3457 111.674C20.784 109.393 17.3259 105.273 15.7808 101.005C13.6471 94.8985 16.0751 85.9958 21.8141 74.1501C27.553 62.3043 36.0143 60.9064 41.1646 59.6556C40.2817 59.8763 38.4423 58.4048 37.8537 57.9633C37.8537 57.9633 37.7801 57.9633 37.7801 57.8898C36.5293 57.0068 35.3521 55.9032 34.2484 54.726C32.1147 52.4451 30.0546 49.7228 28.7302 46.9269C27.6266 44.6461 27.4794 42.2916 27.7737 40.0108C27.9945 38.5393 28.4359 37.0677 28.951 35.5962C29.1717 35.0076 29.3924 34.4926 29.6131 33.904C30.0546 32.8003 30.5696 31.6231 31.0847 30.5195C32.1147 28.3122 33.2184 26.1785 34.3956 24.1183C35.2049 22.6468 36.0878 21.1753 36.8972 19.7038C43.9605 7.26943 52.7896 3.36989 60.3679 3.00201C67.9463 3.36989 76.7018 7.26943 83.7651 19.6302C84.5745 21.1017 85.4574 22.5732 86.2667 24.0448C87.5175 26.3256 88.7683 28.6065 89.8719 31.0345C90.3134 31.991 90.6813 32.9475 91.1227 33.8304C91.417 34.6397 91.7113 35.3755 92.0056 36.1848C92.4471 37.4356 92.7414 38.6864 92.9621 39.9372C93.2564 42.2181 93.1093 44.5725 92.0056 46.8534C90.6813 49.6492 88.6211 52.3716 86.4874 54.6524C85.3838 55.8296 84.2066 56.9333 82.8822 57.8898C82.22 58.3312 80.3806 59.8027 79.5713 59.582C81.1164 59.9499 83.0294 60.3913 85.0895 61.1271C85.4574 61.2743 85.7517 61.3478 86.1196 61.495C90.4605 63.1872 95.243 66.4982 98.9218 74.1501C99.7311 75.8423 100.54 77.5346 101.203 79.0797C101.865 80.6248 102.453 82.1699 103.042 83.5678C105.029 89.3803 105.985 94.2363 105.47 98.2094Z" fill="#1E242D"/>
<path d="M104.881 101.005C103.115 105.861 98.7745 110.57 93.2563 112.557C91.7847 112.41 90.3868 111.968 89.0624 111.233C93.1091 109.687 95.7579 105.567 96.7879 101.373C97.7444 97.1059 97.3765 92.6914 96.9351 88.3504C94.6542 91.2934 92.2998 94.31 90.0189 97.2531C92.0055 89.9691 93.1827 82.4643 93.4034 74.9595C90.9018 77.1668 87.6645 78.4912 84.3536 78.7119C88.6945 75.7689 90.3868 69.5149 88.2531 64.7325C85.7515 68.8527 82.9556 69.5149 81.2634 70.0299C85.9722 63.7024 84.9422 61.2744 85.0157 61.2008C89.5775 62.8195 94.8749 65.9833 98.848 74.2238C104.587 85.9959 107.015 94.8986 104.881 101.005Z" fill="#484E5E"/>
<path d="M38.4424 69.4413C37.4859 67.7491 36.5294 66.1304 35.6465 64.4382C33.5864 66.0568 32.5563 68.7056 32.3356 71.3543C32.1149 74.0031 32.5563 76.5782 33.0714 79.227C30.9377 77.7554 28.804 76.3575 26.6703 74.886C25.1252 80.4042 25.5666 86.4374 27.921 91.6613C26.2288 90.4105 24.6101 89.1597 22.9179 87.9089C23.8008 89.3069 24.7573 90.7048 25.6402 92.1028C28.5097 96.4438 28.9511 102.036 30.4962 106.892C27.6267 105.199 24.7573 103.507 21.9614 101.815C23.1386 105.126 24.2422 108.437 25.4195 111.674C20.8577 109.393 17.3997 105.273 15.8546 101.005C13.7209 94.8987 16.1489 85.996 21.8878 74.1502C27.6267 62.3045 36.088 60.9065 41.2383 59.6557C40.3554 59.8764 38.516 58.4049 37.9274 57.9635C37.9274 57.9635 37.8538 57.9635 37.8538 57.8899C38.2217 57.8899 38.5896 57.8899 38.8839 57.9635C40.3554 58.037 41.7534 58.2578 41.9005 59.7293C39.1046 62.0102 37.7067 65.9097 38.4424 69.4413Z" fill="#484E5E"/>
<path d="M76.3339 29.3422C76.3339 25.1484 73.2437 21.5431 69.1234 20.8809C62.9431 19.9245 56.6155 19.9245 50.4351 20.8809C46.2413 21.5431 43.2247 25.1484 43.2247 29.3422V44.646C43.2247 49.1342 45.0641 53.4751 48.2278 56.5653C49.8465 58.1104 51.6123 59.8763 53.3046 61.4949C56.9098 65.0266 62.7223 65.0266 66.3276 61.4949L71.4043 56.5653C74.6417 53.4016 76.4075 49.1342 76.4075 44.646V29.3422H76.3339Z" fill="white"/>
<path opacity="0.2" d="M48.5961 42.6594C49.9371 42.6594 51.0241 41.9018 51.0241 40.9672C51.0241 40.0325 49.9371 39.2749 48.5961 39.2749C47.2551 39.2749 46.1681 40.0325 46.1681 40.9672C46.1681 41.9018 47.2551 42.6594 48.5961 42.6594Z" fill="#484E5E"/>
<path d="M55.2914 46.1176C55.2914 46.2647 55.4386 46.3383 55.5857 46.3383C55.5857 46.3383 55.5857 46.3383 55.6593 46.3383C55.8064 46.3383 55.9536 46.1176 55.88 45.9704C55.8064 45.6025 56.1007 45.3818 56.395 45.3818C56.8365 45.3082 57.793 45.3818 57.9401 45.8968C58.0137 46.044 58.1609 46.1176 58.308 46.1176C58.4552 46.044 58.5288 45.8968 58.5288 45.7497C58.2344 44.7932 56.8365 44.7196 56.3215 44.8668C55.5857 44.9404 55.2178 45.4554 55.2914 46.1176Z" fill="#929DB3"/>
<path d="M60.957 45.6761C60.8835 45.8233 60.957 45.9704 61.1778 46.044C61.3249 46.1176 61.4721 46.044 61.5456 45.8233C61.6928 45.3083 62.6493 45.2347 63.0907 45.3083C63.385 45.3818 63.6793 45.529 63.6058 45.8969C63.6058 46.044 63.6794 46.1912 63.8265 46.2647C63.8265 46.2647 63.8265 46.2647 63.9001 46.2647C64.0472 46.2647 64.1944 46.1912 64.1944 46.044C64.3415 45.3818 63.9001 44.8668 63.1643 44.7197C62.6493 44.6461 61.2513 44.7197 60.957 45.6761Z" fill="#929DB3"/>
<path d="M47.7131 36.0375C47.1245 36.4054 46.5359 36.7733 46.0944 37.3619C46.0208 37.509 46.0208 37.6562 46.0944 37.8033C46.168 37.8769 46.2415 37.8769 46.3151 37.8769C46.3887 37.8769 46.4623 37.8769 46.5359 37.8033C47.1245 37.2147 47.7131 36.6997 48.4488 36.4054H48.5224C48.6696 36.4054 48.7431 36.3318 48.8167 36.1847C48.8167 36.1847 48.8167 36.1847 48.8903 36.1847C49.0374 36.1111 49.111 35.9639 49.0374 35.8168C48.9639 35.6696 48.8167 35.5961 48.6696 35.6696C48.596 35.6696 48.5224 35.7432 48.4488 35.7432C47.6395 35.4489 46.9037 35.081 46.3151 34.4188C46.2415 34.2717 46.0208 34.2717 45.8737 34.4188C45.7265 34.4924 45.7265 34.7131 45.8737 34.8603C46.3887 35.4489 46.9773 35.7432 47.7131 36.0375Z" fill="#929DB3"/>
<path d="M52.3486 43.0274C49.8471 44.5725 47.4191 44.5725 45.2118 43.101C45.0646 43.0274 44.9175 43.0274 44.7703 43.1745C44.6967 43.3217 44.6967 43.4689 44.8439 43.616C46.0211 44.4253 47.3455 44.8668 48.5963 44.8668C49.9206 44.8668 51.245 44.4253 52.5694 43.616C52.7165 43.5424 52.7165 43.3217 52.643 43.1745C52.643 43.0274 52.4958 42.9538 52.3486 43.0274Z" fill="#929DB3"/>
<path d="M54.0409 42.5123C54.6295 41.9973 55.0709 41.5558 55.3652 41.2615C55.5124 41.1144 55.4388 40.9672 55.3652 40.8201C55.2181 40.6729 55.0709 40.7465 54.9238 40.8201C54.7031 41.0408 54.2616 41.5558 53.673 41.9973C53.5258 42.0709 53.5258 42.2916 53.673 42.4387C53.7466 42.5123 53.8201 42.5123 53.8937 42.5123C53.8937 42.5859 53.9673 42.5859 54.0409 42.5123Z" fill="#929DB3"/>
<path d="M58.5293 45.3082C58.8972 45.5289 59.1915 45.6025 59.4122 45.6025C59.5594 45.6025 59.6329 45.6025 59.7065 45.6025C59.7801 45.6025 59.8537 45.6025 60.0008 45.6025C60.2215 45.6025 60.5894 45.5289 60.8837 45.3082C61.7666 44.7932 62.6496 43.6895 61.8402 40.5258C61.0309 37.2884 61.4723 33.9775 62.1345 32.7267C62.2081 32.5795 62.1345 32.4324 61.9874 32.3588C61.8402 32.2852 61.6931 32.3588 61.6195 32.506C61.0309 33.7568 60.4423 37.1413 61.3252 40.7465C62.1345 43.9838 61.0309 44.646 60.5894 44.9403C60.148 45.2346 59.7801 45.0875 59.7801 45.0875H59.7065C59.7065 45.0875 59.7065 45.0875 59.6329 45.0875H59.5594C59.5594 45.0875 59.1915 45.2346 58.75 44.9403C58.3086 44.646 57.2049 43.9838 58.0143 40.7465C58.0878 40.5993 57.9407 40.4522 57.7935 40.3786C57.6464 40.305 57.4992 40.4522 57.4257 40.5993C56.7635 43.6895 57.6464 44.7932 58.5293 45.3082Z" fill="#929DB3"/>
<path d="M58.014 37.0677C58.014 37.2148 58.1612 37.362 58.3084 37.362C58.4555 37.362 58.6027 37.2148 58.6027 37.0677C58.6027 35.2283 58.3084 33.4624 57.8669 32.4324C57.7933 32.2852 57.6462 32.2116 57.499 32.2852C57.3519 32.3588 57.2783 32.5059 57.3519 32.6531C57.6462 33.3889 58.014 35.0075 58.014 37.0677Z" fill="#929DB3"/>
<path d="M51.6862 51.8566C49.7732 50.8265 48.5224 49.2078 47.5659 47.8099C47.4923 47.6627 47.2716 47.6627 47.1245 47.7363C46.9773 47.8099 46.9773 48.0306 47.0509 48.1778C48.081 49.6493 49.4053 51.3415 51.3919 52.4452C51.4655 52.4452 51.4655 52.4452 51.539 52.4452C51.6126 52.4452 51.7598 52.3716 51.8333 52.298C51.8333 52.0773 51.8333 51.9302 51.6862 51.8566Z" fill="#929DB3"/>
<path d="M70.669 36.1847C70.7425 36.3319 70.8897 36.4055 70.9633 36.4055H71.0368C71.7726 36.7734 72.3612 37.2148 72.9498 37.8034C73.0234 37.877 73.097 37.877 73.1706 37.877C73.2441 37.877 73.3177 37.877 73.3913 37.8034C73.5384 37.7298 73.5384 37.5091 73.3913 37.362C72.8763 36.8469 72.3612 36.4055 71.7726 36.0376C72.4348 35.7433 73.097 35.3754 73.612 34.7868C73.6856 34.6396 73.6856 34.4925 73.612 34.3453C73.4649 34.2718 73.3177 34.2718 73.1706 34.3453C72.5819 35.0075 71.8462 35.3018 71.0368 35.6697C70.9633 35.6697 70.8897 35.5961 70.8161 35.5961C70.669 35.5226 70.5218 35.5961 70.4482 35.7433C70.4482 35.964 70.5218 36.1112 70.669 36.1847Z" fill="#929DB3"/>
<path d="M74.7158 43.1745C74.6422 43.0273 74.4215 43.0273 74.2743 43.1009C71.9935 44.646 69.639 44.5724 67.1374 43.0273C66.9903 42.9538 66.8431 42.9538 66.696 43.1009C66.6224 43.2481 66.6224 43.3952 66.7696 43.5424C68.0939 44.3517 69.4919 44.7932 70.7427 44.7932C72.067 44.7932 73.3178 44.3517 74.495 43.5424C74.7893 43.4688 74.7893 43.3216 74.7158 43.1745Z" fill="#929DB3"/>
<path d="M64.1205 41.3351C64.3413 41.5558 64.7827 42.0708 65.4449 42.5858C65.5185 42.6594 65.5921 42.6594 65.6656 42.6594C65.7392 42.6594 65.8128 42.6594 65.8864 42.5858C65.9599 42.4387 65.9599 42.2915 65.8864 42.1444C65.2977 41.6294 64.8563 41.1879 64.6356 40.9672C64.4884 40.82 64.3413 40.82 64.1941 40.9672C64.047 40.9672 64.047 41.1143 64.1205 41.3351Z" fill="#929DB3"/>
<path d="M71.9931 47.8098C70.2273 50.4586 67.9465 52.8866 63.679 52.9602C61.9132 52.9602 60.8832 53.0337 60.2945 53.0337H60.221C60.1474 53.0337 60.0738 53.0337 60.0002 53.0337C59.9267 53.0337 59.8531 53.0337 59.7059 53.0337C59.5588 53.0337 59.4852 53.0337 59.4116 53.0337C59.3381 53.0337 59.2645 53.0337 59.1909 53.0337H59.1173C58.5287 53.0337 57.4987 53.0337 55.7328 52.9602C55.1442 52.9602 54.5556 52.8866 53.967 52.813C53.8198 52.813 53.6727 52.8866 53.5991 53.0337C53.5991 53.1809 53.6727 53.328 53.8198 53.4016C54.4085 53.5488 54.9971 53.5488 55.6593 53.6224C57.2043 53.6224 58.1608 53.6959 58.8966 53.6959C59.1909 53.6959 59.4116 53.6959 59.5588 53.6959C59.7059 53.6959 59.9267 53.6959 60.221 53.6959C60.8832 53.6959 61.9132 53.6959 63.4583 53.6224C68.02 53.5488 70.448 50.8265 72.2874 48.2513C72.361 48.1041 72.361 47.957 72.2139 47.8098C72.2139 47.5891 72.0667 47.6627 71.9931 47.8098Z" fill="#929DB3"/>
<path opacity="0.2" d="M70.8893 42.6594C72.2303 42.6594 73.3173 41.9018 73.3173 40.9672C73.3173 40.0325 72.2303 39.2749 70.8893 39.2749C69.5484 39.2749 68.4613 40.0325 68.4613 40.9672C68.4613 41.9018 69.5484 42.6594 70.8893 42.6594Z" fill="#484E5E"/>
<path d="M51.5388 28.7535C52.3482 28.9742 53.1575 29.2685 53.8933 29.6364C54.629 30.0042 55.3648 30.5193 56.027 31.0343C56.3213 31.255 56.7627 31.255 56.9834 30.9607C57.2042 30.6664 57.2042 30.225 56.9099 30.0042C56.1741 29.4156 55.3648 28.9006 54.4819 28.5327C53.5989 28.1648 52.716 27.8705 51.7595 27.797C50.8031 27.6498 49.8466 27.7234 48.8901 28.0177C47.9336 28.312 47.1243 28.827 46.5356 29.5628C46.5356 29.5628 46.5356 29.6364 46.5356 29.7099C46.5356 29.7835 46.6092 29.7835 46.6828 29.7099C47.4186 29.1949 48.2279 28.827 49.0372 28.7535C49.8466 28.5327 50.7295 28.6063 51.5388 28.7535Z" fill="#1E242D"/>
<path d="M55.2916 36.2583C55.6595 36.1112 55.7331 35.6697 55.4388 35.3754C53.8937 34.051 53.1579 33.7567 51.5392 33.9774C49.6998 34.1982 48.3754 35.5225 48.0076 35.964C49.3319 36.7733 50.362 37.0676 51.7599 37.0676C52.7164 37.1412 54.3351 36.6262 55.2916 36.2583Z" fill="#1E242D"/>
<path d="M59.4853 53.4751H57.7931C57.7931 53.4751 58.3817 54.5052 58.2345 55.3881C58.0874 56.271 57.8666 57.4482 57.7931 58.699C57.7195 60.0234 58.2345 60.9799 59.4853 62.3042C60.6625 60.9799 61.2511 59.9498 61.1776 58.699C61.104 57.3746 60.8833 56.271 60.7361 55.3881C60.5889 54.5052 61.1776 53.4751 61.1776 53.4751H59.4853Z" fill="#1E242D"/>
<path d="M73.0231 29.4158C72.4345 28.6801 71.6252 28.165 70.6687 27.8707C69.7122 27.5764 68.7557 27.5764 67.7992 27.65C66.8427 27.7972 65.9598 28.0179 65.0769 28.3858C64.194 28.7536 63.3846 29.2687 62.6489 29.8573C62.3546 30.078 62.281 30.5195 62.5753 30.8138C62.796 31.1081 63.2375 31.1817 63.5318 30.9609C64.194 30.4459 64.9297 30.0044 65.6655 29.563C66.4013 29.1951 67.2106 28.9008 68.0199 28.6801C68.8293 28.5329 69.7122 28.3858 70.5215 28.5329C71.3308 28.6065 72.1402 28.9744 72.8759 29.4894C72.8759 29.4894 72.9495 29.4894 73.0231 29.4894C73.0231 29.563 73.0231 29.4894 73.0231 29.4158Z" fill="#1E242D"/>
<path d="M67.9461 33.9774C66.3274 33.8303 65.5916 34.051 64.0465 35.3754C63.7522 35.5961 63.8258 36.1111 64.1937 36.2583C65.1502 36.5526 66.7688 37.0676 67.7253 37.0676C69.1233 37.0676 70.1533 36.7733 71.4777 35.964C71.1834 35.5225 69.859 34.1981 67.9461 33.9774Z" fill="#1E242D"/>
<path d="M67.7256 48.1039L63.5317 47.9567L61.2509 44.793H59.7793H59.7058H58.2343L55.9534 47.9567L51.7596 48.1039L48.5222 44.793H48.2279L51.0974 49.7226H56.6892L59.7793 46.7059L62.796 49.7226H68.3877L71.2572 44.793H70.9629L67.7256 48.1039Z" fill="#1E242D"/>
<path d="M56.0269 50.9H55.8797V51.7094H56.0269H63.458H63.6788V50.9H63.458H56.0269Z" fill="#1E242D"/>
<path opacity="0.4" d="M92.8884 39.9373H27.8472C28.0679 38.4658 28.5094 36.9942 29.0244 35.5227C29.2451 34.9341 29.4658 34.4191 29.6866 33.8305C30.128 32.7268 30.6431 31.5496 31.1581 30.446C32.1882 28.2387 33.2918 26.105 34.469 24.0449H86.193C87.4438 26.3257 88.6946 28.6066 89.7982 31.0346C90.2397 31.9911 90.6076 32.9476 91.049 33.8305C91.3433 34.6398 91.6376 35.3756 91.9319 36.1849C92.2998 37.4357 92.6677 38.6865 92.8884 39.9373Z" fill="url(#paint1_linear)"/>
<path d="M89.7986 31.0345C78.7622 26.5464 57.6458 21.6903 31.1584 30.5195C32.9243 26.7671 34.9844 23.2354 36.971 19.6302C43.9607 7.26943 52.7898 3.36989 60.3681 3.00201C67.9465 3.36989 76.702 7.26943 83.7653 19.6302C85.8255 23.309 87.9592 27.135 89.7986 31.0345Z" fill="#484E5E"/>
<path d="M69.4912 63.5551V76.2838C69.4912 76.8724 68.9762 77.3874 68.3876 77.3874C67.799 77.3874 67.2839 76.8724 67.2839 76.2838V63.5551C67.2839 63.4816 67.2839 63.408 67.2839 63.3344H69.4912C69.4912 63.3344 69.4912 63.408 69.4912 63.5551Z" fill="#98A1AB"/>
<path d="M49.9938 63.2607V68.7054C49.9938 69.294 49.4787 69.809 48.8901 69.809C48.3015 69.809 47.7865 69.294 47.7865 68.7054V63.2607H49.9938Z" fill="#98A1AB"/>
<path d="M89.8438 76H30.3943C28.4078 76 26.8627 77.6923 27.0098 79.6052L29.3643 114.995C29.5114 116.908 31.0565 118.38 32.9695 118.38H87.3422C89.2552 118.38 90.8003 116.908 90.9474 114.995L93.3019 79.6052C93.3754 77.6923 91.8303 76 89.8438 76Z" fill="#70778A"/>
<path d="M54.2376 101.376C54.4583 102.259 54.3848 103.068 53.5018 103.51C52.4718 104.172 51.221 103.51 51.0738 102.333C51.0738 102.038 50.9267 101.744 50.7795 101.597C49.8966 100.861 49.7495 99.9783 50.4116 99.169C51.0738 98.4332 52.1039 98.4332 52.9132 99.169C52.9868 99.2425 53.0604 99.3161 53.134 99.4633C53.9433 99.0218 54.6791 98.5804 55.4148 98.2125C56.1506 97.771 56.8863 97.4031 57.7693 96.8881C56.2977 96.0788 54.9734 95.2694 53.5754 94.5337C53.4283 94.4601 53.2075 94.6072 53.0604 94.7544C52.251 95.343 51.221 95.2694 50.6324 94.4601C50.0438 93.7243 50.2645 92.8414 51.0738 92.1792C51.221 92.0321 51.3681 91.8849 51.3681 91.6642C51.5153 90.4134 52.1775 89.8248 53.2075 90.0455C54.2376 90.2663 54.6791 91.1492 54.4583 92.2528C54.4583 92.3264 54.4583 92.4 54.3848 92.5471C56.077 93.5036 57.8428 94.5337 59.5351 95.4902C59.6822 95.5637 60.0501 95.5637 60.1973 95.4902C61.9631 94.5337 63.6553 93.5772 65.4212 92.5471C65.3476 92.3264 65.3476 92.1792 65.274 91.9585C65.1269 91.0756 65.7155 90.1927 66.5984 90.0455C67.5549 89.8984 68.2906 90.487 68.4378 91.5171C68.4378 91.7378 68.5849 92.1057 68.7321 92.2528C69.5414 92.915 69.6886 93.7979 69.1 94.5337C68.5114 95.2694 67.5549 95.4166 66.7455 94.828C66.5984 94.7544 66.5248 94.6072 66.3041 94.4601C64.8326 95.2694 63.4346 96.0788 61.8895 96.9617C63.5082 97.8446 65.0533 98.7275 66.7455 99.684C66.8927 99.5368 66.9663 99.2425 67.187 99.0954C67.9228 98.5068 68.8792 98.6539 69.4678 99.3897C70.0565 100.125 69.9093 101.082 69.1735 101.671C68.9528 101.818 68.8057 102.186 68.7321 102.406C68.5849 103.363 67.9228 103.951 66.9663 103.878C66.0834 103.804 65.3476 102.995 65.4947 102.112C65.5683 101.597 65.4212 101.376 64.9797 101.156C63.361 100.273 61.7424 99.3161 60.1237 98.4332C59.903 98.2861 59.5351 98.2861 59.3144 98.3596C57.8428 99.3161 56.077 100.346 54.2376 101.376Z" fill="white"/>
<defs>
<linearGradient id="paint0_linear" x1="107.989" y1="15.4251" x2="110.544" y2="15.4251" gradientUnits="userSpaceOnUse">
<stop offset="0.00289017" stop-color="#FFD44F"/>
<stop offset="1" stop-color="#FFA607"/>
</linearGradient>
<linearGradient id="paint1_linear" x1="60.3455" y1="39.303" x2="60.3455" y2="25.8155" gradientUnits="userSpaceOnUse">
<stop offset="0.00289017" stop-color="#323C52" stop-opacity="0"/>
<stop offset="1" stop-color="#031645"/>
</linearGradient>
</defs>
</svg>
