<svg width="120" height="105" viewBox="0 0 120 105" fill="none" xmlns="http://www.w3.org/2000/svg">
<path d="M9.86794 36.5099C11.0698 36.1171 11.7275 34.8192 11.3368 33.6109C10.9462 32.4025 9.65518 31.7414 8.4533 32.1341C7.25142 32.5268 6.59378 33.8248 6.98442 35.0331C7.37506 36.2414 8.66606 36.9026 9.86794 36.5099Z" fill="#2A2E38"/>
<path d="M16.1961 17.527C16.8211 17.3227 17.163 16.6478 16.9599 16.0195C16.7568 15.3911 16.0855 15.0473 15.4605 15.2516C14.8355 15.4558 14.4935 16.1307 14.6967 16.759C14.8998 17.3874 15.5711 17.7312 16.1961 17.527Z" fill="#2A2E38"/>
<path d="M7.87183 70.7669C8.17515 70.7669 8.42103 70.5197 8.42103 70.2148C8.42103 69.9098 8.17515 69.6626 7.87183 69.6626C7.56852 69.6626 7.32263 69.9098 7.32263 70.2148C7.32263 70.5197 7.56852 70.7669 7.87183 70.7669Z" fill="url(#paint0_linear)"/>
<path d="M108.101 64.6011C108.505 64.6011 108.833 64.2715 108.833 63.8649C108.833 63.4583 108.505 63.1287 108.101 63.1287C107.696 63.1287 107.368 63.4583 107.368 63.8649C107.368 64.2715 107.696 64.6011 108.101 64.6011Z" fill="url(#paint1_linear)"/>
<path d="M111.29 43.432C112.708 42.1292 112.807 39.9172 111.511 38.4915C110.215 37.0659 108.015 36.9663 106.597 38.2691C105.179 39.572 105.08 41.7839 106.376 43.2096C107.672 44.6353 109.872 44.7349 111.29 43.432Z" fill="#2A2E38"/>
<path d="M56.5675 105C81.692 105 102.059 84.5232 102.059 59.2638C102.059 34.0044 81.692 13.5276 56.5675 13.5276C31.443 13.5276 11.0755 34.0044 11.0755 59.2638C11.0755 84.5232 31.443 105 56.5675 105Z" fill="#2A2E38"/>
<path d="M104.348 90.4602V92.9449C104.348 95.2455 102.426 97.086 100.046 97.086H12.5401C10.1602 97.086 8.23804 95.2455 8.23804 92.9449V90.4602H104.348Z" fill="#102030"/>
<path d="M99.4051 90.4601H13.0893V35.5214C13.0893 33.7729 14.4623 32.3926 16.2014 32.3926H96.2014C97.9405 32.3926 99.3135 33.7729 99.3135 35.5214L99.4051 90.4601Z" fill="#464D5F"/>
<path opacity="0.6" d="M94.6452 38.8344C94.6452 38.5583 94.4622 38.3743 94.2791 38.3743H89.1532C88.9702 38.3743 88.7871 38.5583 88.7871 38.8344V39.2025H17.9404V39.8467H88.6956V40.2148C88.6956 40.4908 88.8786 40.6749 89.0617 40.6749H94.1876C94.3706 40.6749 94.5537 40.4908 94.5537 40.2148V38.8344H94.6452Z" fill="#617081"/>
<path opacity="0.6" d="M94.6452 49.9696C94.6452 49.6936 94.4622 49.5095 94.2791 49.5095H89.1532C88.9702 49.5095 88.7871 49.6936 88.7871 49.9696V50.3377H17.9404V50.9819H88.6956V51.35C88.6956 51.6261 88.8786 51.8101 89.0617 51.8101H94.1876C94.3706 51.8101 94.5537 51.6261 94.5537 51.35V49.9696H94.6452Z" fill="#617081"/>
<path opacity="0.6" d="M94.6452 61.0124C94.6452 60.7363 94.4622 60.5522 94.2791 60.5522H89.1532C88.9702 60.5522 88.7871 60.7363 88.7871 61.0124V61.3805H17.9404V62.0246H88.6956V62.3927C88.6956 62.6688 88.8786 62.8529 89.0617 62.8529H94.1876C94.3706 62.8529 94.5537 62.6688 94.5537 62.3927V61.0124H94.6452Z" fill="#617081"/>
<path opacity="0.6" d="M94.6452 72.1474C94.6452 71.8713 94.4622 71.6873 94.2791 71.6873H89.1532C88.9702 71.6873 88.7871 71.8713 88.7871 72.1474V72.5155H17.9404V73.1596H88.6956V73.5277C88.6956 73.8038 88.8786 73.9879 89.0617 73.9879H94.1876C94.3706 73.9879 94.5537 73.8038 94.5537 73.5277V72.1474H94.6452Z" fill="#617081"/>
<path d="M75.2447 70.168L77.2584 70.168L77.2584 68.0514L75.2447 68.0514L75.2447 70.168Z" fill="#FC564E"/>
<path d="M89.5194 63.4974H91.5331V61.3809H89.5194V63.4974Z" fill="url(#paint2_linear)"/>
<path d="M72.4943 69.9387H74.4165V61.5645H72.4943V69.9387Z" fill="#35E09D"/>
<path d="M69.6567 61.5646H71.5789V58.2517H69.6567V61.5646Z" fill="#35E09D"/>
<path d="M66.8191 60.2763H68.7413V58.2517H66.8191V60.2763Z" fill="url(#paint3_linear)"/>
<path d="M63.9816 63.3129H65.9038V60.092H63.9816V63.3129Z" fill="url(#paint4_linear)"/>
<path d="M61.144 63.4051H63.0662V58.4358H61.144V63.4051Z" fill="#35E09D"/>
<path d="M58.3066 58.6199H60.2288V57.1475H58.3066V58.6199Z" fill="url(#paint5_linear)"/>
<path d="M55.4691 57.0556H57.3913V52.4543H55.4691V57.0556Z" fill="#35E09D"/>
<path d="M52.6315 57.1474H54.5537V53.8345H52.6315V57.1474Z" fill="url(#paint6_linear)"/>
<path d="M49.7939 53.4665H51.7161V51.9941H49.7939V53.4665Z" fill="url(#paint7_linear)"/>
<path d="M46.9564 52.1783H48.8786V45.5525H46.9564V52.1783Z" fill="#35E09D"/>
<path d="M86.6819 58.6199H88.6956V63.1291H86.6819V58.6199Z" fill="#35E09D"/>
<path d="M83.8444 58.4358H85.8581V61.8407H83.8444V58.4358Z" fill="url(#paint8_linear)"/>
<path d="M81.0067 62.1169H83.0204V63.5893H81.0067V62.1169Z" fill="url(#paint9_linear)"/>
<path d="M78.1692 63.4053H80.1829V70.1231H78.1692V63.4053Z" fill="#35E09D"/>
<path d="M44.1189 46.4727H46.0411V45.5525H44.1189V46.4727Z" fill="url(#paint10_linear)"/>
<path d="M41.2815 48.2211H43.2037V46.4727H41.2815V48.2211Z" fill="#35E09D"/>
<path d="M38.4438 48.2211H40.366V43.6199H38.4438V48.2211Z" fill="#35E09D"/>
<path d="M35.6063 45.3683H37.5285V43.6199H35.6063V45.3683Z" fill="url(#paint11_linear)"/>
<path d="M32.7688 45.0002H34.691V43.6199H32.7688V45.0002Z" fill="#35E09D"/>
<path d="M29.9313 51.718H31.8535V43.6199H29.9313V51.718Z" fill="#35E09D"/>
<path d="M27.0938 59.4482H29.0159V51.2581H27.0938V59.4482Z" fill="#35E09D"/>
<path d="M24.2562 62.1169H26.1784V60.2764H24.2562V62.1169Z" fill="url(#paint12_linear)"/>
<path d="M21.4187 62.1168H23.3409V57.1475H21.4187V62.1168Z" fill="#35E09D"/>
<path d="M18.5812 57.2396H20.5034V53.9268H18.5812V57.2396Z" fill="url(#paint13_linear)"/>
<path d="M104.348 90.4602C104.348 92.7608 102.426 94.6013 100.046 94.6013H12.5401C10.1602 94.6013 8.23804 92.7608 8.23804 90.4602H47.7804C48.1465 91.3805 49.0618 92.0246 50.0687 92.0246H62.4257C63.5241 92.0246 64.4394 91.3805 64.714 90.4602H104.348Z" fill="#464D5F"/>
<path d="M58.7643 76.6562C58.5812 76.1961 58.2151 76.0121 57.7574 76.1041C51.0755 77.3004 40.8238 78.0366 50.7093 69.9384C60.4119 61.9323 68.6498 50.0611 74.2334 40.5826C74.3249 40.4906 74.4164 40.2145 74.5995 39.8464C74.691 39.7544 74.691 39.6624 74.7826 39.6624C74.8741 39.6624 74.9656 39.6624 75.0572 39.7544C76.4302 41.0427 78.0778 41.963 79.9084 42.3311C80 42.3311 80.0915 42.4231 80.0915 42.5151C80.0915 42.6071 80.0915 42.7912 80 42.8832C79.8169 43.2513 79.6338 43.5274 79.6338 43.6194C74.7826 53.466 69.199 66.8096 67.7345 79.3249C66.1785 92.0243 61.4187 83.0059 58.7643 76.6562Z" fill="url(#paint14_linear)"/>
<path d="M64.4393 80.153C63.7071 78.8647 61.8764 81.3493 60.6865 78.4966L57.0251 77.1162L55.6522 75.8279C52.6316 76.38 53.3638 73.1591 51.8993 73.2512C52.0824 73.0671 52.2654 72.9751 52.4485 72.791C62.151 64.7849 70.2059 53.3739 75.7895 44.2634L76.064 44.4475C71.3959 54.018 66.0869 67.0855 64.6224 79.6009C64.5309 79.6929 64.4393 79.969 64.4393 80.153Z" fill="white"/>
<path d="M37.8947 71.6868C37.8947 76.196 34.2334 79.877 29.7483 79.877C27.4599 79.877 25.4462 78.9567 23.9817 77.4843C22.5171 76.0119 21.6018 73.9874 21.6018 71.6868C21.6018 67.1776 25.2631 63.4966 29.7483 63.4966C31.0297 63.4966 32.1281 63.7727 33.2265 64.3248C35.9725 65.6131 37.8947 68.4659 37.8947 71.6868Z" fill="#74849B"/>
<path d="M35.6064 70.1219C35.6064 74.6311 31.9451 78.3121 27.4599 78.3121C26.1785 78.3121 25.0801 78.036 23.9817 77.5759C22.5171 76.1035 21.6018 74.0789 21.6018 71.7783C21.6018 67.2691 25.2631 63.5881 29.7483 63.5881C31.0297 63.5881 32.1281 63.8642 33.2265 64.4164C34.691 65.7967 35.6064 67.8213 35.6064 70.1219Z" fill="#A7AEC0"/>
<path d="M43.7529 69.7544C43.7529 74.2636 40.0915 77.9446 35.6064 77.9446C33.3181 77.9446 31.3044 77.0243 29.8398 75.5519C28.3753 73.9875 27.46 71.963 27.46 69.7544C27.46 65.2452 31.1213 61.5642 35.6064 61.5642C36.8879 61.5642 37.9863 61.8403 39.0847 62.3924C41.8307 63.5888 43.7529 66.4415 43.7529 69.7544Z" fill="#74849B"/>
<path d="M41.4645 68.098C41.4645 72.6072 37.8032 76.2881 33.3181 76.2881C32.0366 76.2881 30.9382 76.0121 29.8398 75.5519C28.3753 73.9875 27.46 71.963 27.46 69.7544C27.46 65.2452 31.1213 61.5642 35.6064 61.5642C36.8879 61.5642 37.9863 61.8403 39.0847 62.3924C40.5492 63.7728 41.4645 65.7973 41.4645 68.098Z" fill="#A7AEC0"/>
<path d="M52.6315 73.9871C52.6315 76.9319 50.2517 79.3245 47.2311 79.3245C45.7666 79.3245 44.3936 78.6803 43.3867 77.7601C42.3798 76.7478 41.8306 75.4595 41.8306 73.9871C41.8306 71.0423 44.2105 68.5576 47.2311 68.5576C48.0549 68.5576 48.7871 68.7417 49.5194 69.1098C51.3501 69.938 52.6315 71.7785 52.6315 73.9871Z" fill="#74849B"/>
<path d="M51.0754 72.8832C51.0754 75.828 48.6956 78.2207 45.7665 78.2207C44.9427 78.2207 44.2104 78.0366 43.4782 77.6685C42.4713 76.6563 41.9221 75.3679 41.9221 73.8955C41.9221 70.9507 44.302 68.4661 47.3226 68.4661C48.1464 68.4661 48.8786 68.6501 49.6109 69.0182C50.4347 70.0305 51.0754 71.4108 51.0754 72.8832Z" fill="#A7AEC0"/>
<path d="M78.0778 73.5271C78.0778 76.4719 75.6979 78.8645 72.6773 78.8645C71.2128 78.8645 69.8398 78.2204 68.8329 77.3001C67.8261 76.2878 67.2769 74.9995 67.2769 73.5271C67.2769 70.5823 69.6567 68.0977 72.6773 68.0977C73.5011 68.0977 74.2334 68.2817 74.9656 68.6498C76.7963 69.57 78.0778 71.4105 78.0778 73.5271Z" fill="#74849B"/>
<path d="M76.5217 72.5148C76.5217 75.4596 74.1419 77.8523 71.2128 77.8523C70.389 77.8523 69.6567 77.6682 68.9245 77.3001C67.9176 76.2878 67.3684 74.9995 67.3684 73.5271C67.3684 70.5823 69.7483 68.0977 72.7689 68.0977C73.5927 68.0977 74.3249 68.2817 75.0572 68.6498C75.9725 69.6621 76.5217 70.9504 76.5217 72.5148Z" fill="#A7AEC0"/>
<path d="M87.9634 72.3309C87.9634 76.564 84.5766 79.9689 80.3661 79.9689C78.2609 79.9689 76.3387 79.1407 74.9657 77.6683C73.5927 76.288 72.7689 74.3554 72.7689 72.2389C72.7689 68.0057 76.1556 64.6008 80.3661 64.6008C81.556 64.6008 82.6544 64.8769 83.6613 65.337C86.1327 66.6254 87.9634 69.2941 87.9634 72.3309Z" fill="#74849B"/>
<path d="M85.7666 70.858C85.7666 75.0912 82.3799 78.4961 78.1694 78.4961C76.9794 78.4961 75.881 78.22 74.8742 77.7599C73.5012 76.3795 72.6774 74.447 72.6774 72.3304C72.6774 68.0973 76.0641 64.6924 80.2746 64.6924C81.4645 64.6924 82.563 64.9685 83.5698 65.4286C84.9428 66.8089 85.7666 68.7415 85.7666 70.858Z" fill="#A7AEC0"/>
<path d="M52.4485 78.9568C52.4485 83.466 48.7872 87.147 44.3021 87.147C42.0138 87.147 40 86.2267 38.5355 84.7543C37.071 83.2819 36.1556 81.2574 36.1556 78.9568C36.1556 74.4476 39.817 70.7666 44.3021 70.7666C45.5836 70.7666 46.682 71.0427 47.7804 71.5948C50.6179 72.8832 52.4485 75.6439 52.4485 78.9568Z" fill="#74849B"/>
<path d="M50.1602 77.3003C50.1602 81.8096 46.4989 85.4905 42.0138 85.4905C40.7323 85.4905 39.6339 85.2145 38.5355 84.7543C37.071 83.2819 36.1556 81.2574 36.1556 78.9568C36.1556 74.4476 39.817 70.7666 44.3021 70.7666C45.5836 70.7666 46.682 71.0427 47.7804 71.5948C49.2449 73.0672 50.1602 75.0918 50.1602 77.3003Z" fill="#A7AEC0"/>
<path d="M74.5995 80.061C74.5995 84.5702 70.9382 88.2512 66.453 88.2512C64.1647 88.2512 62.151 87.331 60.6864 85.8586C59.2219 84.3862 58.3066 82.3617 58.3066 80.061C58.3066 75.5518 61.9679 71.8708 66.453 71.8708C67.7345 71.8708 68.8329 72.1469 69.9313 72.6991C72.6773 73.8954 74.5995 76.7482 74.5995 80.061Z" fill="#74849B"/>
<path d="M72.2197 78.4046C72.2197 82.9138 68.5583 86.5948 64.0732 86.5948C62.7917 86.5948 61.6933 86.3187 60.5949 85.8586C59.1304 84.3862 58.2151 82.3617 58.2151 80.061C58.2151 75.5518 61.8764 71.8708 66.3615 71.8708C67.643 71.8708 68.7414 72.1469 69.8398 72.6991C71.3959 74.0794 72.2197 76.104 72.2197 78.4046Z" fill="url(#paint15_linear)"/>
<path d="M34.5995 81.2573C34.5995 85.7665 30.9382 89.4475 26.4531 89.4475C24.1648 89.4475 22.151 88.5273 20.6865 87.0549C19.1304 85.5825 18.3066 83.5579 18.3066 81.2573C18.3066 76.7481 21.968 73.0671 26.4531 73.0671C27.7346 73.0671 28.833 73.3432 29.9314 73.8954C32.6773 75.1837 34.5995 78.0365 34.5995 81.2573Z" fill="#74849B"/>
<path d="M32.2197 79.6009C32.2197 84.1101 28.5584 87.7911 24.0732 87.7911C22.7918 87.7911 21.6934 87.515 20.595 87.0549C19.1304 85.5825 18.3066 83.5579 18.3066 81.2573C18.3066 76.7481 21.968 73.0671 26.4531 73.0671C27.7346 73.0671 28.833 73.3432 29.9314 73.8954C31.3959 75.3678 32.2197 77.3923 32.2197 79.6009Z" fill="#74849B"/>
<path d="M79.7254 81.3491C79.7254 85.8583 76.0641 89.5393 71.5789 89.5393C69.2906 89.5393 67.2769 88.6191 65.8124 87.1467C64.3478 85.6743 63.4325 83.6497 63.4325 81.3491C63.4325 76.8399 67.0938 73.1589 71.5789 73.1589C72.8604 73.1589 73.9588 73.435 75.0572 73.9872C77.8032 75.2755 79.7254 78.1283 79.7254 81.3491Z" fill="#74849B"/>
<path d="M77.4371 79.7845C77.4371 84.2937 73.7758 87.9747 69.2907 87.9747C68.0092 87.9747 66.9108 87.6986 65.8124 87.2385C64.3479 85.7661 63.4326 83.7415 63.4326 81.4409C63.4326 76.9317 67.0939 73.2507 71.579 73.2507C72.8605 73.2507 73.9589 73.5268 75.0573 74.079C76.5218 75.4593 77.4371 77.4839 77.4371 79.7845Z" fill="#74849B"/>
<path d="M62.4256 80.521C62.4256 85.0302 58.7643 88.7112 54.2791 88.7112C51.9908 88.7112 49.9771 87.7909 48.5126 86.3185C47.048 84.8462 46.1327 82.8216 46.1327 80.521C46.1327 76.0118 49.794 72.3308 54.2791 72.3308C55.5606 72.3308 56.659 72.6069 57.7574 73.159C60.5949 74.4474 62.4256 77.3001 62.4256 80.521Z" fill="#74849B"/>
<path d="M60.1373 78.8646C60.1373 83.3738 56.4759 87.0547 51.9908 87.0547C50.7093 87.0547 49.6109 86.7787 48.5126 86.3186C47.048 84.8462 46.1327 82.8216 46.1327 80.521C46.1327 76.0118 49.794 72.3308 54.2791 72.3308C55.5606 72.3308 56.659 72.6069 57.7574 73.159C59.2219 74.6314 60.1373 76.656 60.1373 78.8646Z" fill="#A7AEC0"/>
<path d="M80.1831 80.3369C80.1831 83.3737 77.7117 85.7664 74.7827 85.7664C73.3181 85.7664 71.9451 85.1222 70.9383 84.1099C69.9314 83.0976 69.3822 81.7173 69.3822 80.2449C69.3822 77.2081 71.8536 74.8154 74.7827 74.8154C75.6065 74.8154 76.4303 74.9995 77.071 75.3676C78.9016 76.2878 80.1831 78.1283 80.1831 80.3369Z" fill="#74849B"/>
<path d="M78.6271 79.2326C78.6271 82.2694 76.1557 84.6621 73.2266 84.6621C72.4028 84.6621 71.579 84.478 70.9383 84.1099C69.9314 83.0976 69.3822 81.7173 69.3822 80.2449C69.3822 77.2081 71.8536 74.8154 74.7827 74.8154C75.6065 74.8154 76.4303 74.9995 77.071 75.3676C77.9863 76.3798 78.6271 77.7602 78.6271 79.2326Z" fill="#A7AEC0"/>
<path d="M91.9909 86.1345C91.9909 89.1713 89.5195 91.564 86.5904 91.564C85.1259 91.564 83.7529 90.9198 82.746 89.9075C81.7391 88.8952 81.1899 87.5149 81.1899 86.0425C81.1899 83.0057 83.6613 80.613 86.5904 80.613C87.4142 80.613 88.238 80.7971 88.8787 81.1652C90.7094 82.0854 91.9909 83.9259 91.9909 86.1345Z" fill="#74849B"/>
<path d="M90.4348 85.0302C90.4348 88.067 87.9634 90.4597 85.0343 90.4597C84.2105 90.4597 83.3867 90.2756 82.746 89.9075C81.7391 88.8952 81.1899 87.5149 81.1899 86.0425C81.1899 83.0057 83.6613 80.613 86.5904 80.613C87.4142 80.613 88.238 80.7971 88.8787 81.1652C89.8856 82.1775 90.4348 83.5578 90.4348 85.0302Z" fill="#74849B"/>
<path d="M22.9749 84.6621C22.9749 87.6989 20.5035 90.0916 17.5744 90.0916C16.1099 90.0916 14.7369 89.4474 13.73 88.4351C12.7231 87.4228 12.174 86.0425 12.174 84.5701C12.174 81.5333 14.6453 79.1406 17.5744 79.1406C18.3982 79.1406 19.222 79.3247 19.8627 79.6928C21.6934 80.613 22.9749 82.5455 22.9749 84.6621Z" fill="#74849B"/>
<path d="M21.4188 83.5578C21.4188 86.5946 18.9474 88.9873 16.0183 88.9873C15.1945 88.9873 14.3707 88.8032 13.73 88.4351C12.7231 87.4228 12.174 86.0425 12.174 84.5701C12.174 81.5333 14.6453 79.1406 17.5744 79.1406C18.3982 79.1406 19.222 79.3247 19.8627 79.6928C20.7781 80.705 21.4188 82.0854 21.4188 83.5578Z" fill="#A7AEC0"/>
<path d="M23.4325 79.5088C23.4325 82.5456 20.9611 84.9382 18.032 84.9382C16.5675 84.9382 15.1945 84.2941 14.1877 83.2818C13.1808 82.2695 12.6316 80.8891 12.6316 79.4168C12.6316 76.3799 15.103 73.9873 18.032 73.9873C18.8558 73.9873 19.6796 74.1714 20.3204 74.5395C22.151 75.4597 23.4325 77.3002 23.4325 79.5088Z" fill="#74849B"/>
<path d="M21.8764 78.4045C21.8764 81.4413 19.405 83.8339 16.476 83.8339C15.6522 83.8339 14.8284 83.6499 14.1877 83.2818C13.1808 82.2695 12.6316 80.8891 12.6316 79.4168C12.6316 76.3799 15.103 73.9873 18.032 73.9873C18.8558 73.9873 19.6796 74.1714 20.3204 74.5395C21.2357 75.5517 21.8764 76.9321 21.8764 78.4045Z" fill="#A7AEC0"/>
<path d="M96.476 77.6684C96.476 80.7053 94.0046 83.0979 91.0755 83.0979C89.611 83.0979 88.238 82.4537 87.2311 81.4415C86.2243 80.4292 85.675 79.0488 85.675 77.5764C85.675 74.5396 88.1464 72.147 91.0755 72.147C91.8993 72.147 92.7231 72.331 93.3638 72.6991C95.286 73.6194 96.476 75.4599 96.476 77.6684Z" fill="#74849B"/>
<path d="M95.0114 76.5641C95.0114 79.601 92.54 81.9936 89.6109 81.9936C88.7871 81.9936 87.9633 81.8096 87.3226 81.4415C86.3157 80.4292 85.7665 79.0488 85.7665 77.5764C85.7665 74.5396 88.2379 72.147 91.167 72.147C91.9908 72.147 92.8146 72.331 93.4553 72.6991C94.3707 73.7114 95.0114 75.0918 95.0114 76.5641Z" fill="#74849B"/>
<path d="M86.9565 82.8217C86.9565 86.0426 84.302 88.7113 81.0984 88.7113C79.4508 88.7113 77.9862 88.0671 76.9794 86.9628C75.9725 85.8585 75.2402 84.4781 75.2402 82.8217C75.2402 79.6008 77.8947 76.9321 81.0984 76.9321C82.0137 76.9321 82.8375 77.1162 83.5698 77.4843C85.675 78.4045 86.9565 80.4291 86.9565 82.8217Z" fill="#74849B"/>
<path d="M85.3089 81.6254C85.3089 84.8462 82.6544 87.515 79.4508 87.515C78.5354 87.515 77.7116 87.3309 76.9794 86.9628C75.9725 85.8585 75.2402 84.4781 75.2402 82.8217C75.2402 79.6008 77.8947 76.9321 81.0984 76.9321C82.0137 76.9321 82.8375 77.1162 83.5698 77.4843C84.6682 78.5886 85.3089 80.061 85.3089 81.6254Z" fill="#74849B"/>
<path d="M104.439 83.8342C104.439 87.055 101.785 89.7237 98.5813 89.7237C96.9337 89.7237 95.4691 89.0796 94.4623 87.9753C93.4554 86.871 92.7231 85.4906 92.7231 83.8342C92.7231 80.6133 95.3776 77.9446 98.5813 77.9446C99.4966 77.9446 100.32 78.1286 101.053 78.4967C103.066 79.417 104.439 81.4415 104.439 83.8342Z" fill="#74849B"/>
<path d="M102.792 82.6378C102.792 85.8587 100.137 88.5274 96.9337 88.5274C96.0183 88.5274 95.1945 88.3434 94.4623 87.9753C93.4554 86.871 92.7231 85.4906 92.7231 83.8342C92.7231 80.6133 95.3776 77.9446 98.5813 77.9446C99.4966 77.9446 100.32 78.1286 101.053 78.4967C102.151 79.509 102.792 80.9814 102.792 82.6378Z" fill="#A7AEC0"/>
<path d="M43.936 81.3491C43.936 85.0301 40.9154 88.0669 37.2541 88.0669C35.4234 88.0669 33.6843 87.3307 32.4943 86.0424C31.3044 84.8461 30.5721 83.1896 30.5721 81.3491C30.5721 77.6682 33.5927 74.6313 37.2541 74.6313C38.2609 74.6313 39.2678 74.9074 40.0916 75.2755C42.3799 76.3798 43.936 78.6804 43.936 81.3491Z" fill="#74849B"/>
<path d="M42.0137 80.0606C42.0137 83.7416 38.9931 86.7784 35.3318 86.7784C34.3249 86.7784 33.3181 86.5023 32.4943 86.1342C31.3043 84.9379 30.5721 83.2814 30.5721 81.4409C30.5721 77.76 33.5927 74.7231 37.254 74.7231C38.2609 74.7231 39.2677 74.9992 40.0915 75.3673C41.2815 76.5636 42.0137 78.2201 42.0137 80.0606Z" fill="#A7AEC0"/>
<path d="M35.3318 84.9384C35.3318 88.1593 32.7689 90.736 29.5652 90.736C28.0091 90.736 26.5446 90.0918 25.5377 89.0795C24.5309 88.0673 23.8901 86.5949 23.8901 85.0305C23.8901 81.8096 26.4531 79.2329 29.6567 79.2329C30.5721 79.2329 31.3959 79.417 32.1281 79.7851C33.9588 80.6133 35.3318 82.6378 35.3318 84.9384Z" fill="#74849B"/>
<path d="M33.6842 83.8339C33.6842 87.0548 31.1212 89.6314 27.9176 89.6314C27.0022 89.6314 26.1784 89.4474 25.4462 89.0793C24.4393 88.067 23.7986 86.5946 23.7986 85.0302C23.7986 81.8094 26.3615 79.2327 29.5652 79.2327C30.4805 79.2327 31.3043 79.4167 32.0366 79.7848C33.0434 80.7971 33.6842 82.1775 33.6842 83.8339Z" fill="#74849B"/>
<path d="M26.8192 85.8586C26.8192 89.0795 24.2563 91.6561 21.0526 91.6561C19.4966 91.6561 18.032 91.012 17.0252 89.9997C16.0183 88.9874 15.3776 87.515 15.3776 85.9506C15.3776 82.7298 17.9405 80.1531 21.1442 80.1531C22.0595 80.1531 22.8833 80.3371 23.6155 80.7052C25.5377 81.5334 26.8192 83.558 26.8192 85.8586Z" fill="#74849B"/>
<path d="M25.2631 84.7543C25.2631 87.9752 22.7002 90.5519 19.4966 90.5519C18.5812 90.5519 17.7574 90.3678 17.0252 89.9997C16.0183 88.9874 15.3776 87.515 15.3776 85.9506C15.3776 82.7298 17.9405 80.1531 21.1442 80.1531C22.0595 80.1531 22.8833 80.3371 23.6155 80.7052C24.6224 81.7175 25.2631 83.0979 25.2631 84.7543Z" fill="#A7AEC0"/>
<path d="M51.2585 83.6499C51.2585 88.1591 47.5972 91.8401 43.112 91.8401C40.8237 91.8401 38.81 90.9198 37.3454 89.4474C35.8809 87.9751 34.9656 85.9505 34.9656 83.6499C34.9656 79.1407 38.6269 75.4597 43.112 75.4597C44.3935 75.4597 45.4919 75.7358 46.5903 76.2879C49.3363 77.5763 51.2585 80.337 51.2585 83.6499Z" fill="#74849B"/>
<path d="M48.9702 81.9935C48.9702 86.5027 45.3088 90.1837 40.8237 90.1837C39.5422 90.1837 38.4438 89.9076 37.3454 89.4475C35.8809 87.9751 34.9656 85.9505 34.9656 83.6499C34.9656 79.1407 38.6269 75.4597 43.112 75.4597C44.3935 75.4597 45.4919 75.7358 46.5903 76.2879C48.0548 77.6683 48.9702 79.7849 48.9702 81.9935Z" fill="#A7AEC0"/>
<path d="M29.7482 80.1531C29.7482 84.6623 26.0869 88.3433 21.6018 88.3433C19.3134 88.3433 17.2997 87.423 15.8352 85.9506C14.3707 84.4782 13.4553 82.4537 13.4553 80.1531C13.4553 75.6439 17.1166 71.9629 21.6018 71.9629C22.8832 71.9629 23.9816 72.239 25.08 72.7911C27.826 74.0795 29.7482 76.9322 29.7482 80.1531Z" fill="#74849B"/>
<path d="M27.4599 78.5884C27.4599 83.0976 23.7986 86.7786 19.3134 86.7786C18.032 86.7786 16.9336 86.5025 15.8352 86.0424C14.3707 84.57 13.4553 82.5455 13.4553 80.2449C13.4553 75.7357 17.1166 72.0547 21.6018 72.0547C22.8832 72.0547 23.9816 72.3308 25.08 72.8829C26.5446 74.2633 27.4599 76.2878 27.4599 78.5884Z" fill="#A7AEC0"/>
<path d="M61.6933 83.374C61.6933 87.8832 58.032 91.5642 53.5468 91.5642C51.2585 91.5642 49.2448 90.644 47.7803 89.1716C46.3157 87.6992 45.4004 85.6746 45.4004 83.374C45.4004 78.8648 49.0617 75.1838 53.5468 75.1838C54.8283 75.1838 55.9267 75.4599 57.0251 76.0121C59.7711 77.3004 61.6933 80.1532 61.6933 83.374Z" fill="#74849B"/>
<path d="M59.405 81.8094C59.405 86.3186 55.7437 89.9996 51.2586 89.9996C49.9771 89.9996 48.8787 89.7235 47.7803 89.2634C46.3158 87.791 45.4005 85.7664 45.4005 83.4658C45.4005 78.9566 49.0618 75.2756 53.5469 75.2756C54.8284 75.2756 55.9268 75.5517 57.0252 76.1039C58.4897 77.4842 59.405 79.5088 59.405 81.8094Z" fill="#A7AEC0"/>
<path d="M68.9245 85.5825C68.9245 88.7113 66.3615 91.288 63.2494 91.288C61.6933 91.288 60.2288 90.6438 59.2219 89.6316C58.2151 88.6193 57.5743 87.1469 57.5743 85.5825C57.5743 82.4536 60.1373 79.877 63.2494 79.877C64.0732 79.877 64.897 80.061 65.6293 80.4291C67.643 81.3493 68.9245 83.2819 68.9245 85.5825Z" fill="#74849B"/>
<path d="M67.3684 84.4782C67.3684 87.607 64.8055 90.1837 61.6934 90.1837C60.8696 90.1837 60.0458 89.9997 59.3135 89.6316C58.3066 88.6193 57.6659 87.1469 57.6659 85.5825C57.6659 82.4536 60.2288 79.877 63.3409 79.877C64.1647 79.877 64.9886 80.061 65.7208 80.4291C66.7277 81.4414 67.3684 82.9138 67.3684 84.4782Z" fill="#A7AEC0"/>
<path d="M19.1304 85.9502C19.1304 89.079 16.5675 91.6557 13.4554 91.6557C11.8993 91.6557 10.4348 91.0115 9.42793 89.9992C8.42107 88.987 7.78033 87.5146 7.78033 85.9502C7.78033 82.8213 10.3433 80.2446 13.4554 80.2446C14.2792 80.2446 15.103 80.4287 15.8353 80.7968C17.849 81.717 19.1304 83.6495 19.1304 85.9502Z" fill="#74849B"/>
<path d="M17.5743 84.7543C17.5743 87.8831 15.0114 90.4598 11.8993 90.4598C11.0755 90.4598 10.2517 90.2758 9.51942 89.9077C8.51256 88.8954 7.87183 87.423 7.87183 85.8586C7.87183 82.7298 10.4348 80.1531 13.5469 80.1531C14.3707 80.1531 15.1945 80.3371 15.9267 80.7052C16.9336 81.8095 17.5743 83.1899 17.5743 84.7543Z" fill="#A7AEC0"/>
<path d="M81.0069 85.3979C81.0069 88.5267 78.4439 91.1034 75.3318 91.1034C73.7757 91.1034 72.3112 90.4593 71.3043 89.447C70.2975 88.4347 69.6567 86.9623 69.6567 85.3979C69.6567 82.2691 72.2197 79.6924 75.3318 79.6924C76.1556 79.6924 76.9794 79.8764 77.7117 80.2445C79.6339 81.0728 81.0069 83.0973 81.0069 85.3979Z" fill="#74849B"/>
<path d="M79.3593 84.2021C79.3593 87.3309 76.7963 89.9076 73.6842 89.9076C72.8604 89.9076 72.0366 89.7235 71.3043 89.3554C70.2975 88.3432 69.6567 86.8708 69.6567 85.3064C69.6567 82.1775 72.2197 79.6008 75.3318 79.6008C76.1556 79.6008 76.9794 79.7849 77.7117 80.153C78.8101 81.2573 79.3593 82.6376 79.3593 84.2021Z" fill="#A7AEC0"/>
<path d="M104.073 84.6623C104.073 87.7911 101.51 90.3678 98.3982 90.3678C96.8421 90.3678 95.3776 89.7237 94.3707 88.7114C93.3639 87.6991 92.7231 86.2267 92.7231 84.6623C92.7231 81.5335 95.2861 78.9568 98.3982 78.9568C99.222 78.9568 100.046 79.1408 100.778 79.5089C102.7 80.4292 104.073 82.4537 104.073 84.6623Z" fill="#74849B"/>
<path d="M102.426 83.558C102.426 86.6869 99.8627 89.2635 96.7506 89.2635C95.9268 89.2635 95.103 89.0795 94.3707 88.7114C93.3639 87.6991 92.7231 86.2267 92.7231 84.6623C92.7231 81.5335 95.2861 78.9568 98.3982 78.9568C99.222 78.9568 100.046 79.1408 100.778 79.5089C101.785 80.6132 102.426 81.9936 102.426 83.558Z" fill="#74849B"/>
<path d="M93.8214 80.8894C93.8214 84.0182 91.2585 86.5949 88.1464 86.5949C86.5903 86.5949 85.1258 85.9507 84.1189 84.9384C83.112 83.9262 82.4713 82.4538 82.4713 80.8894C82.4713 77.7605 85.0342 75.1838 88.1464 75.1838C88.9702 75.1838 89.794 75.3679 90.5262 75.736C92.54 76.6562 93.8214 78.5888 93.8214 80.8894Z" fill="#74849B"/>
<path d="M92.2654 79.7851C92.2654 82.9139 89.7025 85.4906 86.5903 85.4906C85.7665 85.4906 84.9427 85.3065 84.2105 84.9384C83.2036 83.9262 82.5629 82.4538 82.5629 80.8894C82.5629 77.7605 85.1258 75.1838 88.2379 75.1838C89.0617 75.1838 89.8855 75.3679 90.6178 75.736C91.6247 76.7483 92.2654 78.2206 92.2654 79.7851Z" fill="#A7AEC0"/>
<path d="M101.236 74.9072C101.236 78.036 98.6727 80.6127 95.5606 80.6127C94.0046 80.6127 92.54 79.9685 91.5332 78.9563C90.5263 77.944 89.8856 76.4716 89.8856 74.9072C89.8856 71.7784 92.4485 69.2017 95.5606 69.2017C96.3844 69.2017 97.2082 69.3857 97.9405 69.7538C99.9542 70.582 101.236 72.6066 101.236 74.9072Z" fill="#74849B"/>
<path d="M99.6796 73.7113C99.6796 76.8402 97.1166 79.4169 94.0045 79.4169C93.1807 79.4169 92.3569 79.2328 91.6246 78.8647C90.6178 77.8524 89.9771 76.3801 89.9771 74.8156C89.9771 71.6868 92.54 69.1101 95.6521 69.1101C96.4759 69.1101 97.2997 69.2942 98.032 69.6623C99.0388 70.7665 99.6796 72.1469 99.6796 73.7113Z" fill="#A7AEC0"/>
<path d="M65.3547 86.1348C65.3547 88.3434 63.6155 90.0918 61.4187 90.0918C60.3203 90.0918 59.3135 89.6317 58.6727 88.8955C57.9405 88.1593 57.5743 87.2391 57.5743 86.1348C57.5743 83.9262 59.3135 82.1777 61.5103 82.1777C62.151 82.1777 62.7002 82.2698 63.1579 82.5458C64.4393 83.19 65.3547 84.5704 65.3547 86.1348Z" fill="#74849B"/>
<path d="M64.2563 85.3066C64.2563 87.5152 62.5171 89.2636 60.3203 89.2636C59.6796 89.2636 59.1304 89.1716 58.6727 88.8955C57.9405 88.1593 57.5743 87.2391 57.5743 86.1348C57.5743 83.9262 59.3135 82.1777 61.5103 82.1777C62.151 82.1777 62.7002 82.2698 63.1579 82.5458C63.7986 83.282 64.2563 84.2023 64.2563 85.3066Z" fill="#A7AEC0"/>
<path d="M23.7071 69.7542C23.7071 71.9628 21.9679 73.7112 19.7712 73.7112C18.6728 73.7112 17.6659 73.2511 17.0252 72.5149C16.2929 71.7787 15.9268 70.8585 15.9268 69.7542C15.9268 67.5456 17.6659 65.7971 19.8627 65.7971C20.5034 65.7971 21.0526 65.8891 21.5103 66.1652C22.7917 66.8094 23.7071 68.0977 23.7071 69.7542Z" fill="#74849B"/>
<path d="M22.6087 68.926C22.6087 71.1345 20.8695 72.883 18.6728 72.883C18.032 72.883 17.4828 72.791 17.0252 72.5149C16.2929 71.7787 15.9268 70.8585 15.9268 69.7542C15.9268 67.5456 17.6659 65.7971 19.8627 65.7971C20.5034 65.7971 21.0526 65.8891 21.5103 66.1652C22.151 66.8094 22.6087 67.8217 22.6087 68.926Z" fill="#A7AEC0"/>
<path d="M47.1396 69.294C47.1396 71.5026 45.4004 73.251 43.2036 73.251C42.1052 73.251 41.0984 72.7909 40.4577 72.0547C39.7254 71.3185 39.3593 70.3983 39.3593 69.294C39.3593 67.0854 41.0984 65.3369 43.2952 65.3369C43.9359 65.3369 44.4851 65.4289 44.9428 65.705C46.2242 66.3492 47.1396 67.7296 47.1396 69.294Z" fill="#74849B"/>
<path d="M46.0412 68.5575C46.0412 70.7661 44.302 72.5146 42.1052 72.5146C41.4645 72.5146 40.9153 72.4226 40.4577 72.1465C39.7254 71.4103 39.3593 70.4901 39.3593 69.3858C39.3593 67.1772 41.0984 65.4287 43.2952 65.4287C43.9359 65.4287 44.4851 65.5207 44.9428 65.7968C45.5835 66.441 46.0412 67.4533 46.0412 68.5575Z" fill="#A7AEC0"/>
<path d="M106.911 80.7053C106.911 82.9139 105.172 84.6624 102.975 84.6624C101.876 84.6624 100.87 84.2023 100.229 83.4661C99.4966 82.7299 99.1305 81.8096 99.1305 80.7053C99.1305 78.4968 100.87 76.7483 103.066 76.7483C103.707 76.7483 104.256 76.8403 104.714 77.1164C105.995 77.7606 106.911 79.1409 106.911 80.7053Z" fill="#74849B"/>
<path d="M105.812 79.9687C105.812 82.1773 104.073 83.9257 101.876 83.9257C101.236 83.9257 100.687 83.8337 100.229 83.5576C99.4966 82.8214 99.1305 81.9012 99.1305 80.7969C99.1305 78.5883 100.87 76.8398 103.066 76.8398C103.707 76.8398 104.256 76.9319 104.714 77.2079C105.355 77.8521 105.812 78.8644 105.812 79.9687Z" fill="#A7AEC0"/>
<path d="M38.627 83.926C38.627 86.1346 36.8879 87.8831 34.6911 87.8831C33.5927 87.8831 32.5858 87.423 31.9451 86.6868C31.2128 85.9506 30.8467 85.0303 30.8467 83.926C30.8467 81.7175 32.5858 79.969 34.7826 79.969C35.4233 79.969 35.9725 80.061 36.4302 80.3371C37.7117 80.9813 38.627 82.2696 38.627 83.926Z" fill="#74849B"/>
<path d="M37.5286 83.0978C37.5286 85.3064 35.7895 87.0549 33.5927 87.0549C32.9519 87.0549 32.4027 86.9629 31.9451 86.6868C31.2128 85.9506 30.8467 85.0303 30.8467 83.926C30.8467 81.7175 32.5858 79.969 34.7826 79.969C35.4233 79.969 35.9725 80.061 36.4302 80.3371C37.0709 80.9813 37.5286 81.9935 37.5286 83.0978Z" fill="#A7AEC0"/>
<path d="M11.8078 86.3186C11.8078 88.5272 10.0687 90.2757 7.87186 90.2757C6.77346 90.2757 5.7666 89.8156 5.12586 89.0794C4.3936 88.3432 4.02747 87.4229 4.02747 86.3186C4.02747 84.11 5.7666 82.3616 7.96339 82.3616C8.60412 82.3616 9.15332 82.4536 9.61099 82.7297C10.8925 83.3738 11.8078 84.7542 11.8078 86.3186Z" fill="#74849B"/>
<path d="M10.7094 85.5822C10.7094 87.7908 8.97026 89.5393 6.77346 89.5393C6.13273 89.5393 5.58353 89.4472 5.12586 89.1712C4.3936 88.435 4.02747 87.5147 4.02747 86.4104C4.02747 84.2018 5.7666 82.4534 7.96339 82.4534C8.60412 82.4534 9.15332 82.5454 9.61099 82.8215C10.2517 83.4656 10.7094 84.4779 10.7094 85.5822Z" fill="#A7AEC0"/>
<path d="M14.1877 83.0977C14.1877 85.3063 12.4485 87.0547 10.2517 87.0547C9.15334 87.0547 8.14648 86.5946 7.50575 85.8584C6.77348 85.1222 6.40735 84.202 6.40735 83.0977C6.40735 80.8891 8.14648 79.1406 10.3433 79.1406C10.984 79.1406 11.5332 79.2327 11.9909 79.5087C13.2723 80.1529 14.1877 81.5333 14.1877 83.0977Z" fill="#74849B"/>
<path d="M13.0893 82.3613C13.0893 84.5698 11.3501 86.3183 9.15334 86.3183C8.51261 86.3183 7.96341 86.2263 7.50575 85.9502C6.77348 85.214 6.40735 84.2938 6.40735 83.1895C6.40735 80.9809 8.14648 79.2324 10.3433 79.2324C10.984 79.2324 11.5332 79.3244 11.9909 79.6005C12.6316 80.2447 13.0893 81.257 13.0893 82.3613Z" fill="#A7AEC0"/>
<path d="M28.3753 81.6255C28.3753 83.8341 26.6362 85.5826 24.4394 85.5826C23.341 85.5826 22.3341 85.1224 21.6934 84.3862C20.9611 83.6501 20.595 82.7298 20.595 81.6255C20.595 79.4169 22.3341 77.6685 24.5309 77.6685C25.1716 77.6685 25.7208 77.7605 26.1785 78.0366C27.46 78.6807 28.3753 80.0611 28.3753 81.6255Z" fill="#74849B"/>
<path d="M27.2769 80.8888C27.2769 83.0974 25.5378 84.8459 23.341 84.8459C22.7002 84.8459 22.151 84.7539 21.6934 84.4778C20.9611 83.7416 20.595 82.8214 20.595 81.7171C20.595 79.5085 22.3341 77.76 24.5309 77.76C25.1716 77.76 25.7208 77.852 26.1785 78.1281C26.8192 78.7723 27.2769 79.7846 27.2769 80.8888Z" fill="#A7AEC0"/>
<path d="M84.8512 74.5395C84.8512 75.4597 84.119 76.1959 83.2036 76.1959C82.746 76.1959 82.2883 76.0119 82.0137 75.7358C81.7391 75.4598 81.556 74.9996 81.556 74.5395C81.556 73.6193 82.2883 72.8831 83.2036 72.8831C83.4782 72.8831 83.6613 72.9751 83.9359 73.0671C84.4851 73.3432 84.8512 73.8953 84.8512 74.5395Z" fill="#74849B"/>
<path d="M84.3936 74.2634C84.3936 75.1837 83.6613 75.9199 82.746 75.9199C82.4714 75.9199 82.2883 75.8278 82.0137 75.7358C81.7391 75.4598 81.556 74.9996 81.556 74.5395C81.556 73.6193 82.2883 72.8831 83.2036 72.8831C83.4782 72.8831 83.6613 72.9751 83.9359 73.0671C84.2105 73.3432 84.3936 73.8033 84.3936 74.2634Z" fill="#A7AEC0"/>
<path d="M108.65 87.5151C108.65 88.4353 107.918 89.1715 107.002 89.1715C106.545 89.1715 106.087 88.9875 105.812 88.7114C105.538 88.4353 105.355 87.9752 105.355 87.5151C105.355 86.5948 106.087 85.8586 107.002 85.8586C107.277 85.8586 107.46 85.9507 107.734 86.0427C108.284 86.3188 108.65 86.8709 108.65 87.5151Z" fill="#74849B"/>
<path d="M108.192 87.239C108.192 88.1593 107.46 88.8954 106.545 88.8954C106.27 88.8954 106.087 88.8034 105.812 88.7114C105.538 88.4353 105.355 87.9752 105.355 87.5151C105.355 86.5948 106.087 85.8586 107.002 85.8586C107.277 85.8586 107.46 85.9507 107.734 86.0427C108.009 86.3188 108.192 86.7789 108.192 87.239Z" fill="#A7AEC0"/>
<path d="M68.4668 75.6437C68.4668 76.564 67.7346 77.3002 66.8192 77.3002C66.3616 77.3002 65.9039 77.1161 65.6293 76.8401C65.3547 76.564 65.1716 76.1039 65.1716 75.6437C65.1716 74.7235 65.9039 73.9873 66.8192 73.9873C67.0938 73.9873 67.2769 74.0793 67.5515 74.1714C68.1007 74.4474 68.4668 74.9996 68.4668 75.6437Z" fill="#74849B"/>
<path d="M68.0092 75.3677C68.0092 76.2879 67.2769 77.0241 66.3616 77.0241C66.087 77.0241 65.9039 76.9321 65.6293 76.8401C65.3547 76.564 65.1716 76.1039 65.1716 75.6437C65.1716 74.7235 65.9039 73.9873 66.8192 73.9873C67.0938 73.9873 67.2769 74.0793 67.5515 74.1714C67.8261 74.4474 68.0092 74.9076 68.0092 75.3677Z" fill="#A7AEC0"/>
<path d="M31.3043 86.4108C31.3043 87.3311 30.5721 88.0673 29.6568 88.0673C29.1991 88.0673 28.7414 87.8832 28.4668 87.6072C28.1922 87.3311 28.0092 86.871 28.0092 86.4108C28.0092 85.4906 28.7414 84.7544 29.6568 84.7544C29.9314 84.7544 30.1144 84.8464 30.389 84.9384C30.8467 85.2145 31.3043 85.7667 31.3043 86.4108Z" fill="#74849B"/>
<path d="M30.8467 86.1348C30.8467 87.055 30.1144 87.7912 29.1991 87.7912C28.9245 87.7912 28.7414 87.6992 28.4668 87.6072C28.1922 87.3311 28.0092 86.871 28.0092 86.4108C28.0092 85.4906 28.7414 84.7544 29.6568 84.7544C29.9314 84.7544 30.1144 84.8464 30.389 84.9384C30.6636 85.2145 30.8467 85.6746 30.8467 86.1348Z" fill="#A7AEC0"/>
<path d="M36.5218 72.3308C36.5218 73.251 35.7895 73.9872 34.8742 73.9872C34.4165 73.9872 33.9588 73.8032 33.6842 73.5271C33.4096 73.251 33.2266 72.7909 33.2266 72.3308C33.2266 71.4105 33.9588 70.6743 34.8742 70.6743C35.1488 70.6743 35.3318 70.7663 35.6064 70.8584C36.1556 71.0424 36.5218 71.6866 36.5218 72.3308Z" fill="#EA8600"/>
<path d="M36.0641 71.9629C36.0641 72.8831 35.3318 73.6193 34.4165 73.6193C34.1419 73.6193 33.9588 73.5273 33.6842 73.4353C33.4096 73.1592 33.2266 72.6991 33.2266 72.239C33.2266 71.3187 33.9588 70.5825 34.8742 70.5825C35.1488 70.5825 35.3318 70.6745 35.6064 70.7666C35.881 71.1347 36.0641 71.5028 36.0641 71.9629Z" fill="#F5C902"/>
<path d="M3.38673 85.2145C3.38673 86.1348 2.65446 86.871 1.73913 86.871C1.28146 86.871 0.823799 86.6869 0.549199 86.4109C0.183066 86.1348 0 85.6747 0 85.2145C0 84.2943 0.732265 83.5581 1.6476 83.5581C1.9222 83.5581 2.10526 83.6501 2.37986 83.7422C2.92906 83.9262 3.38673 84.5704 3.38673 85.2145Z" fill="#74849B"/>
<path d="M2.92906 84.8464C2.92906 85.7667 2.1968 86.5029 1.28146 86.5029C1.00686 86.5029 0.823799 86.4109 0.549199 86.3188C0.183066 86.1348 0 85.6747 0 85.2145C0 84.2943 0.732265 83.5581 1.6476 83.5581C1.9222 83.5581 2.10526 83.6501 2.37986 83.7422C2.65446 84.0182 2.92906 84.3863 2.92906 84.8464Z" fill="#A7AEC0"/>
<path d="M88.1464 69.2018C88.1464 69.6619 87.7803 69.938 87.4142 69.938C87.2311 69.938 87.048 69.8459 86.865 69.7539C86.7734 69.6619 86.6819 69.3858 86.6819 69.2018C86.6819 68.7416 87.048 68.4656 87.4142 68.4656C87.5057 68.4656 87.5972 68.4656 87.7803 68.5576C87.9634 68.6496 88.1464 68.9257 88.1464 69.2018Z" fill="#74849B"/>
<path d="M87.9634 69.0182C87.9634 69.4783 87.5972 69.7544 87.2311 69.7544C87.1396 69.7544 87.048 69.7544 86.865 69.6624C86.7734 69.5703 86.6819 69.2943 86.6819 69.1102C86.6819 68.6501 87.048 68.374 87.4142 68.374C87.5057 68.374 87.5972 68.374 87.7803 68.466C87.8718 68.6501 87.9634 68.8341 87.9634 69.0182Z" fill="#A7AEC0"/>
<path d="M108.467 73.0668C108.467 73.5269 108.101 73.803 107.735 73.803C107.552 73.803 107.368 73.7109 107.185 73.6189C107.094 73.5269 107.002 73.2508 107.002 73.0668C107.002 72.6066 107.368 72.3306 107.735 72.3306C107.826 72.3306 107.918 72.3306 108.101 72.4226C108.284 72.5146 108.467 72.7907 108.467 73.0668Z" fill="#74849B"/>
<path d="M108.284 72.8829C108.284 73.3431 107.918 73.6191 107.552 73.6191C107.46 73.6191 107.368 73.6191 107.185 73.5271C107.094 73.4351 107.002 73.159 107.002 72.975C107.002 72.5148 107.368 72.2388 107.735 72.2388C107.826 72.2388 107.918 72.2388 108.101 72.3308C108.192 72.5148 108.284 72.6989 108.284 72.8829Z" fill="#A7AEC0"/>
<path d="M22.4257 80.337C22.4257 80.7972 22.0596 81.0732 21.6934 81.0732C21.5104 81.0732 21.3273 80.9812 21.1442 80.8892C21.0527 80.7972 20.9612 80.5211 20.9612 80.337C20.9612 79.8769 21.3273 79.6008 21.6934 79.6008C21.785 79.6008 21.8765 79.6008 22.0596 79.6929C22.2426 79.7849 22.4257 80.061 22.4257 80.337Z" fill="#74849B"/>
<path d="M22.2426 80.245C22.2426 80.7051 21.8765 80.9812 21.5104 80.9812C21.4188 80.9812 21.3273 80.9812 21.1442 80.8892C21.0527 80.7972 20.9612 80.5211 20.9612 80.337C20.9612 79.8769 21.3273 79.6008 21.6934 79.6008C21.785 79.6008 21.8765 79.6008 22.0596 79.6929C22.1511 79.8769 22.2426 80.061 22.2426 80.245Z" fill="#A7AEC0"/>
<path d="M92.6315 79.5089C92.6315 79.969 92.2654 80.2451 91.8993 80.2451C91.7162 80.2451 91.5331 80.1531 91.3501 80.0611C91.2585 79.969 91.167 79.693 91.167 79.5089C91.167 79.0488 91.5331 78.7727 91.8993 78.7727C91.9908 78.7727 92.0823 78.7727 92.2654 78.8647C92.4485 78.9568 92.6315 79.2328 92.6315 79.5089Z" fill="#74849B"/>
<path d="M92.4485 79.4169C92.4485 79.877 92.0823 80.1531 91.7162 80.1531C91.6247 80.1531 91.5331 80.1531 91.3501 80.0611C91.2585 79.969 91.167 79.693 91.167 79.5089C91.167 79.0488 91.5331 78.7727 91.8993 78.7727C91.9908 78.7727 92.0823 78.7727 92.2654 78.8647C92.3569 78.9568 92.4485 79.1408 92.4485 79.4169Z" fill="#A7AEC0"/>
<path d="M23.6156 68.65C23.6156 69.0181 23.341 69.2942 22.9748 69.2942C22.7918 69.2942 22.6087 69.2022 22.5172 69.1102C22.4256 69.0181 22.3341 68.8341 22.3341 68.65C22.3341 68.2819 22.6087 68.0059 22.9748 68.0059C23.0664 68.0059 23.1579 68.0059 23.2494 68.0979C23.4325 68.1899 23.6156 68.374 23.6156 68.65Z" fill="#74849B"/>
<path d="M23.4325 68.558C23.4325 68.9261 23.1579 69.2022 22.7918 69.2022C22.7002 69.2022 22.6087 69.2022 22.5172 69.1102C22.4256 69.0181 22.3341 68.8341 22.3341 68.65C22.3341 68.2819 22.6087 68.0059 22.9748 68.0059C23.0664 68.0059 23.1579 68.0059 23.2494 68.0979C23.341 68.1899 23.4325 68.374 23.4325 68.558Z" fill="#A7AEC0"/>
<path d="M2.10532 77.0243C2.10532 77.3924 1.83072 77.6685 1.46458 77.6685C1.28152 77.6685 1.09845 77.5764 1.00692 77.4844C0.915386 77.3924 0.823853 77.2083 0.823853 77.0243C0.823853 76.6562 1.09845 76.3801 1.46458 76.3801C1.55612 76.3801 1.64765 76.3801 1.73918 76.4722C1.92225 76.5642 2.10532 76.8402 2.10532 77.0243Z" fill="#74849B"/>
<path d="M1.92225 76.9323C1.92225 77.3004 1.64765 77.5764 1.28152 77.5764C1.18999 77.5764 1.09845 77.5764 1.00692 77.4844C0.915386 77.3924 0.823853 77.2083 0.823853 77.0243C0.823853 76.6562 1.09845 76.3801 1.46458 76.3801C1.55612 76.3801 1.64765 76.3801 1.73918 76.4722C1.83072 76.5642 1.92225 76.7482 1.92225 76.9323Z" fill="#A7AEC0"/>
<path d="M99.8627 83.6499C99.8627 88.1591 96.2014 91.8401 91.7163 91.8401C89.4279 91.8401 87.4142 90.9198 85.9497 89.4474C84.4852 87.9751 83.5698 85.9505 83.5698 83.6499C83.5698 79.1407 87.2311 75.4597 91.7163 75.4597C92.9977 75.4597 94.0961 75.7358 95.1945 76.2879C97.9405 77.4843 99.8627 80.337 99.8627 83.6499Z" fill="#74849B"/>
<path d="M97.5744 81.9935C97.5744 86.5027 93.9131 90.1837 89.4279 90.1837C88.1465 90.1837 87.0481 89.9076 85.9497 89.4475C84.4852 87.9751 83.5698 85.9505 83.5698 83.6499C83.5698 79.1407 87.2311 75.4597 91.7163 75.4597C92.9977 75.4597 94.0961 75.7358 95.1945 76.2879C96.6591 77.6683 97.5744 79.6928 97.5744 81.9935Z" fill="#A7AEC0"/>
<path d="M53.6385 79.9693C55.0034 79.9693 56.1099 78.8569 56.1099 77.4847C56.1099 76.1124 55.0034 75 53.6385 75C52.2736 75 51.1671 76.1124 51.1671 77.4847C51.1671 78.8569 52.2736 79.9693 53.6385 79.9693Z" fill="#C5D0E2"/>
<path d="M25.1717 77.4847C26.5366 77.4847 27.6431 76.3723 27.6431 75C27.6431 73.6278 26.5366 72.5154 25.1717 72.5154C23.8068 72.5154 22.7003 73.6278 22.7003 75C22.7003 76.3723 23.8068 77.4847 25.1717 77.4847Z" fill="#C5D0E2"/>
<path d="M16.293 85.0304C17.2535 85.0304 18.0321 84.2476 18.0321 83.2819C18.0321 82.3163 17.2535 81.5334 16.293 81.5334C15.3325 81.5334 14.5538 82.3163 14.5538 83.2819C14.5538 84.2476 15.3325 85.0304 16.293 85.0304Z" fill="#C5D0E2"/>
<path d="M20.2288 79.049C20.7343 79.049 21.1441 78.637 21.1441 78.1287C21.1441 77.6205 20.7343 77.2085 20.2288 77.2085C19.7233 77.2085 19.3135 77.6205 19.3135 78.1287C19.3135 78.637 19.7233 79.049 20.2288 79.049Z" fill="url(#paint16_linear)"/>
<path d="M58.3067 71.5952C58.7617 71.5952 59.1305 71.2244 59.1305 70.7669C59.1305 70.3095 58.7617 69.9387 58.3067 69.9387C57.8517 69.9387 57.4829 70.3095 57.4829 70.7669C57.4829 71.2244 57.8517 71.5952 58.3067 71.5952Z" fill="url(#paint17_linear)"/>
<path d="M113.227 74.2636C113.682 74.2636 114.05 73.8928 114.05 73.4354C114.05 72.978 113.682 72.6072 113.227 72.6072C112.772 72.6072 112.403 72.978 112.403 73.4354C112.403 73.8928 112.772 74.2636 113.227 74.2636Z" fill="url(#paint18_linear)"/>
<path d="M90.8924 83.7424C91.2463 83.7424 91.5332 83.454 91.5332 83.0983C91.5332 82.7425 91.2463 82.4541 90.8924 82.4541C90.5386 82.4541 90.2517 82.7425 90.2517 83.0983C90.2517 83.454 90.5386 83.7424 90.8924 83.7424Z" fill="url(#paint19_linear)"/>
<path d="M80.5492 16.6564L73.8673 19.7853L72.0366 18.589L67.9176 15.7362C66.7277 14.908 66.0869 13.5276 66.27 12.1472L66.4531 10.6749L65.5377 10.1227C64.1647 9.20246 63.6155 7.45399 64.0732 5.88957L64.1647 5.6135C62.7917 4.60123 62.151 2.76074 62.7917 1.10429L63.1579 0L75.2403 7.26994C77.254 8.46626 78.7185 10.3068 79.5423 12.5153C79.7254 12.9755 79.8169 13.4356 79.9085 13.8037L80.5492 16.6564Z" fill="#6C7384"/>
<path d="M64.2562 5.61353L69.3821 8.55831" stroke="#1E1F28" stroke-miterlimit="10" stroke-linecap="round" stroke-linejoin="round"/>
<path d="M66.453 10.7666L71.5789 13.7114" stroke="#1E1F28" stroke-miterlimit="10" stroke-linecap="round" stroke-linejoin="round"/>
<path d="M114.691 33.1287L114.508 33.4048C113.41 34.6931 111.671 35.1532 110.206 34.5091L109.291 34.141L108.192 35.0612C107.094 35.9815 105.629 36.1655 104.256 35.6134L99.3135 33.4968L97.6659 32.7606L96.6591 25.3986L99.3135 24.3864C99.6797 24.2943 99.9543 24.1103 100.32 24.0183C102.7 23.3741 105.172 23.6502 107.368 24.7545L120 30.9201L119.268 31.8404C118.169 33.3127 116.339 33.8649 114.691 33.1287Z" fill="#6C7384"/>
<path d="M114.691 33.1287L109.382 30.46" stroke="#1E1F28" stroke-miterlimit="10" stroke-linecap="round" stroke-linejoin="round"/>
<path d="M109.199 34.1409L103.89 31.3801" stroke="#1E1F28" stroke-miterlimit="10" stroke-linecap="round" stroke-linejoin="round"/>
<path d="M96.0311 36.5427C95.2988 37.3709 94.5664 38.1075 93.6511 38.7517C93.468 38.9357 93.2849 39.0277 93.1018 39.1197C92.4611 39.5798 91.729 40.0397 90.9967 40.3158C90.7221 40.4078 90.4475 40.5918 90.0814 40.6838C88.3423 41.328 86.4201 41.6961 84.5894 41.6041C84.2233 41.6041 83.8571 41.6044 83.5825 41.5124C83.0333 41.4204 82.3926 41.3281 81.8434 41.2361C79.6466 40.7759 77.5412 39.7639 75.7105 38.1994C69.6693 33.0461 68.8457 23.8433 74.0631 17.6777C79.189 11.512 88.3422 10.7759 94.3834 15.9293C96.4887 17.7698 98.0447 20.1625 98.8685 22.9233C100.241 27.7085 99.1432 32.8617 96.0311 36.5427Z" fill="url(#paint20_linear)"/>
<path d="M93.5597 34.5185C93.0105 35.1627 92.3698 35.7148 91.729 36.2669C91.6375 36.3589 91.4544 36.4508 91.2714 36.5428C90.7222 36.9109 90.1732 37.187 89.624 37.463C89.3494 37.5551 89.1663 37.6474 88.8917 37.7394C87.5187 38.2915 86.0542 38.4754 84.5896 38.4754C84.315 38.4754 84.0403 38.4753 83.7657 38.3833C83.308 38.2913 82.8504 38.2915 82.3927 38.1995C80.6536 37.8314 79.0059 37.0031 77.5414 35.8068C72.7817 31.7577 72.2326 24.58 76.26 19.8867C80.2875 15.1014 87.4271 14.5489 92.0953 18.598C93.7429 20.0704 95.0244 21.9113 95.5736 24.0278C96.8551 27.6168 96.0311 31.5737 93.5597 34.5185Z" stroke="#F9B400" stroke-width="1.5" stroke-miterlimit="10"/>
<path d="M92.7232 38.8344C92.0824 39.2945 91.4417 39.6626 90.801 39.9387C90.5264 40.0307 90.2518 40.2147 89.9772 40.3068C88.238 40.9509 86.4989 41.227 84.6682 41.227C84.3021 41.227 84.0275 41.227 83.6614 41.135C83.1122 41.0429 82.563 40.9509 82.0138 40.8589L78.5355 28.9877L81.6476 29.0798L82.2884 28.6196L83.0206 27.4233C83.0206 27.4233 85.309 23.0061 85.2174 22.8221C85.2174 22.7301 87.5058 20.4294 87.5058 20.4294L87.3227 22.8221L89.428 21.4417L94.1877 37.7301C94.0046 38.0061 92.9062 38.7423 92.7232 38.8344Z" fill="url(#paint21_linear)"/>
<path d="M80.7322 32.8529C80.366 32.6688 79.9084 32.3928 79.5422 32.2087C79.9084 31.5645 80.2745 30.9204 80.6406 30.2762C79.9084 29.8161 79.1761 29.448 78.4438 28.9879C79.0846 28.1596 79.1761 28.0676 79.3592 27.8836C79.4507 27.7915 79.4507 27.7915 79.5422 27.8836C79.7253 27.9756 79.9999 28.1596 80.183 28.2517C80.5491 28.4357 80.6406 28.3437 80.8237 28.0676C81.6475 26.5032 82.5628 24.8468 83.3866 23.2823C83.6612 22.8222 83.4782 22.4541 83.112 22.2701C82.8374 22.086 82.5628 21.994 82.2882 21.8099C82.4713 21.4418 82.7459 21.0737 82.929 20.6136C83.3866 20.7977 84.2104 21.2578 84.9427 21.7179C85.0342 21.8099 85.0342 21.8099 85.1258 21.6259C85.3088 21.1658 85.9496 20.1535 86.1326 19.7854C86.4988 19.9694 86.9564 20.2455 87.3226 20.4296C86.9564 21.0737 86.5903 21.7179 86.2242 22.3621C86.4988 22.5461 86.7734 22.6382 87.1395 22.8222C87.5056 22.178 87.8718 21.5339 88.2379 20.8897C88.604 21.0737 88.9702 21.2578 89.3363 21.4418C89.2448 21.6259 88.3294 23.2823 88.3294 23.3744C88.3294 23.4664 88.3294 23.4664 88.3294 23.5584C89.6109 24.4787 90.4347 25.4909 89.8855 26.8713C89.7024 27.3314 89.3363 27.7915 88.8786 27.9756C88.5125 28.1596 88.2379 28.1596 87.9633 28.1596C88.2379 28.4357 88.9702 29.1719 88.7871 30.2762C88.6956 30.7363 88.5125 31.1044 88.2379 31.4725C87.9633 31.8406 87.5972 32.1167 87.231 32.3928C86.7734 32.6688 86.2242 32.6688 85.675 32.5768C85.0342 32.4848 84.3935 32.3007 83.8443 32.0247C83.7528 32.0247 83.7528 32.0247 83.6612 32.1167C83.3866 32.6688 83.112 33.221 82.6544 33.9572C82.2882 33.7731 81.9221 33.5891 81.556 33.405C81.9221 32.7609 82.2882 32.1167 82.5628 31.4725C82.2882 31.2885 82.0136 31.1964 81.6475 31.0124C81.3729 31.5645 81.0983 32.2087 80.7322 32.8529ZM83.8443 27.1474C83.3866 27.9756 82.929 28.8038 82.4713 29.632C83.6612 30.2762 84.302 30.6443 85.1258 30.6443C85.5834 30.6443 85.9496 30.4603 86.1326 30.0922C86.4072 29.7241 86.4072 29.2639 86.1326 28.8958C85.7665 28.0676 84.5766 27.5155 83.8443 27.1474ZM85.675 23.7425C85.3088 24.4787 84.8512 25.2149 84.485 25.951C84.8512 26.2271 85.7665 26.6872 86.2242 26.7793C87.5972 27.0553 88.0548 25.767 87.5056 25.1228C86.9564 24.3866 86.2242 24.1106 85.675 23.7425Z" fill="url(#paint22_linear)"/>
<defs>
<linearGradient id="paint0_linear" x1="7.25481" y1="70.2034" x2="8.40941" y2="70.2034" gradientUnits="userSpaceOnUse">
<stop offset="0.00289017" stop-color="#FFD44F"/>
<stop offset="1" stop-color="#FFA607"/>
</linearGradient>
<linearGradient id="paint1_linear" x1="108.813" y1="64.2649" x2="107.608" y2="63.483" gradientUnits="userSpaceOnUse">
<stop offset="0.00289017" stop-color="#FFD44F"/>
<stop offset="1" stop-color="#FFA607"/>
</linearGradient>
<linearGradient id="paint2_linear" x1="91.4916" y1="62.4532" x2="89.4986" y2="62.4532" gradientUnits="userSpaceOnUse">
<stop stop-color="#FF66A9"/>
<stop offset="1" stop-color="#F53689"/>
</linearGradient>
<linearGradient id="paint3_linear" x1="68.7774" y1="59.2619" x2="66.7844" y2="59.2619" gradientUnits="userSpaceOnUse">
<stop stop-color="#FF66A9"/>
<stop offset="1" stop-color="#F53689"/>
</linearGradient>
<linearGradient id="paint4_linear" x1="65.9393" y1="61.7025" x2="63.9461" y2="61.7025" gradientUnits="userSpaceOnUse">
<stop stop-color="#FF66A9"/>
<stop offset="1" stop-color="#F53689"/>
</linearGradient>
<linearGradient id="paint5_linear" x1="60.2631" y1="57.8861" x2="58.2701" y2="57.8861" gradientUnits="userSpaceOnUse">
<stop stop-color="#FF66A9"/>
<stop offset="1" stop-color="#F53689"/>
</linearGradient>
<linearGradient id="paint6_linear" x1="54.5868" y1="55.4841" x2="52.5939" y2="55.4841" gradientUnits="userSpaceOnUse">
<stop stop-color="#FF66A9"/>
<stop offset="1" stop-color="#F53689"/>
</linearGradient>
<linearGradient id="paint7_linear" x1="51.7487" y1="52.7566" x2="49.7559" y2="52.7566" gradientUnits="userSpaceOnUse">
<stop stop-color="#FF66A9"/>
<stop offset="1" stop-color="#F53689"/>
</linearGradient>
<linearGradient id="paint8_linear" x1="85.8543" y1="60.1463" x2="83.8612" y2="60.1463" gradientUnits="userSpaceOnUse">
<stop stop-color="#FF66A9"/>
<stop offset="1" stop-color="#F53689"/>
</linearGradient>
<linearGradient id="paint9_linear" x1="83.0161" y1="62.8742" x2="81.023" y2="62.8742" gradientUnits="userSpaceOnUse">
<stop stop-color="#FF66A9"/>
<stop offset="1" stop-color="#F53689"/>
</linearGradient>
<linearGradient id="paint10_linear" x1="46.0727" y1="45.9817" x2="44.0797" y2="45.9817" gradientUnits="userSpaceOnUse">
<stop stop-color="#FF66A9"/>
<stop offset="1" stop-color="#F53689"/>
</linearGradient>
<linearGradient id="paint11_linear" x1="37.5584" y1="44.4682" x2="35.5656" y2="44.4682" gradientUnits="userSpaceOnUse">
<stop stop-color="#FF66A9"/>
<stop offset="1" stop-color="#F53689"/>
</linearGradient>
<linearGradient id="paint12_linear" x1="26.2062" y1="61.2257" x2="24.2133" y2="61.2257" gradientUnits="userSpaceOnUse">
<stop stop-color="#FF66A9"/>
<stop offset="1" stop-color="#F53689"/>
</linearGradient>
<linearGradient id="paint13_linear" x1="20.5301" y1="55.5966" x2="18.5371" y2="55.5966" gradientUnits="userSpaceOnUse">
<stop stop-color="#FF66A9"/>
<stop offset="1" stop-color="#F53689"/>
</linearGradient>
<linearGradient id="paint14_linear" x1="78.5558" y1="39.2763" x2="68.1974" y2="58.0264" gradientUnits="userSpaceOnUse">
<stop offset="0.00289017" stop-color="#F9BC05"/>
<stop offset="1" stop-color="#A7AEC0"/>
</linearGradient>
<linearGradient id="paint15_linear" x1="66.8274" y1="62.9907" x2="65.5444" y2="76.1177" gradientUnits="userSpaceOnUse">
<stop offset="0.00289017" stop-color="#C5D0E2"/>
<stop offset="1" stop-color="#A7AEC0"/>
</linearGradient>
<linearGradient id="paint16_linear" x1="19.2621" y1="78.0957" x2="21.1637" y2="78.0957" gradientUnits="userSpaceOnUse">
<stop offset="0.00289017" stop-color="#FFD44F"/>
<stop offset="1" stop-color="#FFA607"/>
</linearGradient>
<linearGradient id="paint17_linear" x1="57.5172" y1="70.7312" x2="59.1736" y2="70.7312" gradientUnits="userSpaceOnUse">
<stop offset="0.00289017" stop-color="#FFD44F"/>
<stop offset="1" stop-color="#FFA607"/>
</linearGradient>
<linearGradient id="paint18_linear" x1="112.361" y1="73.4539" x2="114.017" y2="73.4539" gradientUnits="userSpaceOnUse">
<stop offset="0.00289017" stop-color="#FFD44F"/>
<stop offset="1" stop-color="#FFA607"/>
</linearGradient>
<linearGradient id="paint19_linear" x1="90.278" y1="83.057" x2="91.4875" y2="83.057" gradientUnits="userSpaceOnUse">
<stop offset="0.00289017" stop-color="#FFD44F"/>
<stop offset="1" stop-color="#FFA607"/>
</linearGradient>
<linearGradient id="paint20_linear" x1="72.0974" y1="20.3263" x2="97.5099" y2="34.0678" gradientUnits="userSpaceOnUse">
<stop offset="0.00289017" stop-color="#FFD44F"/>
<stop offset="1" stop-color="#FFA607"/>
</linearGradient>
<linearGradient id="paint21_linear" x1="84.4847" y1="27.0374" x2="87.0862" y2="35.7888" gradientUnits="userSpaceOnUse">
<stop stop-color="#FAA404"/>
<stop offset="1" stop-color="#FF7904" stop-opacity="0"/>
</linearGradient>
<linearGradient id="paint22_linear" x1="85.7272" y1="35.4978" x2="83.2678" y2="21.6242" gradientUnits="userSpaceOnUse">
<stop stop-color="#FFE491"/>
<stop offset="1" stop-color="white"/>
</linearGradient>
</defs>
</svg>
